<svg xmlns="http://www.w3.org/2000/svg" xmlns:xlink="http://www.w3.org/1999/xlink" viewBox="0 0 400 400"><defs><style>.cls-1{fill:#fff;}</style><symbol id="Logomark_U_" data-name="Logomark &quot;U&quot;" viewBox="0 0 123.52 150.27"><path class="cls-1" d="M123.52,0V93.07a332.42,332.42,0,0,1-37,7V0Z"/><path class="cls-1" d="M123.52,105.89v37.72c-20.59,4.44-38.09,6.66-52.88,6.66-27.37,0-45.74-7.64-57.7-23.55C4.44,115.63,0,101.82,0,86.54V0H37V86.54a33.66,33.66,0,0,0,1.48,10.11,25.68,25.68,0,0,0,3.95,7.76c6.65,8.88,24.4,11.1,52.63,6.91C103.55,110.08,113,108.23,123.52,105.89Z"/></symbol><symbol id="Logomark-2" data-name="Logomark" viewBox="0 0 400 400"><path id="Arrow_Upper" data-name="Arrow Upper" class="cls-1" d="M400,181.46H362.57C353.39,100.22,283.86,37,199.81,37A163.86,163.86,0,0,0,73.63,96l50.57-8.88,6.45,36.49-82.43,14.3v.13L19.58,143l-4.09-23.06L0,32.67l36.69-6.41,8.18,46.22A201.3,201.3,0,0,1,199.81,0C304.56,0,390.58,79.63,400,181.46Z"/><path id="Arrow_Lower" data-name="Arrow Lower" class="cls-1" d="M.16,218.54h37.4C46.73,299.78,116.21,363,200.19,363a163.69,163.69,0,0,0,126.08-59l-50.53,8.88-6.44-36.49,82.36-14.3v-.13L380.27,257l4.09,23.06,15.48,87.27-36.66,6.41L355,327.52A201.08,201.08,0,0,1,200.19,400C95.53,400,9.57,320.37.16,218.54Z"/><use width="123.52" height="150.27" transform="translate(138.24 124.87)" xlink:href="#Logomark_U_"/></symbol></defs><g id="Layer_2" data-name="Layer 2"><g id="Logomark"><use width="400" height="400" xlink:href="#Logomark-2"/></g></g></svg>