<svg xmlns="http://www.w3.org/2000/svg" xmlns:xlink="http://www.w3.org/1999/xlink" viewBox="0 0 1033.51 299.68"><defs><style>.cls-1{fill:#fff;}</style><symbol id="Logomark_U_" data-name="Logomark &quot;U&quot;" viewBox="0 0 123.52 150.27"><path class="cls-1" d="M123.52,0V93.07a332.42,332.42,0,0,1-37,7V0Z"/><path class="cls-1" d="M123.52,105.89v37.72c-20.59,4.44-38.09,6.66-52.88,6.66-27.37,0-45.74-7.64-57.7-23.55C4.44,115.63,0,101.82,0,86.54V0H37V86.54a33.66,33.66,0,0,0,1.48,10.11,25.68,25.68,0,0,0,3.95,7.76c6.65,8.88,24.4,11.1,52.63,6.91C103.55,110.08,113,108.23,123.52,105.89Z"/></symbol><symbol id="Logotype-2" data-name="Logotype" viewBox="0 0 1033.51 299.68"><path class="cls-1" d="M145.46,97a231.3,231.3,0,0,1,25.94-5.41,223.59,223.59,0,0,1,35.34-2.57q18.24,0,30.49,5a47.72,47.72,0,0,1,19.53,14A53.53,53.53,0,0,1,267,129.67a121.31,121.31,0,0,1,3,27.79v83.79H235.52V162.88A113.78,113.78,0,0,0,234,142.5a36.35,36.35,0,0,0-5.13-13.68,20.6,20.6,0,0,0-9.69-7.7,41,41,0,0,0-15-2.42,115,115,0,0,0-13.68.86q-7.12.85-10.54,1.42V241.25H145.46Z"/><path class="cls-1" d="M411.94,66q4.55,15.39,9.69,32.06t10.68,33.34q5.56,16.68,11.12,32.78t10.69,30.35q4.28-15.39,8.26-33.49t8-37.62q4-19.52,7.84-39.75t7.27-39.9h37q-10,53.58-22.2,103T473,241.25H438.44q-22.08-57.57-42.75-125.68-10.56,34.49-21.4,65.55T352.6,241.25H318.34q-15.36-45-27.44-94.48t-22-103h38.47q3.42,19.38,7.27,39.61t8,39.76q4.13,19.53,8.41,37.76t8.55,33.63q5.4-14.53,11-30.64t11-32.77q5.42-16.68,10.4-33.2T381.16,66Z"/><path class="cls-1" d="M580.65,88.49q17.1,0,28.79,4.28t18.67,12a44.84,44.84,0,0,1,10,18.66,91.24,91.24,0,0,1,3,24.09v90.34q-8,1.71-24.08,4.13a245.28,245.28,0,0,1-36.34,2.43,109.06,109.06,0,0,1-24.51-2.57,51.47,51.47,0,0,1-18.95-8.26,38.9,38.9,0,0,1-12.25-14.82q-4.43-9.12-4.42-22.52,0-12.83,5-21.66A40.82,40.82,0,0,1,539,160.17a58.58,58.58,0,0,1,19.81-8,111.77,111.77,0,0,1,23.51-2.42,107.31,107.31,0,0,1,12,.71,112.69,112.69,0,0,1,13.4,2.42v-5.7a44.62,44.62,0,0,0-1.43-11.4,23.71,23.71,0,0,0-5-9.55,23.47,23.47,0,0,0-9.41-6.41,40.74,40.74,0,0,0-14.68-2.28,130.2,130.2,0,0,0-21.94,1.71,96.56,96.56,0,0,0-16.25,4l-4.27-27.93a135.65,135.65,0,0,1,19.09-4.56A149.74,149.74,0,0,1,580.65,88.49ZM583.5,217q16,0,24.23-1.71V177.13a67.2,67.2,0,0,0-8.27-1.71,77,77,0,0,0-12-.86,79.56,79.56,0,0,0-11.54.86,35.84,35.84,0,0,0-10.54,3.13,19.14,19.14,0,0,0-7.56,6.41A17.94,17.94,0,0,0,555,195.37q0,12.25,7.7,16.95T583.5,217Z"/><path class="cls-1" d="M709.19,216.46q13.68,0,19.95-3.28c4.17-2.18,6.27-5.94,6.27-11.26q0-7.41-6.7-12.25t-22.09-10.55a172.75,172.75,0,0,1-17.24-7.27,58.58,58.58,0,0,1-13.54-9,37,37,0,0,1-9-12.4q-3.27-7.28-3.27-17.81,0-20.52,15.1-32.35t41-11.83a126.57,126.57,0,0,1,25.08,2.42,122.62,122.62,0,0,1,18,4.71l-6.27,27.93A85.25,85.25,0,0,0,742,118.84a88.15,88.15,0,0,0-20.52-2.13q-10.55,0-17.1,3.56a11.69,11.69,0,0,0-6.55,11,15.77,15.77,0,0,0,1.28,6.56,13.94,13.94,0,0,0,4.42,5.27,44.63,44.63,0,0,0,8.26,4.84,126.2,126.2,0,0,0,12.54,5,192.13,192.13,0,0,1,20.81,9,56.43,56.43,0,0,1,14.1,10,34.14,34.14,0,0,1,8.13,12.69,50.65,50.65,0,0,1,2.56,17.1q0,21.38-15.82,32.34T708.9,245q-19.67,0-31.63-3.28a163.1,163.1,0,0,1-16.82-5.27l6-28.79a155,155,0,0,0,18.38,6A94.81,94.81,0,0,0,709.19,216.46Z"/><path class="cls-1" d="M783.28,52.87l34.49-5.7v45h53V121h-53v60.71q0,18,5.7,25.65T842.85,215a63.13,63.13,0,0,0,16.67-2,112,112,0,0,0,11.54-3.71l5.7,27.36A128.41,128.41,0,0,1,861.09,242a85,85,0,0,1-22.8,2.71q-16,0-26.65-4.27a39.38,39.38,0,0,1-17-12.4,49.15,49.15,0,0,1-8.83-19.67A122.1,122.1,0,0,1,783.28,182Z"/><path class="cls-1" d="M884.46,167.44q0-19.66,5.84-34.49a72.28,72.28,0,0,1,15.53-24.65,64.29,64.29,0,0,1,22.23-14.82,68.94,68.94,0,0,1,25.65-5q30.78,0,48,19.1t17.24,57q0,2.85-.14,6.41c-.1,2.38-.24,4.51-.43,6.41H920.08q1.42,18,12.69,27.79T965.4,215a107.3,107.3,0,0,0,22.94-2.28,94.71,94.71,0,0,0,16.39-4.84l4.56,28.21a54.88,54.88,0,0,1-7.84,3,108.19,108.19,0,0,1-11.4,2.85q-6.4,1.29-13.82,2.14a131.9,131.9,0,0,1-15.11.86q-19.67,0-34.2-5.85A63.55,63.55,0,0,1,903,222.87a66.42,66.42,0,0,1-14-24.51A100.09,100.09,0,0,1,884.46,167.44Zm100-15.39a45.63,45.63,0,0,0-2-13.54,32.76,32.76,0,0,0-5.84-11.12,27.77,27.77,0,0,0-9.41-7.41,30,30,0,0,0-13.25-2.7,30.81,30.81,0,0,0-14,3,31.68,31.68,0,0,0-10.11,7.84,35.72,35.72,0,0,0-6.42,11.11,60.24,60.24,0,0,0-3.13,12.83Z"/><use width="123.52" height="150.27" transform="translate(0 90.98)" xlink:href="#Logomark_U_"/></symbol></defs><g id="Layer_2" data-name="Layer 2"><g id="Logotype"><use width="1033.51" height="299.68" xlink:href="#Logotype-2"/></g></g></svg>