<?xml version="1.0" encoding="UTF-8"?><svg xmlns="http://www.w3.org/2000/svg" viewBox="0 0 1920 1080"><defs><style>.f{fill:#a7a9ac;}.g{fill:#828385;}</style></defs><g id="a"/><g id="b"><g id="c"><rect id="d" class="g" width="1920" height="1080"/><g id="e"><g><path class="f" d="M42.29,275.14l39.12-39.12c.82-.82,1.92-1.27,3.07-1.27h74.65c1.15,0,2.26,.46,3.07,1.27l71.36,71.36c.82,.82,1.27,1.92,1.27,3.07v139.86c0,1.15,.46,2.26,1.27,3.07l63.03,63.03c1.7,1.7,4.45,1.7,6.15,0l9.07-9.07c1.7-1.7,1.7-4.45,0-6.15l-37.32-37.32c-1.7-1.7-1.7-4.45,0-6.15l2.55-2.55c1.7-1.7,4.45-1.7,6.15,0l65.21,65.21c.82,.82,1.27,1.92,1.27,3.07v31.18c0,1.15,.46,2.26,1.27,3.07l23.54,23.54c.82,.82,1.92,1.27,3.07,1.27h39.87c1.15,0,2.26,.46,3.07,1.27l53.97,53.97c.82,.82,1.27,1.92,1.27,3.07v18.13c0,1.15-.46,2.26-1.27,3.07l-17.02,17.02c-.82,.82-1.27,1.92-1.27,3.07v81.17c0,1.15,.46,2.26,1.27,3.07l39.84,39.84c.82,.82,1.27,1.92,1.27,3.07v127.9c0,1.15-.46,2.26-1.27,3.07l-11.04,11.04c-.82,.82-1.27,1.92-1.27,3.07v87.15c0,1.15,.46,2.26,1.27,3.07l34.13,34.13c.82,.82,1.92,1.27,3.07,1.27h30.53c2.4,0,4.35-1.95,4.35-4.35v-13.14c0-1.15-.46-2.26-1.27-3.07l-14.84-14.84c-.82-.82-1.27-1.92-1.27-3.07v-31.18c0-1.15,.46-2.26,1.27-3.07l67.01-67.01c.82-.82,1.27-1.92,1.27-3.07v-31.18c0-1.15,.46-2.26,1.27-3.07l32.23-32.23c.82-.82,1.92-1.27,3.07-1.27h31.18c1.15,0,2.26-.46,3.07-1.27l14.84-14.84c.82-.82,1.27-1.92,1.27-3.07v-65.95c0-1.15,.46-2.26,1.27-3.07l23.54-23.54c.82-.82,1.27-1.92,1.27-3.07v-57.26c0-1.15-.46-2.26-1.27-3.07l-53.97-53.97c-.82-.82-1.92-1.27-3.07-1.27h-70.3c-1.15,0-2.26-.46-3.07-1.27l-30.06-30.06c-.82-.82-1.92-1.27-3.07-1.27h-68.13c-1.15,0-2.26-.46-3.07-1.27l-57.23-57.23c-.82-.82-1.92-1.27-3.07-1.27h-38.41c-2.4,0-4.35-1.95-4.35-4.35v-18.85c0-1.15,.46-2.26,1.27-3.07l14.84-14.84c.82-.82,1.92-1.27,3.07-1.27h48.56c1.15,0,2.26,.46,3.07,1.27l14.84,14.84c.82,.82,1.92,1.27,3.07,1.27h11.24c2.4,0,4.35-1.95,4.35-4.35v-28.63c0-1.15-.46-2.26-1.27-3.07l-21.74-21.74c-1.7-1.7-1.7-4.45,0-6.15l21.74-21.74c.82-.82,1.27-1.92,1.27-3.07v-13.79c0-1.15,.46-2.26,1.27-3.07l40.93-40.93c.82-.82,1.27-1.92,1.27-3.07v-22.48c0-1.15,.46-2.26,1.27-3.07l10.49-10.49c.82-.82,1.92-1.27,3.07-1.27h26.83c1.15,0,2.26-.46,3.07-1.27l17.02-17.02c.82-.82,1.27-1.92,1.27-3.07v-33.35c0-1.15-.46-2.26-1.27-3.07l-33.32-33.32c-.82-.82-1.92-1.27-3.07-1.27h-49.65c-1.15,0-2.26,.46-3.07,1.27l-15.39,15.39c-.82,.82-1.27,1.92-1.27,3.07v31.72c0,1.15-.46,2.26-1.27,3.07l-12.77,12.77c-1.7,1.7-4.45,1.7-6.15,0l-64.94-64.94c-.82-.82-1.27-1.92-1.27-3.07v-13.79c0-1.15,.46-2.26,1.27-3.07l32.23-32.23c.82-.82,1.27-1.92,1.27-3.07v-13.79c0-1.15-.46-2.26-1.27-3.07l-17.39-17.39c-2.74-2.74-7.42-.8-7.42,3.07v11.24c0,2.4-1.95,4.35-4.35,4.35h-89.49c-1.15,0-2.26-.46-3.07-1.27l-23.54-23.54c-.82-.82-1.92-1.27-3.07-1.27h-74.65c-1.15,0-2.26,.46-3.07,1.27l-10.49,10.49c-.82,.82-1.92,1.27-3.07,1.27h-18.13c-1.15,0-2.26-.46-3.07-1.27l-25.71-25.71c-.82-.82-1.92-1.27-3.07-1.27H58.4c-1.15,0-2.26,.46-3.07,1.27l-18.1,18.1c-.82,.82-1.27,1.92-1.27,3.07v51.83c0,1.15-.46,2.26-1.27,3.07l-28.8,28.8c-1.7,1.7-1.7,4.45,0,6.15l30.26,30.26c1.7,1.7,4.45,1.7,6.15,0Z"/><rect class="f" x="444.25" y="213.76" width="24.59" height="24.59" rx="4.35" ry="4.35" transform="translate(-26.13 389.03) rotate(-45)"/><path class="f" d="M423.04,140.38l14.84,14.84c.82,.82,1.92,1.27,3.07,1.27h31.18c1.15,0,2.26,.46,3.07,1.27l14.84,14.84c.82,.82,1.27,1.92,1.27,3.07v31.18c0,1.15,.46,2.26,1.27,3.07l23.54,23.54c.82,.82,1.92,1.27,3.07,1.27h22.48c1.15,0,2.26-.46,3.07-1.27l10.49-10.49c.82-.82,1.27-1.92,1.27-3.07v-9.44c0-1.15-.46-2.26-1.27-3.07l-10.87-10.87c-1.7-1.7-1.7-4.45,0-6.15l15.22-15.22c.82-.82,1.27-1.92,1.27-3.07v-13.79c0-1.15-.46-2.26-1.27-3.07l-49.62-49.62c-.82-.82-1.92-1.27-3.07-1.27h-65.95c-1.15,0-2.26,.46-3.07,1.27l-14.84,14.84c-.82,.82-1.27,1.92-1.27,3.07v13.79c0,1.15,.46,2.26,1.27,3.07Z"/><path class="f" d="M301.32,105.61l14.84,14.84c.82,.82,1.92,1.27,3.07,1.27h31.18c1.15,0,2.26,.46,3.07,1.27l13.04,13.04c1.7,1.7,1.7,4.45,0,6.15l-13.04,13.04c-.82,.82-1.92,1.27-3.07,1.27h-31.18c-1.15,0-2.26-.46-3.07-1.27l-14.84-14.84c-.82-.82-1.92-1.27-3.07-1.27h-48.56c-1.15,0-2.26-.46-3.07-1.27l-13.04-13.04c-1.7-1.7-1.7-4.45,0-6.15l13.04-13.04c.82-.82,1.92-1.27,3.07-1.27h48.56c1.15,0,2.26,.46,3.07,1.27Z"/><rect class="f" x="374.69" y="109.43" width="24.59" height="24.59" rx="4.35" ry="4.35" transform="translate(27.28 309.29) rotate(-45)"/><path class="f" d="M355.29,101.26l41.67-41.67c2.74-2.74,.8-7.42-3.07-7.42h-39.87c-1.15,0-2.26,.46-3.07,1.27l-14.84,14.84c-.82,.82-1.27,1.92-1.27,3.07v13.79c0,1.15,.46,2.26,1.27,3.07l13.04,13.04c1.7,1.7,4.45,1.7,6.15,0Z"/><path class="f" d="M423.04,50.89l32.23-32.23c.82-.82,1.92-1.27,3.07-1.27h80.8c2.4,0,4.35,1.95,4.35,4.35v11.24c0,1.15-.46,2.26-1.27,3.07l-14.84,14.84c-.82,.82-1.92,1.27-3.07,1.27h-28.63c-2.4,0-4.35,1.95-4.35,4.35v11.24c0,1.15-.46,2.26-1.27,3.07l-14.84,14.84c-.82,.82-1.92,1.27-3.07,1.27h-31.18c-1.15,0-2.26-.46-3.07-1.27l-14.84-14.84c-.82-.82-1.27-1.92-1.27-3.07v-13.79c0-1.15,.46-2.26,1.27-3.07Z"/><path class="f" d="M529.23,66.43l12.99-12.99c.82-.82,1.92-1.27,3.07-1.27h13.79c1.15,0,2.26-.46,3.07-1.27l32.23-32.23c.82-.82,1.92-1.27,3.07-1.27h65.95c1.15,0,2.26-.46,3.07-1.27l14.84-14.84c.82-.82,1.92-1.27,3.07-1.27h65.95c1.15,0,2.26,.46,3.07,1.27l14.84,14.84c.82,.82,1.92,1.27,3.07,1.27h63.41c2.4,0,4.35,1.95,4.35,4.35v11.24c0,1.15-.46,2.26-1.27,3.07l-23.54,23.54c-.82,.82-1.27,1.92-1.27,3.07v39.87c0,1.15-.46,2.26-1.27,3.07l-10.49,10.49c-.82,.82-1.27,1.92-1.27,3.07v35.52c0,1.15-.46,2.26-1.27,3.07l-12.67,12.67c-.82,.82-1.92,1.27-3.07,1.27h-29c-1.15,0-2.26,.46-3.07,1.27l-42.01,42.01c-.82,.82-1.27,1.92-1.27,3.07v23.57c0,1.15-.46,2.26-1.27,3.07l-9.95,9.95c-.82,.82-1.92,1.27-3.07,1.27h-8.9c-1.15,0-2.26-.46-3.07-1.27l-29.79-29.79c-.82-.82-1.27-1.92-1.27-3.07v-28.73c0-1.15-.46-2.26-1.27-3.07l-16.06-16.06c-.82-.82-1.27-1.92-1.27-3.07v-29.95c0-1.15-.46-2.26-1.27-3.07l-50.23-50.23c-.82-.82-1.92-1.27-3.07-1.27h-31.83c-1.13,0-2.21-.44-3.02-1.22l-12.94-12.49c-1.75-1.69-1.77-4.48-.06-6.2Z"/><path class="f" d="M790,205.59l13.04-13.04c.82-.82,1.92-1.27,3.07-1.27h13.79c1.15,0,2.26,.46,3.07,1.27l13.04,13.04c1.7,1.7,1.7,4.45,0,6.15l-13.04,13.04c-.82,.82-1.92,1.27-3.07,1.27h-13.79c-1.15,0-2.26-.46-3.07-1.27l-13.04-13.04c-1.7-1.7-1.7-4.45,0-6.15Z"/><rect class="f" x="839.09" y="278.22" width="17.39" height="34.78" rx="4.35" ry="4.35"/><path class="f" d="M893.06,330.38h13.79c1.15,0,2.26-.46,3.07-1.27l14.84-14.84c.82-.82,1.27-1.92,1.27-3.07v-13.79c0-1.15-.46-2.26-1.27-3.07l-14.84-14.84c-.82-.82-1.27-1.92-1.27-3.07v-13.79c0-1.15-.46-2.26-1.27-3.07l-13.04-13.04c-1.7-1.7-4.45-1.7-6.15,0l-13.04,13.04c-.82,.82-1.27,1.92-1.27,3.07v48.56c0,1.15,.46,2.26,1.27,3.07l14.84,14.84c.82,.82,1.92,1.27,3.07,1.27Z"/><path class="f" d="M943.43,259.03v-48.56c0-1.15,.46-2.26,1.27-3.07l75.7-75.7c.82-.82,1.92-1.27,3.07-1.27h39.87c1.15,0,2.26,.46,3.07,1.27l10.49,10.49c.82,.82,1.92,1.27,3.07,1.27h18.13c1.15,0,2.26,.46,3.07,1.27l21.36,21.36c.82,.82,1.27,1.92,1.27,3.07v20.31c0,1.15,.46,2.26,1.27,3.07l11.58,11.58c.82,.82,1.92,1.27,3.07,1.27h10.53c1.15,0,2.26-.46,3.07-1.27l30.6-30.6c.82-.82,1.92-1.27,3.07-1.27h50.19c1.15,0,2.26-.46,3.07-1.27l31.42-31.42c.82-.82,1.92-1.27,3.07-1.27h66.77c1.15,0,2.26-.46,3.07-1.27l66.6-66.6c.82-.82,1.92-1.27,3.07-1.27h66.36c1.15,0,2.26,.46,3.07,1.27l32.43,32.43c.82,.82,1.92,1.27,3.07,1.27h83.14c1.15,0,2.26,.46,3.07,1.27l32.33,32.33c.82,.82,1.92,1.27,3.07,1.27h135.41c1.15,0,2.26,.46,3.07,1.27l14.89,14.89c.82,.82,1.92,1.27,3.07,1.27h65.9c1.15,0,2.26,.46,3.07,1.27l14.87,14.87c.82,.82,1.27,1.92,1.27,3.07v31.2c0,1.15-.46,2.26-1.27,3.07l-23.55,23.55c-.82,.82-1.92,1.27-3.07,1.27h-22.49c-1.15,0-2.26,.46-3.07,1.27l-10.49,10.49c-.82,.82-1.27,1.92-1.27,3.07v61.6c0,1.15-.46,2.26-1.27,3.07l-32.61,32.61c-1.7,1.7-4.45,1.7-6.15,0l-15.22-15.22c-.82-.82-1.27-1.92-1.27-3.07v-48.56c0-1.15,.46-2.26,1.27-3.07l32.23-32.23c.82-.82,1.27-1.92,1.27-3.07v-11.24c0-2.4-1.95-4.35-4.35-4.35h-28.63c-1.15,0-2.26,.46-3.07,1.27l-14.84,14.84c-.82,.82-1.92,1.27-3.07,1.27h-48.56c-1.15,0-2.26,.46-3.07,1.27l-23.54,23.54c-.82,.82-1.27,1.92-1.27,3.07v22.48c0,1.15,.46,2.26,1.27,3.07l10.49,10.49c.82,.82,1.27,1.92,1.27,3.07v52.91c0,1.15-.46,2.26-1.27,3.07l-17.02,17.02c-.82,.82-1.92,1.27-3.07,1.27h-15.96c-1.15,0-2.26,.46-3.07,1.27l-13.76,13.76c-.82,.82-1.27,1.92-1.27,3.07v27.54c0,2.4-1.95,4.35-4.35,4.35h-12.33c-1.15,0-2.26-.46-3.07-1.27l-30.43-30.43c-1.7-1.7-4.45-1.7-6.15,0l-11.24,11.24c-1.7,1.7-1.7,4.45,0,6.15l47.82,47.82c.82,.82,1.27,1.92,1.27,3.07v31.18c0,1.15-.46,2.26-1.27,3.07l-40.93,40.93c-.82,.82-1.92,1.27-3.07,1.27h-39.87c-1.15,0-2.26,.46-3.07,1.27l-8.69,8.69c-1.7,1.7-1.7,4.45,0,6.15l8.69,8.69c.82,.82,1.27,1.92,1.27,3.07v13.79c0,1.15-.46,2.26-1.27,3.07l-13.04,13.04c-1.7,1.7-4.45,1.7-6.15,0l-30.43-30.43c-.82-.82-1.92-1.27-3.07-1.27h-13.79c-1.15,0-2.26-.46-3.07-1.27l-32.23-32.23c-.82-.82-1.92-1.27-3.07-1.27h-13.79c-1.15,0-2.26,.46-3.07,1.27l-40.93,40.93c-.82,.82-1.27,1.92-1.27,3.07v19.94c0,2.4-1.95,4.35-4.35,4.35h-19.94c-1.15,0-2.26-.46-3.07-1.27l-14.84-14.84c-.82-.82-1.27-1.92-1.27-3.07v-48.56c0-1.15-.46-2.26-1.27-3.07l-14.84-14.84c-.82-.82-1.92-1.27-3.07-1.27h-48.56c-1.15,0-2.26-.46-3.07-1.27l-14.84-14.84c-.82-.82-1.92-1.27-3.07-1.27h-13.79c-1.15,0-2.26-.46-3.07-1.27l-21.74-21.74c-1.7-1.7-4.45-1.7-6.15,0l-2.55,2.55c-1.7,1.7-1.7,4.45,0,6.15l30.43,30.43c.82,.82,1.92,1.27,3.07,1.27h11.24c2.4,0,4.35,1.95,4.35,4.35v28.63c0,1.15-.46,2.26-1.27,3.07l-49.62,49.62c-.82,.82-1.92,1.27-3.07,1.27h-13.79c-1.15,0-2.26-.46-3.07-1.27l-14.84-14.84c-.82-.82-1.27-1.92-1.27-3.07v-31.18c0-1.15-.46-2.26-1.27-3.07l-23.54-23.54c-.82-.82-1.27-1.92-1.27-3.07v-37.32c0-2.4-1.95-4.35-4.35-4.35h-17.39c-2.4,0-4.35,1.95-4.35,4.35v28.63c0,1.15,.46,2.26,1.27,3.07l32.23,32.23c.82,.82,1.27,1.92,1.27,3.07v31.18c0,1.15,.46,2.26,1.27,3.07l32.23,32.23c.82,.82,1.92,1.27,3.07,1.27h13.79c1.15,0,2.26-.46,3.07-1.27l14.84-14.84c.82-.82,1.92-1.27,3.07-1.27h11.24c2.4,0,4.35,1.95,4.35,4.35v28.63c0,1.15-.46,2.26-1.27,3.07l-32.23,32.23c-.82,.82-1.92,1.27-3.07,1.27h-13.79c-1.15,0-2.26,.46-3.07,1.27l-23.54,23.54c-.82,.82-1.27,1.92-1.27,3.07v22.48c0,1.15,.46,2.26,1.27,3.07l10.49,10.49c.82,.82,1.27,1.92,1.27,3.07v52.91c0,1.15-.46,2.26-1.27,3.07l-25.71,25.71c-.82,.82-1.27,1.92-1.27,3.07v37.7c0,1.15-.46,2.26-1.27,3.07l-28.97,28.97c-.82,.82-1.92,1.27-3.07,1.27h-62.69c-1.15,0-2.26-.46-3.07-1.27l-30.6-30.6c-.82-.82-1.27-1.92-1.27-3.07v-81.71c0-1.15-.46-2.26-1.27-3.07l-15.66-15.66c-.82-.82-1.27-1.92-1.27-3.07v-99.92c0-1.15-.46-2.26-1.27-3.07l-15.25-15.25c-.82-.82-1.92-1.27-3.07-1.27h-31.58c-1.15,0-2.26,.46-3.07,1.27l-15.05,15.05c-.82,.82-1.92,1.27-3.07,1.27h-30.97c-1.15,0-2.26-.46-3.07-1.27l-49.52-49.52c-.82-.82-1.27-1.92-1.27-3.07v-65.85c0-1.15,.46-2.26,1.27-3.07l49.57-49.57c.82-.82,1.27-1.92,1.27-3.07v-13.84c0-1.15,.46-2.26,1.27-3.07l23.51-23.51c.82-.82,1.92-1.27,3.07-1.27h22.46c1.15,0,2.26-.46,3.07-1.27l10.51-10.51c.82-.82,1.92-1.27,3.07-1.27h32.96c2.4,0,4.35,1.95,4.35,4.35v15.58c0,1.15,.46,2.26,1.27,3.07l23.54,23.54c.82,.82,1.92,1.27,3.07,1.27h22.48c1.15,0,2.26-.46,3.07-1.27l19.19-19.19c.82-.82,1.92-1.27,3.07-1.27h26.83c1.15,0,2.26,.46,3.07,1.27l12.67,12.67c.82,.82,1.92,1.27,3.07,1.27h15.96c1.15,0,2.26-.46,3.07-1.27l15.93-15.93c.82-.82,1.27-1.92,1.27-3.07v-12.33c0-2.4-1.95-4.35-4.35-4.35h-44.56c-2.4,0-4.35-1.95-4.35-4.35v-28.63c0-1.15,.46-2.26,1.27-3.07l21.74-21.74c1.7-1.7,4.45-1.7,6.15,0l21.74,21.74c.82,.82,1.92,1.27,3.07,1.27h13.79c1.15,0,2.26-.46,3.07-1.27l13.04-13.04c1.7-1.7,1.7-4.45,0-6.15l-28.63-28.63c-1.7-1.7-4.45-1.7-6.15,0l-11.24,11.24c-1.7,1.7-4.45,1.7-6.15,0l-11.24-11.24c-1.7-1.7-4.45-1.7-6.15,0l-21.74,21.74c-.82,.82-1.27,1.92-1.27,3.07v19.94c0,2.4-1.95,4.35-4.35,4.35h0c-2.4,0-4.35,1.95-4.35,4.35v8.69c0,2.4-1.95,4.35-4.35,4.35h-8.69c-2.4,0-4.35-1.95-4.35-4.35v-11.24c0-1.15-.46-2.26-1.27-3.07l-32.23-32.23c-.82-.82-1.92-1.27-3.07-1.27h-5.09c-3.87,0-5.81,4.68-3.07,7.42l26.08,26.08c.82,.82,1.27,1.92,1.27,3.07v13.79c0,1.15-.46,2.26-1.27,3.07l-8.69,8.69c-2.74,2.74-7.42,.8-7.42-3.07v-5.09c0-1.15-.46-2.26-1.27-3.07l-32.23-32.23c-.82-.82-1.92-1.27-3.07-1.27h-31.18c-1.15,0-2.26,.46-3.07,1.27l-14.84,14.84c-.82,.82-1.27,1.92-1.27,3.07v13.79c0,1.15-.46,2.26-1.27,3.07l-14.84,14.84c-.82,.82-1.92,1.27-3.07,1.27h-13.79c-1.15,0-2.26-.46-3.07-1.27l-14.84-14.84c-.82-.82-1.27-1.92-1.27-3.07v-31.18c0-1.15,.46-2.26,1.27-3.07l14.84-14.84c.82-.82,1.92-1.27,3.07-1.27h28.63c2.4,0,4.35-1.95,4.35-4.35v-11.24c0-1.15,.46-2.26,1.27-3.07l56.51-56.51c1.7-1.7,1.7-4.45,0-6.15l-21.74-21.74c-.82-.82-1.27-1.92-1.27-3.07Z"/><path class="f" d="M1169.48,847.7v-28.63c0-1.15,.46-2.26,1.27-3.07l14.84-14.84c.82-.82,1.27-1.92,1.27-3.07v-13.79c0-1.15,.46-2.26,1.27-3.07l8.69-8.69c2.74-2.74,7.42-.8,7.42,3.07v57.26c0,1.15-.46,2.26-1.27,3.07l-14.84,14.84c-.82,.82-1.92,1.27-3.07,1.27h-11.24c-2.4,0-4.35-1.95-4.35-4.35Z"/><path class="f" d="M1455.12,616.02l26.08,26.08c.82,.82,1.27,1.92,1.27,3.07v31.18c0,1.15,.46,2.26,1.27,3.07l14.84,14.84c.82,.82,1.27,1.92,1.27,3.07v5.09c0,3.87-4.68,5.81-7.42,3.07l-26.08-26.08c-.82-.82-1.27-1.92-1.27-3.07v-13.79c0-1.15-.46-2.26-1.27-3.07l-14.84-14.84c-.82-.82-1.27-1.92-1.27-3.07v-22.48c0-3.87,4.68-5.81,7.42-3.07Z"/><path class="f" d="M1489.9,633.41l6.89,6.89c1.7,1.7,4.45,1.7,6.15,0l6.89-6.89c2.74-2.74,.8-7.42-3.07-7.42h-13.79c-3.87,0-5.81,4.68-3.07,7.42Z"/><path class="f" d="M1521.6,643.38h11.24c1.15,0,2.26-.46,3.07-1.27l14.84-14.84c.82-.82,1.27-1.92,1.27-3.07v-5.09c0-3.87,4.68-5.81,7.42-3.07l8.69,8.69c.82,.82,1.27,1.92,1.27,3.07v48.56c0,1.15-.46,2.26-1.27,3.07l-14.84,14.84c-.82,.82-1.92,1.27-3.07,1.27h-13.79c-1.15,0-2.26-.46-3.07-1.27l-14.84-14.84c-.82-.82-1.27-1.92-1.27-3.07v-28.63c0-2.4,1.95-4.35,4.35-4.35Z"/><rect class="f" x="1586.81" y="625.99" width="17.39" height="17.39" rx="4.35" ry="4.35"/><rect class="f" x="1574.51" y="683.25" width="24.59" height="24.59" rx="4.35" ry="4.35" transform="translate(-27.06 1325.76) rotate(-45)"/><rect class="f" x="1531.04" y="714.43" width="24.59" height="49.18" rx="4.35" ry="4.35" transform="translate(-70.53 1307.76) rotate(-45)"/><path class="f" d="M1625.93,678.16h46.02c1.15,0,2.26,.46,3.07,1.27l14.84,14.84c.82,.82,1.92,1.27,3.07,1.27h13.79c1.15,0,2.26,.46,3.07,1.27l14.84,14.84c.82,.82,1.27,1.92,1.27,3.07v22.48c0,3.87-4.68,5.81-7.42,3.07l-6.89-6.89c-1.7-1.7-4.45-1.7-6.15,0l-13.04,13.04c-.82,.82-1.92,1.27-3.07,1.27h-11.24c-2.4,0-4.35-1.95-4.35-4.35v-26.08c0-2.4-1.95-4.35-4.35-4.35h-28.63c-1.15,0-2.26-.46-3.07-1.27l-14.84-14.84c-.82-.82-1.27-1.92-1.27-3.07v-11.24c0-2.4,1.95-4.35,4.35-4.35Z"/><path class="f" d="M1552.03,917.25v-28.63c0-1.15-.46-2.26-1.27-3.07l-14.84-14.84c-.82-.82-1.27-1.92-1.27-3.07v-31.18c0-1.15,.46-2.26,1.27-3.07l14.84-14.84c.82-.82,1.92-1.27,3.07-1.27h31.18c1.15,0,2.26-.46,3.07-1.27l14.84-14.84c.82-.82,1.27-1.92,1.27-3.07v-11.24c0-2.4,1.95-4.35,4.35-4.35h11.24c1.15,0,2.26-.46,3.07-1.27l14.84-14.84c.82-.82,1.92-1.27,3.07-1.27h11.24c2.4,0,4.35,1.95,4.35,4.35v11.24c0,1.15,.46,2.26,1.27,3.07l14.84,14.84c.82,.82,1.92,1.27,3.07,1.27h11.24c2.4,0,4.35-1.95,4.35-4.35v-26.08c0-2.4,1.95-4.35,4.35-4.35h8.69c2.4,0,4.35,1.95,4.35,4.35v46.02c0,1.15,.46,2.26,1.27,3.07l32.23,32.23c.82,.82,1.27,1.92,1.27,3.07v48.56c0,1.15-.46,2.26-1.27,3.07l-14.84,14.84c-.82,.82-1.27,1.92-1.27,3.07v13.79c0,1.15-.46,2.26-1.27,3.07l-14.84,14.84c-.82,.82-1.92,1.27-3.07,1.27h-13.79c-1.15,0-2.26-.46-3.07-1.27l-14.84-14.84c-.82-.82-1.27-1.92-1.27-3.07v-31.18c0-1.15-.46-2.26-1.27-3.07l-8.69-8.69c-2.74-2.74-7.42-.8-7.42,3.07v5.09c0,1.15-.46,2.26-1.27,3.07l-13.04,13.04c-1.7,1.7-4.45,1.7-6.15,0l-13.04-13.04c-.82-.82-1.92-1.27-3.07-1.27h-13.79c-1.15,0-2.26,.46-3.07,1.27l-14.84,14.84c-.82,.82-1.92,1.27-3.07,1.27h-28.63c-2.4,0-4.35-1.95-4.35-4.35Z"/><rect class="f" x="1713.62" y="961.47" width="24.59" height="24.59" rx="4.35" ry="4.35" transform="translate(-183.05 1505.62) rotate(-45)"/><rect class="f" x="1810.75" y="978.86" width="73.77" height="24.59" rx="4.35" ry="4.35" transform="translate(-159.69 1596.78) rotate(-45)"/><rect class="f" x="1887.51" y="926.69" width="24.59" height="24.59" rx="4.35" ry="4.35" transform="translate(-107.53 1618.39) rotate(-45)"/></g></g></g></g></svg>