<?xml version="1.0" encoding="UTF-8"?><svg xmlns="http://www.w3.org/2000/svg" xmlns:xlink="http://www.w3.org/1999/xlink" viewBox="0 0 1920 1080"><defs><style>.bh{fill:#fff;}.bi{fill:#404041;}.bj{stroke:#2c2829;stroke-width:5.94px;}.bj,.bk,.bl,.bm,.bn,.bo,.bp,.bq,.br{fill:none;}.bj,.bk,.bl,.bn,.bo,.bp,.bq,.br{stroke-linecap:round;}.bj,.bk,.bl,.bp{stroke-miterlimit:10;}.bs{fill:#2c2829;}.bt{fill:#c4c5c7;}.bu{fill:#f0f0f1;}.bk{stroke:#404041;stroke-width:4.78px;}.bl{stroke:#828385;stroke-width:7.29px;}.bv{fill:#d0d2d3;}.bw{fill:#acaeb1;}.bx{fill:#919396;}.by{fill:#67686a;}.c`{clip-path:url(#d);}.ca{fill:#e5e6e7;}.cb{fill:#848588;}.cc{fill:#a5a7aa;}.cd{fill:#8a8b8e;}.bn{stroke:#6d6e70;}.bn,.bo,.bq{stroke-width:15px;}.bn,.bo,.bq,.br{stroke-linejoin:round;}.ce{fill:#828385;}.bo{stroke:#919396;}.bp{stroke:#a5a7aa;stroke-width:11.56px;}.bq{stroke:#ebebec;}.cf{fill:#626365;}.br{stroke:#58595b;stroke-width:6.29px;}.cg{fill:#58595b;}</style><clipPath id="d"><rect id="e" class="bm" width="1920" height="1080"/></clipPath></defs><g id="a"/><g id="b"><g id="c"><g class="c`"><rect id="f" class="ce" x="0" y="2.54" width="1920" height="1080"/><g id="g"><g id="h"><path class="by" d="M269.85,454.84s-23.36-28.05-16.08-33.6c7.28-5.56,20.65,32.55,20.65,32.55l-4.57,1.05Z"/><path class="by" d="M277.38,449.96s-28.31-52.37-13.26-54.39c8.17-.93,16.84,53.37,16.84,53.37l-3.58,1.01Z"/><path class="by" d="M282.82,443.37s-5.08-70.8,15.77-70.65c9.34,.18-10.4,22.25-11.32,69.26l-4.45,1.39Z"/><path class="by" d="M289.72,442.12s17.87-26.67,21.63-56.05c3.76-29.38,3.79-50.19,14.95-48.81,11.16,1.38-7.36,79.43-33.04,106.75-.89-.11-3.54-1.89-3.54-1.89Z"/><path class="by" d="M296.39,445.83s43.99-78.4,52.15-74.7-48.43,76.31-48.43,76.31l-3.72-1.61Z"/><path class="by" d="M302.09,448.85s29.76-14.7,40.89-37.29c11.13-22.59,14.09-44.19,26.97-40.48,12.87,3.71-5.59,52.88-60.68,81.55l-7.17-3.77Z"/><path class="by" d="M311.31,455s20.01-4.47,39.58-22.48c19.58-18.01,22.99-29.35,28.79-25.55,5.8,3.8-5.88,34.15-63.97,52.24l-4.4-4.2Z"/><path class="by" d="M316.13,462.14s19.05-3.43,26.76-6.92c7.71-3.48,20.73-8.61,15.98,.92-4.75,9.52-40.31,11.31-40.31,11.31l-2.43-5.31Z"/></g><g id="i"><path class="by" d="M1780.08,442.21c-.14,.48-.1,.95-.03,1.05,.08,.12,.14-.06,.14-.38,0-.65-.27-1.79-.55-3.01-.58-2.48-1.18-5.51-1.08-8.55,.07-3.05,.76-6.05,1.9-8.67,.55-1.29,1.24-2.61,1.9-3.68,.66-1.09,1.33-2.13,1.99-3.16,2.62-4.07,5.27-7.98,6.79-12.22,.72-2.1,1.14-4.32,.52-6.39-.59-2.09-2.46-3.8-4.67-4.84,1.19,.28,2.39,.69,3.48,1.37,1.09,.67,2.07,1.62,2.75,2.79,1.38,2.37,1.51,5.2,1.26,7.75-.56,5.17-2.4,9.9-3.98,14.46-.4,1.14-.79,2.26-1.14,3.35-.36,1.11-.56,2.03-.73,3.02-.32,1.95-.23,3.79,.18,5.52,.41,1.75,1.16,3.39,2.19,5.42,.51,1.05,1.11,2.15,1.69,3.83,.28,.85,.57,1.86,.67,3.17,.11,1.29-.05,2.98-.68,4.56-1.51,3.42-5.56,4.98-9.04,3.5-3.48-1.49-5.07-5.46-3.56-8.88Z"/><path class="by" d="M1765.66,445.39c.67-1.25,1.08-2.79,1.2-4.77,.09-.96,.03-2.08,0-3.17-.09-1.17-.16-2.32-.29-3.58-.51-4.91-1.07-10.54-.53-16.15,.19-1.41,.34-2.81,.63-4.2l.47-2.07c.08-.34,.15-.69,.25-1.03l.32-1.01c.44-1.34,.83-2.7,1.43-3.97l1.55-3.58c.44-1.04,.99-2.09,1.26-3.14l.51-1.59c.17-.53,.21-1.05,.33-1.59,.47-2.13,.45-4.22,.11-6.37-.32-2.15-1.11-4.33-2.02-6.74-.88-2.39-1.85-5.11-2.03-8.06-.15-1.46,.04-2.94,.26-4.36l.55-2.08c.08-.35,.21-.68,.35-.99l.41-.96,.41-.95c.14-.33,.28-.63,.41-.89,.26-.55,.55-1.09,.8-1.64,.5-1.11,.96-2.23,1.35-3.37,.77-2.28,1.28-4.64,1.37-7.03,.08-2.39-.28-4.8-1.05-7.14-.74-2.35-1.89-4.62-2.77-7.05-.43-1.21-.75-2.5-.75-3.8-.01-1.3,.32-2.58,.9-3.7-.46,1.18-.63,2.46-.48,3.68,.14,1.23,.57,2.4,1.11,3.52,1.09,2.24,2.49,4.39,3.55,6.78,1.08,2.37,1.78,4.99,1.98,7.65,.2,2.67-.09,5.35-.65,7.94-.29,1.3-.65,2.57-1.06,3.83-.2,.63-.44,1.24-.66,1.86l-.17,.46-.13,.42-.25,.83-.25,.82c-.09,.27-.17,.54-.19,.82l-.25,1.63c-.02,1.08-.07,2.14,.17,3.19,.37,2.09,1.31,4.14,2.43,6.38,1.12,2.22,2.38,4.72,3.14,7.52l.3,1.04,.2,1.08c.11,.72,.3,1.44,.33,2.18l.11,2.2c.07,.74-.07,1.45-.1,2.18-.07,.72-.08,1.46-.21,2.16l-.42,2.09c-.23,1.43-.71,2.72-1.12,4.06l-1.1,3.54c-.38,1.07-.56,2.19-.79,3.28l-.17,.82c-.05,.28-.07,.56-.1,.83l-.19,1.66c-.11,1.11-.09,2.23-.13,3.34,.08,2.25,.23,4.48,.65,6.8,.36,2.31,.89,4.66,1.42,7.21,.27,1.24,.51,2.6,.75,3.93,.2,1.42,.42,2.82,.48,4.39,.17,3.06-.13,6.61-1.47,10.04l-.07,.18c-1.31,3.36-5.15,5.03-8.57,3.75-3.42-1.29-5.13-5.05-3.82-8.41,.09-.23,.21-.48,.32-.7Z"/><path class="by" d="M1754.42,461.57c.48-1.05,.62-1.64,.46-2.65-.16-1.02-.88-2.52-1.9-4.27-1-1.76-2.31-3.78-3.36-6.31-.52-1.26-.98-2.65-1.25-4.15-.27-1.49-.32-3.07-.16-4.6,.15-1.53,.53-2.99,1.04-4.32l.62-1.57c.16-.41,.35-.81,.46-1.22,.56-1.63,.87-3.24,.91-4.87,.1-3.25-1.03-6.65-2.74-10.44-1.67-3.77-3.84-8.03-4.7-13.02-.43-2.48-.46-5.08-.09-7.57,.36-2.5,1.12-4.86,2.08-7.06,.45-1.12,1.04-2.15,1.56-3.19,.43-.87,.94-1.72,1.29-2.6,.81-1.75,1.39-3.55,1.74-5.37,.73-3.64,.37-7.36-.94-11.05-1.27-3.72-3.42-7.32-5.34-11.38-.94-2.04-1.84-4.23-2.26-6.66-.42-2.42-.31-5.07,.52-7.42,.21-.55,.45-1.21,.66-1.67l.64-1.46,1.25-2.93c.83-1.96,1.62-3.93,2.41-5.91,1.55-3.96,3.03-7.96,4.4-11.99,2.74-8.06,5.13-16.25,6.65-24.61,.72-4.18,1.25-8.41,1.12-12.64-.06-2.11-.31-4.23-.94-6.25-.62-2.01-1.68-3.96-3.42-5.28,1.81,1.22,3.02,3.15,3.77,5.16,.76,2.03,1.14,4.18,1.32,6.32,.38,4.3,.1,8.62-.39,12.9-1.05,8.55-2.99,16.95-5.29,25.24-1.15,4.14-2.41,8.26-3.75,12.36-.68,2.04-1.36,4.09-2.09,6.12l-1.1,3.05-.57,1.52c-.21,.53-.29,.89-.44,1.34-.49,1.73-.45,3.48-.05,5.25,.41,1.77,1.24,3.55,2.19,5.34,1.93,3.59,4.45,7.27,6.22,11.57,.89,2.15,1.59,4.45,1.94,6.85,.36,2.39,.36,4.86,.04,7.26-.32,2.4-.94,4.73-1.8,6.93-.39,1.13-.91,2.16-1.38,3.24-.38,.91-.82,1.76-1.11,2.66-1.34,3.55-1.69,7.07-.88,10.48,.78,3.44,2.68,6.87,4.73,10.79,1.01,1.97,2.04,4.09,2.85,6.44,.81,2.34,1.38,4.93,1.48,7.57,.11,2.65-.25,5.3-.94,7.76-.15,.63-.36,1.22-.56,1.82l-.31,.9-.17,.55c-.21,.68-.33,1.32-.34,1.92-.05,1.2,.24,2.31,.93,3.72,.67,1.4,1.76,2.97,3.01,4.86,1.22,1.9,2.71,4.15,3.57,7.3,.42,1.56,.6,3.33,.44,5.06-.15,1.73-.61,3.36-1.2,4.82-1.22,2.97-4.66,4.41-7.69,3.22-3.03-1.2-4.49-4.58-3.28-7.55,.02-.06,.05-.11,.07-.17l.06-.13Z"/><path class="by" d="M1748.47,467.29c-3.62-2.33-7.16-4.99-10.32-8.26-3.16-3.25-5.91-7.21-7.6-11.64-1.71-4.43-2.24-9.13-2.1-13.45,.12-4.34,.8-8.39,1.39-12.22,.6-3.83,1.15-7.49,1.15-10.96,0-1.74-.13-3.42-.44-5.05-.16-.81-.35-1.61-.6-2.4-.14-.38-.17-.64-.37-1.04-.18-.38-.33-.74-.54-1.15-1.59-3.28-3.49-6.26-5.92-8.92-1.21-1.35-2.57-2.63-4.04-4.09-1.46-1.45-3.03-3.17-4.21-5.2-1.19-2.02-1.96-4.19-2.42-6.31-.49-2.12-.72-4.37-.55-6.63,.17-2.25,.76-4.45,1.52-6.39,.75-1.95,1.58-3.68,2.13-5.34,.56-1.66,.82-3.27,.71-4.95-.04-.84-.19-1.68-.39-2.53-.19-.91-.51-1.49-.83-2.96-.39-2.57,.28-4.7,.95-6.65,.71-1.95,1.57-3.76,2.46-5.54,3.56-7.04,7.41-13.8,9.33-21.28,.95-3.71,1.41-7.57,1.06-11.42-.34-3.84-1.52-7.62-3.38-11.06,2.09,3.32,3.55,7.06,4.17,10.97,.63,3.91,.43,7.94-.3,11.84-1.46,7.84-4.97,15.1-8,22.22-.74,1.78-1.45,3.57-1.95,5.33-.5,1.74-.79,3.54-.46,4.85,.1,.44,.67,1.64,.95,2.62,.32,1.03,.59,2.1,.72,3.21,.31,2.21,.08,4.54-.47,6.62-.54,2.09-1.3,3.95-1.82,5.69-.55,1.74-.84,3.38-.86,5.03,0,1.65,.26,3.3,.77,4.96,.48,1.67,1.16,3.18,2.06,4.48,.9,1.31,2.06,2.46,3.48,3.7,1.41,1.23,3.01,2.55,4.54,4.04,3.09,2.96,5.7,6.5,7.77,10.15,.26,.45,.54,.98,.8,1.47,.27,.46,.51,1.14,.73,1.67,.41,1.06,.75,2.14,1.04,3.23,.56,2.18,.88,4.38,1.02,6.55,.27,4.33-.1,8.46-.46,12.36-.36,3.9-.7,7.62-.57,11.09,.13,3.47,.76,6.64,2.06,9.45,2.56,5.63,7.98,10.03,14.29,13.52,2.99,1.65,4.05,5.37,2.37,8.31-1.68,2.94-5.47,3.98-8.46,2.32-.12-.06-.23-.13-.34-.2l-.03-.02Z"/><path class="by" d="M1745.38,479.04c-6.77-2.47-12.22-6.64-16.59-11.39-4.37-4.78-7.71-10.24-9.99-16.05-2.27-5.81-3.48-12.03-3.25-18.22,.21-6.18,1.98-12.29,5.16-17.47l-.11,.26c.69-1.63,1.1-3.33,1-5.1-.08-1.77-.65-3.58-1.32-5.44-.66-1.86-1.39-3.83-1.5-5.91-.14-2.08,.43-4.1,1.36-5.85-.65,1.88-.87,3.87-.45,5.73,.39,1.87,1.33,3.55,2.28,5.31,.95,1.75,1.92,3.64,2.37,5.81,.47,2.16,.3,4.47-.24,6.59h0l-.11,.26c-2.18,4.99-2.91,10.41-2.35,15.66,.54,5.25,2.3,10.33,4.88,14.9,2.58,4.57,5.98,8.66,9.91,11.91,3.92,3.24,8.42,5.62,12.82,6.53,3.6,.75,5.9,4.22,5.14,7.75-.76,3.53-4.29,5.79-7.89,5.05-.31-.07-.62-.15-.91-.26l-.19-.07Z"/></g></g><path id="j" class="by" d="M0,1082.54H1920V449.05l-190.93,7.51c-37.96,1.02-68.48,27.88-80.62,63.07-5.72,12.93-16.86,22.65-30.4,26.54-36.45,6.59-79.59,35.32-110.45,55.94-36.04,26.43-115.12,43-157.45,56.89-52.25,14.75-103.31-29.01-163.57-16-192.14,27.84-385.47,105.12-570.55,44.05-112.86-35.82-243.25-20.2-259.08-170.82-12.23-43.95-62.4-85.45-108.68-84.67H0"/><g id="k"><g id="l"><path class="bi" d="M485.76,754.15s.27-.18,.42-.29l.53-.4c.36-.28,.7-.57,1.04-.87,.66-.59,1.24-1.2,1.68-1.75,.44-.54,.74-1.04,.83-1.25,.01-.04,.01-.06,.05-.09,.02-.02-.01,.02,.02,.03,0,.06,.05,.2,.1,.31,.13,.24,.11-.04-.46-.71-.54-.67-1.47-1.61-2.48-2.86-1.01-1.25-2.09-2.86-2.82-4.75-.72-1.91-.99-3.9-.99-5.76l.03,.56c-.13-1.74,.06-3.67,.63-5.42,.56-1.76,1.45-3.27,2.35-4.49,1.83-2.44,3.65-3.98,5.17-5.42,3.09-2.83,5.23-5.26,6.5-8.28,1.29-3.01,1.61-6.54,1.41-10.41-.2-3.77-1.07-7.37-2.53-10.99-.75-1.82-1.61-3.64-2.58-5.57-.94-1.91-1.96-3.94-2.84-6.15-.91-2.18-1.61-4.59-1.99-7.05l-.24-1.86c-.04-.62-.05-1.24-.07-1.86-.09-1.21,.11-2.56,.23-3.85,.44-2.63,1.48-5.27,2.96-7.41,1.48-2.12,3.1-3.75,4.54-5.31,1.48-1.54,2.71-3,3.81-4.58,.5-.8,1.06-1.58,1.44-2.44,.21-.42,.44-.84,.64-1.27l.51-1.34c1.34-3.6,1.85-7.63,2-11.7,.07-4.1-.27-8.24-.89-12.37-1.32-8.27-3.7-16.45-6.45-24.54-1.36-4.05-2.82-8.08-4.22-12.15-.69-2.04-1.39-4.08-2-6.16-.63-2.07-1.16-4.2-1.46-6.39-.25-2.22-.1-4.43,.24-6.59,.41-2.15,1.04-4.24,1.82-6.26,1.63-4.02,3.78-7.8,6.39-11.23-2.4,3.57-4.31,7.45-5.67,11.48-.65,2.02-1.13,4.09-1.4,6.17-.21,2.09-.22,4.18,.14,6.21,.41,2.03,1.03,4.04,1.77,6.04,.72,2,1.52,3.98,2.33,5.96,1.63,3.96,3.33,7.91,4.94,11.91,3.25,7.98,6.19,16.18,8.09,24.75,.91,4.3,1.54,8.68,1.74,13.15,.1,4.47-.16,9.07-1.54,13.63l-.54,1.7c-.22,.56-.47,1.1-.71,1.66-.44,1.12-1.06,2.15-1.65,3.21-1.24,2.03-2.7,3.96-4.12,5.62-1.4,1.69-2.72,3.23-3.62,4.72-.87,1.48-1.3,2.95-1.5,4.55,.01,.85-.12,1.63,.02,2.56,.05,.45,.07,.9,.12,1.34l.26,1.32c.39,1.75,.97,3.46,1.83,5.2,1.61,3.46,4.08,7.11,6.08,11.34,2.03,4.22,3.5,8.97,4.03,13.75,.15,1.19,.18,2.38,.27,3.57,.06,1.2,.06,2.46-.03,3.72-.16,2.52-.63,5.12-1.51,7.63-.89,2.5-2.16,4.93-3.67,7.02-1.5,2.12-3.2,3.95-4.72,5.55-1.53,1.6-2.9,3.03-3.57,4.11-.34,.54-.49,.94-.55,1.23-.05,.3-.05,.54,0,.93l.03,.56c.17,1.12,.25,1.36,1.33,2.57,.54,.6,1.34,1.33,2.41,2.46,.53,.57,1.13,1.26,1.73,2.13,.6,.88,1.19,1.97,1.59,3.22,.41,1.25,.58,2.6,.55,3.85-.03,.6-.06,1.25-.17,1.81-.11,.55-.23,1.12-.38,1.65-.63,2.08-1.56,3.68-2.52,5.08-.97,1.4-2,2.59-3.08,3.68-.54,.54-1.08,1.06-1.65,1.56-.28,.25-.57,.5-.87,.74-.32,.26-.56,.46-1.03,.81l-2.24,1.65c-3.24,2.39-7.85,1.74-10.28-1.44-2.43-3.18-1.78-7.7,1.47-10.09,.89-.66,1.92-1.09,2.95-1.3Z"/><path class="bi" d="M499.53,759.92c.15-.06,.65-.35,1-.57,.39-.24,.78-.49,1.17-.75,.78-.53,1.54-1.09,2.29-1.67,1.5-1.16,2.82-2.46,4.01-3.8,1.23-1.33,2.11-2.77,2.93-4.2,.28-.73,.74-1.45,.9-2.19l.36-1.11c.06-.37,.12-.75,.19-1.12l.11-.56c.02-.19,0-.38,.02-.57,0-.38,.02-.76,.05-1.15,.02-.16,0-.46-.01-.73l-.05-.83-.09-1.66c-.13-2.21-.29-4.41-.48-6.6-.36-4.41-.91-8.67-1.44-13.36-.12-1.18-.23-2.39-.3-3.63-.03-.62-.04-1.29-.06-1.93-.03-.65-.02-1.3,.02-1.95,.07-2.61,.45-5.24,1.12-7.78,1.3-5.11,3.81-9.8,6.76-13.75,2.94-3.98,6.25-7.37,9.21-10.64,2.96-3.26,5.55-6.49,6.47-9.75,.2-.81,.36-1.63,.36-2.47v-.63l-.04-.8-.11-1.62c-.19-2.11-.44-4.25-.94-5.98-.05-.23-.13-.41-.2-.6-.07-.19-.13-.39-.21-.53-.15-.34-.29-.57-.51-.86-.22-.31-.69-.75-1.27-1.6-.26-.43-.52-.89-.66-1.33-.08-.22-.17-.46-.22-.66l-.13-.6c-.1-.42-.13-.76-.16-1.12l-.05-.54c0-.2,0-.43,0-.65,.03-.44,0-.88,.11-1.31,.09-.43,.2-.85,.32-1.27,.6-1.62,1.52-2.78,2.37-3.76,1.74-1.9,3.31-3.26,4.38-4.8,1.06-1.51,1.58-3.13,1.58-4.99,.08-1.7-.65-3.49-1.69-5.32-1.03-1.82-2.35-3.6-3.71-5.37-2.74-3.54-5.75-7.06-8.25-11.02-1.23-1.99-2.34-4.1-3.05-6.41-.34-1.15-.62-2.33-.69-3.55-.07-1.18-.11-2.3-.1-3.45,0-4.57,.34-9.08,.8-13.58,.47-4.5,1.07-8.98,1.81-13.43-.43,4.49-.71,8.99-.87,13.49-.15,4.5-.17,9,.15,13.45,.07,1.11,.19,2.23,.33,3.3,.13,1.03,.45,2.05,.82,3.03,.76,1.98,1.9,3.84,3.18,5.62,2.59,3.56,5.74,6.77,8.81,10.21,1.53,1.73,3.06,3.5,4.41,5.54,.67,1.02,1.32,2.1,1.83,3.32,.25,.61,.48,1.24,.64,1.92,.17,.67,.29,1.41,.3,2.06,.23,2.64-.47,5.58-1.89,7.87-1.39,2.29-3.19,4.06-4.39,5.61-.59,.77-1,1.48-1.14,2.01,0,.13-.02,.26-.05,.38-.04,.12,.03,.25,.01,.37,0,.07,0,.11,0,.19l.06,.3c.04,.2,.06,.42,.12,.54l.06,.22c.02,.07,.05,.09,.07,.13,.03,.1,.09,.12,.11,.17,.07,.08,.43,.43,.95,.98,.51,.56,1.03,1.28,1.39,1.95,.21,.35,.36,.68,.5,1.01,.15,.33,.31,.67,.41,.98,.93,2.56,1.33,4.91,1.71,7.27l.24,1.75,.12,.88,.07,1.06c.1,1.42-.06,2.85-.31,4.25-.58,2.78-1.74,5.26-3.05,7.45-1.32,2.2-2.79,4.12-4.23,5.97-2.9,3.67-5.73,7.02-7.94,10.52-2.24,3.48-3.78,7.08-4.45,10.78-.35,1.85-.49,3.73-.4,5.63,0,.47,.03,.95,.09,1.43,.05,.48,.08,.94,.14,1.44,.13,1.01,.3,2.04,.48,3.09,.77,4.24,1.7,8.88,2.39,13.43,.35,2.28,.68,4.57,.98,6.85l.22,1.71,.11,.86c.04,.29,.08,.55,.09,.95l.1,2.24c0,.37,.03,.75,.02,1.12l-.1,1.12-.24,2.23c-.14,.73-.32,1.45-.49,2.17-.29,1.48-.89,2.79-1.38,4.18-1.19,2.62-2.59,5.13-4.29,7.28-1.67,2.18-3.49,4.2-5.47,5.98-.99,.9-2,1.76-3.06,2.59-.53,.42-1.08,.81-1.63,1.21-.6,.41-1.06,.75-1.9,1.26l-.51,.31c-3.56,2.15-8.22,1.07-10.41-2.42-2.19-3.49-1.09-8.06,2.47-10.22,.3-.18,.64-.35,.95-.49Z"/><path class="bi" d="M516.52,765.92c-.16,.1,0,.02,.04,0l.23-.11c.17-.08,.35-.18,.53-.29,.37-.22,.76-.45,1.14-.71,.77-.51,1.53-1.1,2.26-1.73,1.47-1.26,2.84-2.72,4.07-4.32,2.45-3.2,4.35-6.96,5.61-11.04,.63-2.04,1.11-4.16,1.47-6.32,.15-1.09,.31-2.18,.4-3.28l.08-.83,.03-.74c.03-.49,.03-.98,0-1.48-.09-1.98-.48-3.98-1.14-6.09-.65-2.12-1.54-4.33-2.3-6.82-.74-2.47-1.3-5.32-1.05-8.09,.07-1.32,.31-2.71,.68-4.05,.37-1.35,.95-2.64,1.5-3.73,.55-1.1,1.03-2.03,1.38-3,.36-.97,.61-1.98,.75-3.06,.09-.53,.13-1.08,.18-1.64,.03-.3,.03-.51,.04-.73,.02-.23-.03-.45-.03-.68-.09-.91-.45-1.86-.94-2.8-1-1.89-2.54-3.73-4.01-5.62-1.49-1.89-2.97-3.86-4.2-5.99-1.23-2.13-2.17-4.41-2.73-6.77-.55-2.36-.72-4.78-.59-7.15,.15,2.38,.59,4.72,1.38,6.93,.8,2.21,1.94,4.26,3.32,6.13,1.39,1.88,2.99,3.58,4.67,5.28,1.67,1.71,3.46,3.38,4.97,5.55,.74,1.09,1.42,2.34,1.75,3.78,.07,.36,.17,.72,.19,1.09,.04,.37,.08,.75,.07,1.05,.02,.64,.05,1.27,0,1.92-.03,1.29-.19,2.63-.51,3.95-.31,1.31-.79,2.57-1.19,3.66-.4,1.09-.69,2.03-.84,3-.14,.97-.21,1.96-.14,3.02,.06,1.99,.65,3.85,1.5,5.86,.86,1.99,1.99,4.11,3.02,6.45,1.03,2.34,1.92,4.96,2.36,7.71,.13,.69,.21,1.38,.25,2.08l.08,1.04,.05,.95c.08,1.27,.08,2.55,.09,3.84-.04,2.57-.24,5.17-.64,7.77-.8,5.2-2.48,10.42-5.18,15.28-1.35,2.42-2.95,4.75-4.83,6.92-.94,1.09-1.94,2.13-3.04,3.13-.54,.5-1.12,.99-1.73,1.48-.31,.24-.62,.48-.96,.73l-.53,.37c-.22,.14-.32,.22-.74,.46-3.47,1.83-7.79,.56-9.66-2.84s-.57-7.65,2.9-9.48Z"/><path class="bi" d="M473.31,758.03l-.24-.2-.13-.12-.23-.21-.37-.36c-.25-.24-.42-.44-.63-.67-.38-.43-.73-.87-1.04-1.3-.64-.86-1.16-1.73-1.64-2.62-.94-1.76-1.61-3.57-2.06-5.37-.46-1.8-.73-3.59-.82-5.34-.13-1.75-.05-3.49,.07-5.07,.23-3.22,1-6.72,2.06-9.65,.51-1.46,1.01-2.73,1.39-3.86,.38-1.14,.66-2.19,.86-3.3,.18-1.09,.29-2.35,.3-3.33-.03-1.04-.1-2.07-.37-3.17-.25-1.1-.62-2.25-1.09-3.51-.47-1.27-1.01-2.63-1.52-4.1-.51-1.48-.94-3.07-1.25-4.71-.27-1.65-.43-3.33-.37-4.98,.02-3.41,1.03-6.77,2.31-9.55,1.28-2.82,2.76-5.26,3.95-7.64,1.19-2.38,2.09-4.71,2.43-7.15,.16-1.19,.21-2.5,.15-3.77-.03-1.28-.23-2.54-.49-3.82-.53-2.55-1.6-5.08-2.49-7.9-.43-1.41-.82-2.88-.99-4.4-.15-1.52-.21-3.02,0-4.56,.19-1.53,.68-3.03,1.31-4.38,.64-1.35,1.38-2.58,2.09-3.79,1.43-2.41,2.63-4.9,3.37-7.58,.76-2.68,1.12-5.48,1.28-8.29,.13,2.81,.07,5.66-.43,8.48-.47,2.82-1.46,5.59-2.67,8.17-.59,1.3-1.18,2.56-1.62,3.82-.43,1.26-.7,2.52-.72,3.79-.04,1.26,.15,2.6,.41,3.85,.28,1.27,.74,2.5,1.26,3.73,1.06,2.46,2.48,5.04,3.42,7.94,.46,1.45,.85,2.95,1.06,4.48,.23,1.52,.34,3.04,.29,4.65-.1,3.19-.97,6.3-2.02,9.08-1.06,2.8-2.26,5.35-3.06,7.78-.81,2.44-1.2,4.67-.96,6.9,.08,1.16,.32,2.28,.62,3.39,.34,1.11,.76,2.2,1.3,3.35,.54,1.15,1.17,2.36,1.82,3.68,.66,1.33,1.33,2.8,1.89,4.4,.58,1.6,.95,3.36,1.17,5.12,.19,1.83,.2,3.38,.12,5.1-.11,1.69-.37,3.41-.72,4.99-.35,1.59-.75,2.99-1.04,4.24-.58,2.46-.79,4.55-.72,6.96,.05,1.23,.11,2.32,.31,3.36,.16,1.06,.45,2.04,.79,2.94,.33,.91,.77,1.72,1.24,2.4,.24,.33,.49,.65,.74,.89,.12,.13,.24,.23,.34,.32,.04,.02,.1,.09,.12,.08,0,0,.03,.02,.02,0l-.03-.03-.03-.03-.14-.11c3.09,2.33,3.67,6.67,1.29,9.7-2.37,3.03-6.8,3.6-9.89,1.27Z"/><path class="bi" d="M454.7,761.54c-.13-.21-.18-.3-.26-.43l-.19-.34-.34-.66c-.22-.43-.42-.85-.62-1.28-.38-.85-.75-1.7-1.07-2.57-.66-1.73-1.2-3.5-1.62-5.35-.42-1.84-.68-3.77-.74-5.76-.05-.98,.02-2.03,.09-3.01l.17-1.45,.26-1.46c.39-1.94,1.07-3.83,1.77-5.38,.7-1.56,1.34-2.81,1.86-4.03,.52-1.22,.93-2.43,1.24-3.74,.33-1.29,.54-2.68,.7-4.05,.3-2.66,.12-5.36-.56-8.11-.34-1.38-.79-2.76-1.3-4.18-.51-1.43-1.1-2.89-1.56-4.52-.22-.82-.41-1.69-.47-2.61-.02-.45-.01-.99,.04-1.37,.04-.4,.08-.79,.14-1.18,.2-1.57,.48-3.09,.77-4.61,.56-3.04,1.31-6.02,1.71-9.07,.18,3.08,0,6.17,.02,9.23,0,1.53,.02,3.05,.11,4.55,.02,.37,.05,.74,.08,1.11,.03,.38,.09,.61,.17,.92,.17,.59,.44,1.2,.76,1.81,1.33,2.46,3.26,5.08,4.7,8.09,1.47,3,2.48,6.4,2.83,9.87,.16,1.69,.26,3.36,.2,5.11-.04,1.74-.24,3.54-.59,5.26-.33,1.73-.78,3.35-1.07,4.69-.29,1.35-.4,2.44-.38,3.54l.04,.83,.09,.85c.1,.55,.18,1.03,.35,1.57,.29,1.05,.7,2.12,1.23,3.2,.53,1.07,1.15,2.14,1.84,3.18,.34,.52,.72,1.02,1.09,1.51,.19,.24,.38,.48,.57,.7,.1,.11,.19,.22,.28,.32,.05,.05,.09,.1,.13,.14,.04,.03,.09,.1,.07,.05,2.43,3.39,1.6,8.08-1.86,10.46-3.46,2.38-8.23,1.57-10.66-1.83Z"/></g><g id="m"><path class="bi" d="M845.23,873.88c.04-.1,.1-.35,.15-.56,.06-.21,.1-.44,.15-.67,.1-.46,.19-.93,.27-1.41,.18-.95,.3-1.94,.45-2.92,.23-1.97,.41-3.97,.48-5.99,.16-4.03,.02-8.11-.51-12.17-.51-4.05-1.29-8.12-2.5-12.08-1.11-4.01-2.74-7.85-4.5-11.69l-.03-.06c-.32-.69,0-1.5,.7-1.81,.63-.28,1.36-.06,1.73,.49,2.45,3.61,4.83,7.34,6.7,11.34,1.98,3.96,3.54,8.13,4.83,12.4,1.3,4.27,2.21,8.67,2.79,13.15,.3,2.24,.48,4.5,.59,6.78,.03,1.15,.08,2.29,.05,3.46,0,.58-.01,1.17-.04,1.77-.01,.3-.02,.59-.05,.91-.02,.32-.04,.6-.09,1.02l-.1,.81c-.38,3.11-3.25,5.32-6.42,4.95-3.16-.37-5.42-3.19-5.04-6.3,.06-.49,.19-.98,.37-1.42Z"/><path class="bi" d="M857.91,877.36c-.23-1.33-.33-2.36-.45-3.5-.1-1.12-.2-2.23-.26-3.33-.13-2.21-.17-4.42-.18-6.62,.04-4.4,.39-8.78,.96-13.13,1.25-8.68,3.68-17.24,7.51-25.19,.87-2.02,2.04-3.91,3.13-5.82,1.03-1.95,2.41-3.7,3.65-5.51,1.27-1.87,2.53-3.41,3.79-5.09,1.22-1.67,2.48-3.33,3.65-5.04,2.38-3.39,4.65-6.85,6.69-10.42,1.02-1.78,1.99-3.59,2.88-5.42,.44-.92,.86-1.84,1.24-2.76,.18-.46,.38-.93,.54-1.39,.17-.44,.33-.96,.43-1.3l.05-.16c.28-.96,1.3-1.52,2.28-1.24,.92,.26,1.47,1.17,1.3,2.08-.13,.69-.26,1.17-.42,1.72-.14,.54-.32,1.06-.48,1.58-.34,1.04-.72,2.05-1.11,3.06-.79,2.01-1.67,3.97-2.59,5.9-1.85,3.87-3.91,7.61-6.09,11.27-1.07,1.85-2.22,3.64-3.35,5.45-1.13,1.77-2.4,3.61-3.36,5.3-1,1.74-2.13,3.38-2.92,5.23-.85,1.8-1.78,3.56-2.42,5.46-2.9,7.41-4.5,15.28-5.03,23.2-.2,3.97-.23,7.95,.04,11.9,.16,1.98,.34,3.94,.61,5.89,.13,.97,.29,1.94,.45,2.89,.17,.92,.37,1.96,.55,2.68,.77,2.99-1.08,6.02-4.13,6.78-3.05,.75-6.14-1.06-6.9-4.05-.04-.15-.07-.3-.1-.45Z"/><path class="bi" d="M876.33,885.83c.14-1.3,.27-2.81,.37-4.26,.12-1.45,.19-2.93,.26-4.4,.09-1.47,.13-2.95,.18-4.43,.04-1.48,.11-2.96,.11-4.44,.03-2.97,.07-5.94,0-8.91l-.06-4.46-.17-4.47c-.47-11.91-1.48-23.83-3.01-35.71-.37-2.97-.85-5.92-1.28-8.89l-.65-4.45-.78-4.43-1.58-8.86-1.85-8.81c-1.15-5.9-2.73-11.69-4.13-17.54l-.54-2.19-.61-2.17-1.23-4.34-2.45-8.69-.02-.06c-.27-.97,.3-1.97,1.29-2.24,.95-.26,1.94,.27,2.25,1.18l2.93,8.62,1.47,4.31,.73,2.16,.66,2.18c1.72,5.82,3.63,11.61,5.1,17.5l2.34,8.82,2.07,8.89,1.03,4.45,.9,4.47c.59,2.99,1.24,5.96,1.77,8.96,2.19,11.98,3.86,24.07,4.99,36.24l.41,4.57,.31,4.58c.23,3.05,.35,6.11,.48,9.18,.08,1.53,.09,3.07,.13,4.61,.03,1.54,.07,3.07,.06,4.62,0,1.54,.01,3.09-.03,4.65-.03,1.57-.07,3.07-.17,4.78-.18,3.08-2.86,5.43-6,5.26-3.14-.17-5.53-2.81-5.36-5.89,0-.09,.01-.18,.02-.27v-.12Z"/><path class="bi" d="M867.16,890.38c.28-.91,.53-1.49,.79-2.22,.26-.69,.54-1.33,.82-2,.53-1.34,1.16-2.58,1.74-3.87,.57-1.29,1.25-2.5,1.88-3.75,.62-1.25,1.3-2.46,1.99-3.66,.69-1.2,1.35-2.42,2.07-3.6l2.2-3.5c1.42-2.37,3.08-4.56,4.62-6.84,6.37-8.95,13.57-17.21,21.21-24.97l5.86-5.7c.96-.97,2-1.85,3.02-2.75l3.06-2.7c4.01-3.68,8.34-6.97,12.58-10.36,2.09-1.73,4.34-3.26,6.54-4.85l6.61-4.73c4.51-3.01,9.11-5.89,13.65-8.83,.79-.51,1.86-.3,2.38,.48,.5,.75,.32,1.74-.4,2.27l-.08,.06c-4.31,3.18-8.65,6.28-12.91,9.5l-6.21,5.04c-2.06,1.69-4.17,3.31-6.11,5.13-3.94,3.57-7.97,7.03-11.64,10.84l-2.81,2.8c-.94,.93-1.89,1.85-2.76,2.84l-5.33,5.85c-6.91,7.94-13.32,16.28-18.81,25.1-1.32,2.24-2.76,4.4-3.94,6.7l-1.85,3.4c-.6,1.14-1.14,2.3-1.71,3.45-.57,1.15-1.13,2.3-1.62,3.47-.49,1.17-1.06,2.32-1.49,3.5-.44,1.17-.95,2.35-1.32,3.51-.19,.58-.41,1.17-.59,1.74-.15,.53-.37,1.2-.46,1.57-.68,3.01-3.72,4.91-6.78,4.25-3.07-.67-5-3.65-4.33-6.66,.03-.14,.07-.28,.11-.42l.04-.11Z"/><path class="bi" d="M905.91,797.65c-.89,7.97-2.15,15.82-3.67,23.67-1.52,7.85-3.35,15.65-5.58,23.4-2.25,7.74-4.89,15.42-8.31,22.93-1.69,3.76-3.66,7.45-5.89,11.06-2.25,3.6-4.81,7.12-7.94,10.38l-.02,.02c-2.16,2.24-5.76,2.33-8.04,.21-2.28-2.12-2.38-5.65-.22-7.89,.1-.11,.22-.22,.33-.31,2.61-2.3,5.01-5.07,7.22-8.05,2.2-2.99,4.25-6.18,6.09-9.53,3.72-6.68,6.84-13.82,9.61-21.11,2.75-7.31,5.15-14.78,7.26-22.35,2.1-7.56,3.98-15.25,5.47-22.93v-.04c.2-.99,1.18-1.65,2.19-1.46,.96,.18,1.61,1.06,1.51,2Z"/><path class="bi" d="M856.16,789.46c-.27,4.26-.19,8.71,.08,13.05,.29,4.36,.78,8.7,1.52,12.99,.74,4.29,1.72,8.52,2.92,12.68,1.21,4.16,2.7,8.17,4.42,12.19,3.41,8.04,7.51,15.93,11.17,24.31,1.81,4.21,3.55,8.53,4.78,13.27,.61,2.37,1.09,4.84,1.29,7.47,.19,2.62,.08,5.44-.63,8.3l-.03,.11c-.74,3-3.81,4.84-6.87,4.12s-4.93-3.74-4.19-6.74c.04-.15,.08-.31,.13-.45,.97-2.86,.88-6.69,.15-10.62-.72-3.95-1.99-8.04-3.42-12.13-2.88-8.2-6.43-16.45-9.38-25.06-1.48-4.29-2.78-8.75-3.73-13.22-.95-4.48-1.65-8.99-2.1-13.51-.45-4.52-.62-9.06-.59-13.58,.06-4.54,.29-9,.92-13.58,.13-.96,1.03-1.64,2.01-1.51,.94,.12,1.6,.94,1.55,1.85v.08Z"/><path class="bi" d="M820.94,886.45c.72-1.68,1.45-3.6,2.14-5.43,.68-1.87,1.34-3.75,1.97-5.64,1.26-3.79,2.42-7.63,3.45-11.5,1.04-3.87,1.99-7.78,2.78-11.73,.84-3.94,1.47-7.92,2.06-11.92v-.03c.1-.68,.75-1.16,1.45-1.06,.63,.09,1.08,.62,1.09,1.22,.06,4.09,.08,8.2-.12,12.31-.16,4.11-.47,8.22-.89,12.33-.41,4.11-.96,8.21-1.62,12.3-.33,2.05-.7,4.09-1.09,6.14-.42,2.07-.82,4.05-1.36,6.23-.69,2.74-3.51,4.42-6.31,3.74-2.79-.68-4.5-3.45-3.81-6.19,.06-.26,.15-.51,.25-.75l.02-.03Z"/><path class="bi" d="M809.11,888.24c.06-.32,.12-.85,.17-1.29l.15-1.41c.08-.95,.16-1.91,.21-2.87,.11-1.93,.16-3.87,.15-5.82-.02-3.89-.26-7.8-.74-11.67-.95-7.75-2.84-15.41-5.86-22.63-.77-1.8-1.58-3.58-2.49-5.32-.45-.87-.9-1.74-1.41-2.58l-.73-1.28-.81-1.35c-2.16-3.63-4.04-7.43-5.57-11.36-1.53-3.93-2.72-7.99-3.47-12.14-.38-2.07-.63-4.17-.77-6.28-.06-1.06-.09-2.11-.08-3.18,.02-1.08,.05-2.09,.21-3.28,.12-.91,.96-1.55,1.89-1.43,.89,.11,1.52,.88,1.47,1.74v.1c-.06,.83-.05,1.86,0,2.81,.05,.97,.14,1.94,.26,2.91,.25,1.94,.61,3.87,1.08,5.78,.94,3.82,2.29,7.53,3.95,11.11,1.66,3.57,3.63,7.01,5.87,10.27l1.74,2.55c.61,.87,1.17,1.78,1.74,2.68,1.13,1.81,2.16,3.67,3.14,5.56,3.88,7.57,6.56,15.71,8.24,24.01,.84,4.15,1.43,8.36,1.78,12.59,.17,2.12,.29,4.24,.33,6.38,.03,1.07,.02,2.14,.01,3.22l-.04,1.63c-.02,.57-.04,1.06-.1,1.75v.1c-.24,2.81-2.76,4.9-5.62,4.67-2.86-.23-4.99-2.7-4.76-5.51,.01-.15,.03-.3,.06-.45Z"/><path class="bi" d="M791.78,897.6c0-2.65,.07-5.08,.17-7.59,.1-2.49,.22-4.97,.39-7.44,.16-2.47,.33-4.94,.56-7.41,.19-2.47,.44-4.93,.69-7.38,1.01-9.83,2.35-19.61,3.92-29.33,.87-4.85,1.64-9.71,2.63-14.54l1.43-7.24,1.57-7.21c1-4.82,2.25-9.58,3.37-14.36,1.18-4.77,2.5-9.51,3.74-14.26,.23-.89,1.16-1.43,2.06-1.2,.87,.22,1.41,1.07,1.24,1.93v.05c-.96,4.79-1.99,9.56-2.88,14.36-.83,4.81-1.79,9.59-2.49,14.41l-1.13,7.22-.99,7.24c-.7,4.82-1.17,9.66-1.74,14.49-.98,9.67-1.72,19.36-2.14,29.05-.1,2.42-.2,4.84-.24,7.26-.07,2.42-.1,4.84-.11,7.25-.02,2.41,0,4.82,.05,7.22,.05,2.38,.12,4.84,.26,7.08v.08c.18,2.81-2,5.23-4.86,5.41-2.87,.17-5.33-1.97-5.51-4.78,0-.09,0-.21,0-.3Z"/><path class="bi" d="M800.19,903.75l-.04-.24-.07-.34-.15-.71-.39-1.48c-.26-.99-.6-2.01-.9-3.02-.69-2.02-1.4-4.04-2.24-6.04-.76-2.02-1.73-3.98-2.62-5.98-.93-1.98-1.97-3.92-2.95-5.88-4.13-7.77-9.04-15.21-14.34-22.39l-4.04-5.35-4.28-5.18-2.14-2.6-2.25-2.51-4.52-5.01c-.74-.85-1.53-1.65-2.32-2.45l-2.37-2.41-4.75-4.83-9.9-9.28-.05-.05c-.63-.59-.65-1.56-.05-2.18,.57-.59,1.51-.63,2.14-.12l10.62,8.72,5.13,4.58,2.57,2.29c.86,.76,1.72,1.53,2.53,2.34l4.94,4.8,2.47,2.41,2.37,2.51,4.74,5.02,4.52,5.22c5.95,7.04,11.56,14.42,16.47,22.33,1.18,2.01,2.41,3.99,3.54,6.03,1.09,2.07,2.26,4.1,3.24,6.24,1.05,2.1,1.99,4.28,2.91,6.49,.42,1.13,.88,2.23,1.27,3.4,.41,1.2,.76,2.23,1.13,3.75,.67,2.74-1.05,5.5-3.84,6.15s-5.6-1.03-6.27-3.77c-.03-.11-.05-.23-.07-.34l-.02-.1Z"/><path class="bi" d="M784.9,812.75c1.5,7.08,3.19,14.17,4.98,21.2,1.79,7.03,3.74,14.02,5.86,20.94,2.1,6.92,4.4,13.77,7.03,20.41,1.27,3.35,2.73,6.58,4.2,9.78l2.36,4.66,2.61,4.36,.22,.37c1.46,2.43,.63,5.56-1.85,6.99-2.48,1.43-5.67,.62-7.12-1.81-.07-.11-.13-.24-.19-.35l-2.62-5.28-2.18-5.3c-1.31-3.55-2.57-7.09-3.61-10.66-2.18-7.12-3.96-14.28-5.53-21.47-1.59-7.18-2.99-14.38-4.22-21.59-1.24-7.22-2.36-14.43-3.3-21.71-.12-.92,.54-1.76,1.48-1.87,.89-.11,1.7,.47,1.88,1.32v.02Z"/><path class="bi" d="M827.53,809.53c.66,4.19,.96,8.3,1.06,12.49,.08,4.18-.1,8.38-.67,12.59-.58,4.2-1.51,8.42-3.13,12.52-.41,1.02-.85,2.04-1.36,3.04-.49,1.01-.94,1.85-1.41,2.78l-2.75,5.47c-3.6,7.29-6.99,14.66-9.54,22.13-1.25,3.73-2.31,7.48-2.87,11.16-.57,3.65-.62,7.27,.2,10.15,.78,2.71-.84,5.53-3.6,6.29-2.77,.76-5.64-.82-6.41-3.54-.04-.14-.07-.27-.1-.41v-.04c-1.01-5.14-.39-9.85,.58-14.21,1-4.37,2.49-8.43,4.14-12.36,3.33-7.85,7.38-15.16,11.57-22.31l3.18-5.33c.52-.87,1.11-1.8,1.57-2.61,.48-.8,.92-1.64,1.34-2.49,1.66-3.43,2.8-7.19,3.61-11.05,.81-3.86,1.28-7.83,1.49-11.83,.2-3.98,.19-8.07-.14-11.99v-.06c-.08-.88,.59-1.66,1.49-1.73,.86-.07,1.62,.53,1.75,1.36Z"/></g><g id="n"><path class="bk" d="M1645.06,632.52c-.68-.71-3.4-44.52-22.71-60.68-18.31-16.69-27.63-15.31-33.78-57.43"/><path class="bk" d="M1622.34,571.83s.49-20.4-8.42-41.22"/><path class="bk" d="M1618.52,544.05s1.38-6.77,5.38-13.41"/><path class="bk" d="M1601.45,553.35s-34.22,1.25-49.43-15.89"/><path class="bk" d="M1571.74,549.63s-7.85,3.9-21.25,1.02"/><path class="bk" d="M1591.35,529.68s-11.63-6.29-21.2-14.86"/><path class="bk" d="M1641.12,609.81s-17.7-.28-32.54-15.49c0,0,2.11-11.14-7.12-22.85"/><path class="bk" d="M1579.31,591.11s18.04,7.44,29.27,3.22c0,0-14.19-15.76-39.66-18.09"/><path class="bk" d="M1631.25,579.12c.3-.93,37.83-24.77,42.69-49.23,5.81-23.86,.01-31.15,34.37-57.09"/><path class="bk" d="M1673.94,529.89s18.34-9.6,32.44-27.45"/><path class="bk" d="M1696.72,512.98s6.68-2.15,14.54-1.99"/><path class="bk" d="M1680.08,502.95s-17.92-28.65-10.18-50.07"/><path class="bk" d="M1668.78,475.72s-7.32-4.79-11.34-17.67"/><path class="bk" d="M1696.12,482.69s-.13-13.04,2.77-25.43"/><path class="bk" d="M1649.46,564.6s-8.44-15.27-2.24-35.43c0,0,10.92-3.66,16.78-17.31"/><path class="bk" d="M1635.7,502.56s2.26,19.08,11.52,26.61c0,0,7.01-19.87-3.43-42.8"/></g></g><path id="o" class="bi" d="M0,210.51c69.99-16.73,143.1-5.99,209.2,20.51,27.25,7.9,32.4,38.41,35.22,62.22-9.08,55.03-14.15,44.66,9,97.18,41.56,188.91-61.91,201.66-13.79,245.28,67.63,39.21,18.47,70.43,64.56,85.81,52.7,17.38,104.5,34.4,160.7,26.43,21.7-2.58,43.74-.84,64.72,5.18,34.36,9.41,65.57,27.31,93.04,49.44,25.39,19.37,74.47,37.2,105.87,47.35,20.69,6.69,38.37,20.52,59.24,26.63,43.5,13.4,206.74-46.91,232.55-88.69,27.04-48.03,96.65-43.43,129.99-85.15,13.88-15.87,44.51-15.32,63.71-18.22,12.72-1.56,25.55,1.84,35.77,9.43,24.81,18.44,30,16.34,65.31,21.87,6.16,.97,12.47,.16,18.17-2.32,49.36-21.18,66.98-35.99,125.42-31.48,41.61-1.65,78.24-24.19,118.88-38.24,27.11-11.03,56.43-15.9,85.72-14.13,19.92,1.21,21.58,.1,36.51-25.17,12.04-18.43,2.51-44.6,11.64-63.18,9-18.31,21.96-39.55,27-53.65,12.57-35.19,34.42-58.38,81-53.01,23.78,6.25,63-53.01,100.58-54.02v701.96H0V210.51Z"/><g id="p"><polyline class="bo" points="680.16 562.01 701.16 550.5 699.12 522.58 718.69 511.37 714.61 484.67 737.36 470.5"/><polyline class="bo" points="991.88 37.23 1012.87 48.73 1010.83 76.66 1030.4 87.87 1026.32 114.57 1049.07 128.73"/><g><path class="bx" d="M84.59,332.56c-7.91,0-14.34-6.44-14.34-14.34s6.43-14.34,14.34-14.34,14.34,6.44,14.34,14.34-6.43,14.34-14.34,14.34Z"/><path class="cd" d="M84.59,308.88c5.16,0,9.34,4.18,9.34,9.34s-4.18,9.34-9.34,9.34-9.34-4.18-9.34-9.34,4.18-9.34,9.34-9.34m0-10c-10.67,0-19.34,8.68-19.34,19.34s8.68,19.34,19.34,19.34,19.34-8.68,19.34-19.34-8.68-19.34-19.34-19.34h0Z"/></g><g><circle class="bx" cx="823.7" cy="73.63" r="14.34"/><path class="cd" d="M823.7,64.29c5.16,0,9.34,4.18,9.34,9.34s-4.18,9.34-9.34,9.34-9.34-4.18-9.34-9.34,4.18-9.34,9.34-9.34m0-10c-10.67,0-19.34,8.68-19.34,19.34s8.68,19.34,19.34,19.34,19.34-8.68,19.34-19.34-8.68-19.34-19.34-19.34h0Z"/></g><path class="bw" d="M661.48,266.27c8.49,10.63,8.86,25.13,1.92,36l-36.61-45.84c12.14-4.35,26.19-.8,34.68,9.84Z"/><path class="bw" d="M645.48,80.6c-8.49,10.63-8.86,25.13-1.92,36l36.61-45.84c-12.14-4.35-26.19-.8-34.68,9.84Z"/><path class="bt" d="M873.9,423.05c5.79-6.21,13.54-9.51,21.42-9.83,6.26-.25,9.68,7.22,5.41,11.8l-22.99,24.66c-4.27,4.58-11.96,1.69-12.15-4.57-.23-7.87,2.52-15.83,8.31-22.05Z"/><path class="bt" d="M469.02,4.23c-5.79,6.21-13.54,9.51-21.42,9.83-6.26,.25-9.68-7.22-5.41-11.8l22.99-24.66c4.27-4.58,11.96-1.69,12.15,4.57,.23,7.87-2.52,15.83-8.31,22.05Z"/><path class="bt" d="M1137.18,13.31c-5.85-6.16-8.67-14.1-8.5-21.98,.13-6.26,7.8-9.22,12.11-4.68l23.2,24.46c4.31,4.54,.96,12.04-5.31,11.84-7.87-.25-15.65-3.48-21.5-9.65Z"/><path class="bt" d="M63.99,2.11c8.13,2.48,14.49,7.99,18.24,14.92,2.98,5.51-2.23,11.87-8.22,10.04l-32.25-9.83c-5.99-1.83-6.77-10-1.23-12.92C47.49,.65,55.85-.37,63.99,2.11Z"/><path class="bn" d="M489.48,533.67c-1.96-9.95,.6-15.08,.6-15.08l-12.36,3.92v-13.42l-13.12,4.07s5.28-7.69,1.81-14.32"/><path class="bn" d="M1068.26,511.81c-3.49,9.52-8.34,12.57-8.34,12.57l12.6,3.07-6.96,11.47,13.32,3.33s-8.5,3.83-8.98,11.3"/><path class="bn" d="M373.47,134.97c-8.63,5.33-14.33,4.74-14.33,4.74l8.02,10.2-12.56,4.72,8.42,10.85s-9.05-2.24-14.04,3.34"/><path class="bq" d="M359.62,378.17c15.78,6.67,6.63,19.48-4.82,14.64-11.52-4.87-16.22,7.56-6.19,11.8,12.69,5.36,5.17,17.49-4.41,13.44-13.26-5.61-21.15,8.17-6.14,14.52"/><path class="bq" d="M1031.92,236.04c15.78,6.67,6.63,19.48-4.82,14.64-11.52-4.87-16.22,7.56-6.19,11.8,12.69,5.36,5.17,17.49-4.41,13.44-13.26-5.61-21.15,8.17-6.14,14.52"/><g><path class="bx" d="M1287.65,192.43c-7.91,0-14.34-6.44-14.34-14.34s6.43-14.34,14.34-14.34,14.34,6.43,14.34,14.34-6.43,14.34-14.34,14.34Z"/><path class="cd" d="M1287.64,168.74c5.16,0,9.34,4.18,9.34,9.34s-4.18,9.34-9.34,9.34-9.34-4.18-9.34-9.34,4.18-9.34,9.34-9.34m0-10c-10.67,0-19.34,8.68-19.34,19.34s8.68,19.34,19.34,19.34,19.34-8.68,19.34-19.34-8.68-19.34-19.34-19.34h0Z"/></g><path class="bw" d="M1848.54,415.7c-8.49-10.63-8.86-25.13-1.92-36l36.61,45.84c-12.14,4.35-26.19,.8-34.68-9.84Z"/><path class="bt" d="M1672.08,492.07c-5.79-6.21-13.54-9.51-21.42-9.83-6.26-.25-9.68,7.22-5.41,11.8l22.99,24.66c4.27,4.58,11.96,1.69,12.15-4.57,.23-7.87-2.52-15.83-8.31-22.05Z"/><path class="bh" d="M1491.2,541.04c-11.4,21.23-36.64,4.83-34.97-2.82s9.34-.21,12.98-8.07c3.64-7.86-4.12-10.52-.03-16.04s33.36,5.82,22.02,26.92Z"/><path class="bn" d="M1692.54-37.36c-1.96,9.95,.6,15.08,.6,15.08l-12.36-3.92V-12.79l-13.12-4.07s5.28,7.69,1.81,14.32"/><path class="bn" d="M1576.53,361.34c-8.63-5.33-14.33-4.74-14.33-4.74l8.02-10.2-12.56-4.72,8.42-10.85s-9.05,2.24-14.04-3.34"/><path class="bq" d="M1562.68,118.14c15.78-6.67,6.63-19.48-4.82-14.64-11.52,4.87-16.22-7.56-6.19-11.8,12.69-5.36,5.17-17.49-4.41-13.44-13.26,5.61-21.15-8.17-6.14-14.52"/><path class="bq" d="M1712.96,728.4c-14.1-9.73-19.99,4.87-9.76,11.93,10.29,7.11,2.33,17.74-6.64,11.55-11.34-7.83-17.53,5.03-8.97,10.94,11.85,8.18,4.47,22.23-8.95,12.97"/></g><g id="q"><g id="r"><path class="bs" d="M139.74,579c-.8-2.01-1.01-4.16-.89-5.82,.12-1.69,.47-3,.83-4.1,.73-2.18,1.5-3.62,2.15-4.99,1.31-2.65,2.25-4.78,2.76-7.08,.51-2.27,.61-4.68,.18-7.22-.09-.64-.24-1.28-.39-1.92l-.25-.97-.32-1.04c-.45-1.42-.96-2.87-1.47-4.34-2.05-5.91-4.41-12.05-5.19-18.73-.17-1.67-.22-3.38-.03-5.09,.19-1.71,.65-3.43,1.51-4.96,.85-1.53,2.09-2.8,3.5-3.69,1.41-.9,2.96-1.44,4.5-1.8-1.42,.7-2.76,1.56-3.81,2.64-1.05,1.07-1.8,2.34-2.17,3.69-.75,2.7-.16,5.58,.8,8.31,.98,2.75,2.38,5.4,3.9,8.02,1.53,2.62,3.21,5.2,4.92,7.86,.86,1.33,1.72,2.68,2.57,4.1,.43,.69,.85,1.47,1.28,2.28,.41,.81,.82,1.63,1.18,2.48,1.48,3.39,2.39,7.26,2.51,11.19,.16,3.93-.57,7.87-1.3,11.1-.34,1.58-.67,3.07-.68,3.92,0,.41,.08,.65,.18,.51,.1-.11,.15-.69-.02-1.27,1.95,4.41-.11,9.54-4.61,11.45-4.49,1.91-9.72-.11-11.67-4.52Z"/><path class="bs" d="M158.84,583c-1.74-4.39-2.2-9.02-1.97-12.97,.2-4,.89-7.51,1.53-10.8,1.35-6.55,2.53-12.37,2.55-18.22,.02-2.91-.25-5.8-.79-8.67-.26-1.44-.62-2.86-1.03-4.28-.18-.72-.45-1.41-.67-2.12l-.83-2.43c-1.13-3.41-2-7.01-2.34-10.75-.3-3.74-.02-7.65,.99-11.28,.97-3.64,2.56-6.89,3.99-9.81,1.43-2.93,2.68-5.6,3.13-8.33,.23-1.36,.28-2.74,.17-4.15-.1-1.41-.46-2.84-.86-4.27l-1.63-4.62c-.25-.82-.52-1.63-.76-2.46-.21-.84-.45-1.66-.63-2.5-.75-3.36-1.14-6.83-.92-10.3,.23-3.46,1.08-6.86,2.45-9.96,1.33-3.12,3.13-5.93,4.51-8.85,.69-1.46,1.23-2.99,1.39-4.59,.18-1.59-.06-3.24-.65-4.78,.75,1.47,1.19,3.12,1.18,4.81,0,1.69-.39,3.36-.93,4.94-1.11,3.17-2.58,6.12-3.5,9.19-.97,3.05-1.39,6.18-1.26,9.29,.15,3.11,.83,6.17,1.84,9.14,.25,.74,.55,1.47,.82,2.21,.3,.73,.63,1.45,.94,2.17,.32,.72,.69,1.43,1.04,2.14l1.12,2.36c.68,1.67,1.31,3.39,1.66,5.24,.36,1.84,.51,3.76,.39,5.66-.21,3.84-1.48,7.36-2.59,10.47-1.15,3.13-2.13,5.98-2.55,8.77-.45,2.79-.33,5.54,.19,8.3,.56,2.76,1.54,5.52,2.78,8.24l1,2.15c.37,.82,.77,1.63,1.1,2.48,.69,1.68,1.32,3.39,1.85,5.14,1.07,3.5,1.81,7.13,2.19,10.77,.78,7.29,.06,14.56-.54,20.97-.29,3.2-.49,6.22-.32,8.79,.15,2.6,.73,4.6,1.63,6.25,2.22,4.1,.64,9.19-3.53,11.37-4.17,2.18-9.36,.63-11.58-3.47-.15-.28-.29-.57-.41-.86l-.14-.37Z"/><path class="bs" d="M175.06,603.4c-.77-1.88-1.36-3.98-1.57-6.19-.21-2.21,0-4.5,.52-6.52,1.07-4.1,2.98-7.05,4.53-9.52,1.6-2.46,2.99-4.51,3.83-6.32,.85-1.83,1.22-3.28,1.13-4.87-.03-.8-.18-1.64-.47-2.54l-.1-.34c-.04-.12-.06-.2-.14-.43l-.4-1.16c-.26-.77-.53-1.54-.73-2.36-.88-3.18-1.36-6.61-1.23-10.03,.11-3.42,.82-6.77,1.84-9.81,1.03-3.05,2.34-5.82,3.62-8.38,2.6-5.1,5.01-9.57,5.96-14.06,.95-4.45,.48-9.04-1.3-13.67-.2-.58-.42-1.15-.69-1.72l-.77-1.76c-.61-1.39-1.28-2.74-1.78-4.2-.57-1.41-.99-2.91-1.42-4.38-.35-1.51-.71-3.02-.9-4.59-.42-3.1-.43-6.29,.01-9.39,.44-3.11,1.32-6.1,2.45-8.89,2.26-5.61,5.49-10.4,7.93-15.08,1.2-2.34,2.26-4.66,2.72-6.96,.48-2.3,.49-4.58-.2-6.84-.3-1.04-.86-2.45-1.33-3.75l-1.43-3.95c-.93-2.64-1.84-5.28-2.71-7.94-1.74-5.31-3.38-10.65-4.88-16.03-2.98-10.75-5.55-21.65-6.96-32.74-.67-5.54-1.07-11.14-.63-16.73,.23-2.79,.68-5.58,1.62-8.23,.93-2.63,2.46-5.17,4.82-6.75-2.26,1.71-3.6,4.27-4.37,6.89-.77,2.64-1.06,5.39-1.13,8.13-.12,5.5,.59,10.99,1.56,16.41,2.01,10.84,5.16,21.47,8.72,31.92,1.79,5.23,3.7,10.42,5.73,15.56,1.01,2.57,2.05,5.13,3.12,7.68l1.62,3.81c.55,1.29,1.11,2.42,1.68,4.02,1.12,3.02,1.35,6.44,.85,9.59-.47,3.18-1.61,6.04-2.79,8.71-2.43,5.32-5.19,10.01-6.8,14.85-1.66,4.81-2.11,9.65-1.15,14.39,.2,1.19,.57,2.36,.9,3.53,.43,1.16,.81,2.33,1.36,3.47,.46,1.15,1.11,2.27,1.67,3.39l1.03,2c.36,.67,.68,1.37,.98,2.09,1.25,2.83,2.25,5.88,2.75,9.1,.51,3.21,.52,6.57,.03,9.8-.49,3.23-1.45,6.28-2.53,9.09-1.08,2.82-2.29,5.43-3.37,7.9-2.18,4.94-3.61,9.37-3.47,13.61,.05,2.13,.47,4.24,1.19,6.36,.15,.53,.38,1.06,.6,1.59l.79,1.99c.67,1.71,1.17,3.58,1.38,5.55,.23,1.95,.21,4-.13,5.93-.32,1.94-.88,3.76-1.54,5.41-1.33,3.32-3,5.96-4.29,8.26-1.31,2.28-2.22,4.24-2.42,5.57-.11,.67-.09,1.19,0,1.74,.1,.54,.31,1.13,.63,1.8h0c1.78,3.76,.13,8.21-3.69,9.96-3.82,1.75-8.36,.12-10.14-3.63-.05-.12-.12-.26-.16-.37Z"/><path class="bs" d="M188.27,591.46c4.06-2.27,7.83-4.83,10.98-7.75,3.15-2.93,5.63-6.2,7.24-9.87,1.63-3.67,2.38-7.82,2.49-12.33,.13-4.51-.36-9.34-.85-14.4-.48-5.06-.98-10.41-.66-16.01,.17-2.8,.56-5.65,1.27-8.48,.37-1.41,.81-2.81,1.32-4.18,.57-1.58,1.3-2.84,1.97-4.06,2.64-4.74,6-9.36,10-13.21,1.97-1.93,4.04-3.64,5.82-5.23,1.8-1.6,3.25-3.1,4.35-4.83,1.12-1.71,1.93-3.72,2.52-5.9,.61-2.16,.89-4.3,.83-6.44-.06-2.14-.53-4.28-1.24-6.55-.71-2.27-1.69-4.7-2.37-7.43-.68-2.71-.96-5.73-.53-8.57,.19-1.42,.52-2.81,.95-4.13,.2-.67,.45-1.31,.7-1.95l.28-.73c.06-.2,.13-.39,.16-.62,.37-1.76-.08-4.11-.74-6.36-.68-2.29-1.6-4.6-2.56-6.91-3.92-9.23-8.43-18.64-10.35-28.78-.96-5.05-1.25-10.26-.48-15.33,.75-5.07,2.58-9.94,5.25-14.26-2.37,4.49-3.84,9.4-4.24,14.37-.42,4.98,.21,9.98,1.45,14.79,1.25,4.82,3.13,9.47,5.25,14.01,2.12,4.55,4.52,8.98,6.82,13.57,1.14,2.3,2.26,4.63,3.2,7.15,.46,1.26,.88,2.56,1.17,3.97,.29,1.4,.46,2.91,.25,4.54-.04,.4-.14,.82-.23,1.23l-.32,1.07c-.17,.55-.35,1.1-.47,1.66-.28,1.1-.46,2.21-.53,3.29-.17,2.18,.16,4.28,.85,6.43,.68,2.15,1.74,4.37,2.72,6.88,.98,2.49,1.83,5.29,2.1,8.19,.29,2.9,.08,5.84-.49,8.6-.55,2.74-1.44,5.56-2.91,8.22-1.45,2.67-3.46,4.98-5.35,6.89-1.9,1.93-3.67,3.6-5.23,5.35-3.13,3.45-5.57,7.31-7.6,11.57-.48,1.03-.96,2.02-1.17,2.85-.31,1.02-.56,2.06-.76,3.11-.39,2.12-.55,4.3-.54,6.56,.02,4.51,.74,9.24,1.55,14.2,.8,4.96,1.7,10.17,1.92,15.77,.23,5.57-.34,11.63-2.45,17.41-2.07,5.78-5.57,10.99-9.63,15.26-4.07,4.29-8.64,7.78-13.34,10.82h0c-3.7,2.4-8.67,1.39-11.11-2.24-2.44-3.63-1.41-8.51,2.28-10.9,.14-.09,.3-.19,.44-.27Z"/><path class="bs" d="M195.72,604.08c5.63-1.14,11.42-4.23,16.41-8.46,5.02-4.23,9.34-9.57,12.58-15.51,3.24-5.95,5.41-12.54,6.03-19.34,.64-6.79-.36-13.79-3.16-20.24l-.14-.32h0c-.71-2.76-.94-5.74-.37-8.54,.55-2.81,1.79-5.28,2.99-7.56,1.21-2.28,2.39-4.48,2.88-6.91,.52-2.42,.22-5-.62-7.44,1.2,2.27,1.95,4.89,1.8,7.58-.12,2.69-1.04,5.27-1.87,7.69-.84,2.42-1.56,4.78-1.64,7.08-.1,2.3,.43,4.52,1.34,6.64l-.14-.33c4.1,6.68,6.42,14.53,6.78,22.49,.39,7.97-1.04,16.02-3.87,23.56-2.85,7.55-7.06,14.66-12.64,20.9-5.58,6.2-12.62,11.65-21.41,14.84l-.24,.09c-4.46,1.61-9.4-.63-11.04-5-1.64-4.37,.64-9.23,5.09-10.84,.39-.14,.84-.26,1.24-.35Z"/><path class="bs" d="M180.9,618.38c.67-.76,1.56-1.67,2.89-2.55,1.3-.88,3.2-1.61,4.91-1.79,.86-.1,1.62-.09,2.31-.04,.65,.06,1.26,.16,1.73,.28,.99,.23,1.64,.49,2.2,.71,1.08,.45,1.7,.79,2.27,1.06,.56,.28,1.01,.49,1.46,.68,.89,.36,1.8,.6,2.91,.68,1.09,.08,2.33,0,3.65-.25,2.64-.49,5.51-1.53,8.34-2.91,2.83-1.45,5.63-3.1,8.35-4.89,5.42-3.59,10.56-7.69,14.93-12.52,2.17-2.42,4.15-5.02,5.72-7.88,1.58-2.85,2.7-5.98,3.07-9.31,.31,3.33-.17,6.79-1.21,10.06-1.02,3.29-2.54,6.44-4.31,9.43-3.57,5.97-8.09,11.35-13.06,16.28-2.5,2.46-5.12,4.82-7.94,7.04-2.81,2.29-5.89,4.54-9.63,6.32-1.87,.88-3.93,1.65-6.2,2.13-2.26,.5-4.77,.67-7.22,.46-1.21-.1-2.41-.29-3.47-.5-1.05-.21-2.02-.44-2.56-.49-.26-.03-.42,0-.26,.08,.06,.03,.24,.09,.47,.13,.27,.04,.61,.06,1.05,.02,.87-.05,1.97-.47,2.58-.85,.65-.39,.94-.69,1.1-.8-2.98,3.81-8.55,4.53-12.43,1.61-3.89-2.93-4.62-8.39-1.64-12.21Z"/></g><g id="s"><path class="bj" d="M199.87,735.04c.66-1.03,53.48-18.02,67.22-45.91,14.69-26.87,10.07-37.44,59.75-57.95"/><path class="bj" d="M267.08,689.12s25.15-5.84,47.86-22.91"/><path class="bj" d="M299.93,675.87s8.73-.51,18.13,2.13"/><path class="bj" d="M283.16,658.64s-12.3-40.01,3.92-63.36"/><path class="bj" d="M278.37,622.39s-7.25-8.04-7.94-24.77"/><path class="bj" d="M308.99,639.27s4.05-15.72,11.54-29.71"/><path class="bj" d="M226.46,723.24s-5.22-20.98,8.74-43.3c0,0,14.31-1.01,25.76-15.6"/><path class="bj" d="M229.93,644.37s-3.44,23.64,5.26,35.57c0,0,14.84-21.71,9.69-52.52"/></g><g id="t"><path class="bs" d="M368.65,959.84c2.75-.91,5.57-2.01,8.28-3.22,2.73-1.19,5.42-2.48,8.08-3.82,5.31-2.7,10.5-5.64,15.56-8.79,5.08-3.11,9.98-6.5,14.82-9.96,2.39-1.78,4.77-3.55,7.13-5.37l3.48-2.79c1.14-.95,2.39-1.76,3.29-3.06,1.86-2.51,2.44-6.76,3.72-9.95,1.29-3.2,3.38-5.23,6.72-5.65,1.65-.23,3.63-.06,5.48-.06,1.91,.07,3.68-.05,5.11-.62,1.43-.56,2.58-1.5,3.36-2.89,.79-1.37,1.21-3.2,1.41-5.27l.29-3.11,.15-1.54c.08-.47,.13-.99,.23-1.43,.33-1.87,.98-3.34,2-4.38,1.01-1.04,2.34-1.71,3.96-2.04,1.62-.34,3.57-.29,5.54-.26,1.95,.02,3.99,.12,5.68-.19,1.7-.29,3.1-.94,4.18-1.94,1.06-1.01,1.76-2.44,2.07-4.26,.15-.92,.22-1.92,.23-2.96l-.06-3.25c-.06-2.18-.09-4.29,.28-5.97,.37-1.68,1.16-2.91,2.29-3.8,2.17-1.87,5.31-2.76,9-3.18,3.63-.47,7.65-.64,10.56-1.92,1.45-.64,2.71-1.47,3.72-2.52,1.04-1.03,1.74-2.37,2.1-4.01,.36-1.64,.37-3.58,.18-5.68-.11-2.03-.36-4.15-.3-5.99,.06-1.84,.41-3.41,1.14-4.65,.75-1.23,1.77-2.21,3.1-2.96,1.33-.74,2.98-1.22,4.88-1.52,1.91-.29,3.95-.49,5.94-.76,4.04-.48,7.13-1.79,8.81-4.17,.85-1.18,1.25-2.71,1.18-4.56-.05-1.84-.67-4.08-1.14-6.18-.53-2.15-.97-4.2-.91-5.89,.05-1.7,.57-3.05,1.51-4.11,.9-1.09,2.26-1.86,4.01-2.39,.88-.26,1.85-.47,2.86-.65l3.02-.57c2.03-.38,3.89-.9,5.25-1.75,1.34-.86,2.21-2.02,2.72-3.4,.49-1.39,.58-3.03,.31-4.86-.11-.9-.35-1.88-.54-2.82-.21-.95-.4-1.89-.63-2.85-.93-3.82-.75-6.9,1.42-8.9,1.08-1,2.87-1.63,4.87-2.16,.99-.27,2.01-.53,2.96-.84,.98-.29,1.91-.61,2.71-.99,1.65-.76,2.83-1.77,3.76-2.91,.88-1.16,1.54-2.45,1.34-4.14h0c-.79-6.88,4.25-13.09,11.26-13.87s13.33,4.17,14.12,11.05c.58,5.03-1.97,9.7-6.11,12.15-1.58,.93-2.31,2.26-2.81,3.72-.45,1.48-.65,3.09-.39,4.95,.11,.92,.35,1.91,.64,2.93,.26,1.01,.59,2.06,.88,3.09,.55,2.05,.82,3.98,.42,5.54-.81,3.13-3.61,5.17-7.52,6.48-1.97,.64-4.06,1.19-5.92,1.86-1.86,.67-3.36,1.54-4.45,2.65-2.25,2.19-2.6,5.54-1.83,9.71l.5,3.1c.18,1.05,.3,2.06,.34,3.02,.08,1.92-.24,3.6-1.03,4.95-.82,1.33-2.07,2.37-3.79,3.06-1.71,.7-3.91,1.04-6.21,1.27-2.24,.28-4.59,.45-6.46,.96-1.91,.47-3.36,1.28-4.36,2.42-.99,1.15-1.65,2.54-2.02,4.18-.37,1.63-.37,3.57-.3,5.58,.06,2,.19,4.07,.18,6.05-.02,1.97-.29,3.76-.88,5.29-.59,1.53-1.48,2.82-2.75,3.78-1.26,.97-2.9,1.61-4.83,1.98-1.94,.37-4.17,.46-6.27,.64-2.15,.14-4.22,.33-5.91,.85-1.7,.51-3.05,1.32-4.06,2.45-1.04,1.1-1.84,2.42-2.44,3.94-.29,.77-.56,1.55-.78,2.4-.21,.85-.37,1.75-.53,2.66l-.79,5.64c-.28,1.87-.65,3.69-1.31,5.22-.64,1.55-1.5,2.88-2.57,4-1.04,1.15-2.41,1.97-4.21,2.33-.9,.18-1.89,.26-2.96,.26-1.05,.02-2.24-.13-3.35-.19l-3.39-.26c-1.09-.05-2.13-.06-3.09,.02-1.91,.17-3.44,.74-4.59,1.71-1.19,.94-2.05,2.23-2.62,3.88-.58,1.62-.8,3.67-1.12,5.62-.29,1.99-.62,3.95-1.33,5.48-.69,1.56-1.67,2.78-2.97,3.63-1.3,.85-2.95,1.28-4.94,1.28-.48,.02-1.02-.03-1.53-.05l-1.62-.16-3.24-.35c-2.15-.24-4.08-.22-5.64,.24-1.56,.47-2.82,1.29-3.78,2.53-1.97,2.36-2.25,6.97-3.78,10.01-.76,1.53-1.8,2.69-3.14,3.45-1.33,.77-2.88,1.26-4.7,1.35-3.63,.2-7.95-.63-11.02,.24-1.59,.36-2.83,1.21-4.17,1.92l-3.98,2.18c-2.68,1.41-5.3,2.9-7.97,4.31l-15.88,8.62-15.82,8.68c-5.27,2.94-10.47,5.84-15.8,8.97-1.47,.86-3.38,.39-4.26-1.05-.88-1.45-.4-3.32,1.07-4.18,.19-.11,.39-.2,.59-.27l.07-.02Z"/><path class="bs" d="M368.26,951.84c6.12-4.67,11.71-10.22,16.94-15.95,5.22-5.77,10.08-11.86,14.59-18.18l3.32-4.78,3.18-4.87c.55-.79,.99-1.67,1.22-2.71,.24-1.03,.32-2.17,.32-3.36,.03-1.17,.03-2.36,.16-3.44,.13-1.09,.44-2.04,.93-2.85,1-1.62,2.62-2.8,4.73-3.66,1.05-.43,2.19-.81,3.26-1.24,1.12-.4,2.12-.88,2.97-1.47,1.7-1.18,2.76-2.81,3.19-4.82,.21-1.01,.21-2.15,.14-3.33-.08-1.19-.29-2.45-.43-3.65-.16-1.22-.29-2.42-.28-3.52,.02-1.1,.18-2.1,.53-2.99,.34-.89,.82-1.7,1.6-2.33,.77-.64,1.8-1.13,3.03-1.51,2.47-.75,5.49-1.23,7.21-2.48,.88-.61,1.46-1.39,1.87-2.25,.41-.87,.64-1.84,.68-2.9,.11-2.12-.59-4.63-.63-6.77-.07-2.16,.63-3.9,1.83-5.41,1.21-1.5,3.22-2.63,5.01-3.9,1.8-1.26,3.01-2.81,3.62-4.62,1.51-3.52-.47-8.45,.67-12.01,.25-.91,.57-1.78,1.09-2.59,.51-.81,1.21-1.55,2.04-2.24,1.7-1.37,3.82-2.63,5.15-4.18,1.34-1.55,2.12-3.31,2-5.35-.2-2.06-1-4.28-.86-6.2,.51-3.78,1.08-7.47,2.97-10.86l.16-.29c2.29-4.13,7.56-5.64,11.76-3.39,2.96,1.59,4.6,4.64,4.51,7.74-.07,2.05-.52,4.02-1.1,5.95-.57,1.93-1.32,3.81-2.33,5.6-1.03,1.79-3,3.27-4.36,4.92-1.41,1.63-1.93,3.53-1.88,5.65,.03,1.06,.22,2.18,.48,3.34,.21,1.13,.47,2.3,.6,3.41,.28,2.25-.13,4.26-1.12,6.03-.51,.88-1.15,1.71-1.91,2.48-.75,.78-1.63,1.5-2.46,2.24-1.71,1.45-3.32,2.92-4.29,4.66-1.04,1.71-1.39,3.72-1.31,5.96,.06,2.23,.35,4.58-.17,6.57-.49,2-1.7,3.65-3.56,4.95-1.86,1.3-4.34,2.25-6.18,3.51-.92,.63-1.64,1.36-2.19,2.19-.54,.83-.91,1.75-.99,2.84-.26,2.11,.76,4.98,1.24,7.58,.22,1.29,.29,2.5,.01,3.5-.25,1.02-.81,1.86-1.5,2.62-1.36,1.54-3.51,2.59-6.02,3.37-1.2,.43-2.49,.79-3.64,1.24-1.15,.45-2.21,.94-3.07,1.56-1.78,1.2-2.93,2.8-3.44,4.83-.49,2.04-.37,4.53-.53,6.84-.09,1.15-.26,2.25-.63,3.21-.37,.96-.87,1.83-1.55,2.58-.68,.75-1.53,1.37-2.57,1.84-1.02,.5-2.24,.84-3.39,1.22-1.19,.36-2.3,.76-3.26,1.28-.96,.51-1.71,1.18-2.39,1.91l-8.31,8.52c-5.55,5.65-11.12,11.23-16.68,16.81l-8.33,8.38-8.33,8.49c-.96,.98-2.56,1.01-3.56,.07s-1.03-2.51-.07-3.5c.08-.08,.17-.16,.26-.23l.06-.04Z"/><path class="bs" d="M362.14,943.64c3.11-5.01,5.58-10.5,7.81-16,2.21-5.53,4.1-11.19,5.76-16.91,1.62-5.74,3.08-11.52,4.21-17.38,.27-1.47,.66-2.9,.75-4.43,.11-1.52-.06-3.12-.36-4.75-.31-1.64-.79-3.32-1.14-4.95-.41-1.65-.71-3.27-.76-4.8-.08-3.07,.71-5.88,2.49-8.43,1.76-2.56,4.61-4.85,6.47-7.42,.93-1.28,1.65-2.63,2.07-4.05,.2-.71,.38-1.43,.44-2.17,.04-.75-.07-1.54-.33-2.36-.95-3.27-4.77-7.16-5.43-10.29-.8-3.16,.9-5.75,4.2-8.05,.82-.58,1.65-1.15,2.44-1.74l1.2-.88c.37-.3,.73-.6,1.07-.91,1.34-1.23,2.21-2.57,2.49-4.01,.33-1.44-.04-3.01-1.25-4.73-.62-.86-1.34-1.74-2.22-2.64l-2.5-2.68c-1.66-1.77-2.76-3.43-2.98-4.94-.13-.76,0-1.47,.17-2.17,.18-.7,.49-1.38,.91-2.05,.83-1.33,2.17-2.58,3.78-3.81l2.38-1.85c.81-.61,1.59-1.24,2.28-1.88,1.38-1.28,2.35-2.62,2.87-4.03,.54-1.41,.6-2.89-.05-4.45-1.19-3.13-5.34-6.58-6.04-9.57-.42-1.51-.18-2.93,.58-4.31,.75-1.38,2.13-2.69,3.75-3.99l2.44-1.96c.83-.65,1.59-1.32,2.24-1.99,1.29-1.35,2.04-2.77,2.18-4.23,.22-1.46-.52-3-2.16-4.6-.37-.4-.86-.8-1.3-1.2l-1.5-1.21c-.98-.8-2.04-1.61-2.93-2.4-1.81-1.58-2.85-3.09-2.85-4.54,0-1.44,.64-2.85,2-4.22,2.74-2.74,8-5.42,9.56-8.31,.87-1.44,.89-2.91,.6-4.39-.32-1.48-1.14-2.97-2.28-4.46-1.19-1.49-2.48-2.97-3.62-4.44-1.11-1.47-1.94-2.92-2.26-4.37-.33-1.45-.2-2.89,.35-4.34,.55-1.45,1.61-2.9,2.91-4.37,1.27-1.47,2.69-2.95,3.74-4.44,1.09-1.49,1.77-2.97,2.02-4.45,.47-2.96-.4-5.89-2.31-8.74l-1.38-2.13c-.47-.71-.91-1.42-1.31-2.13-.79-1.42-1.34-2.85-1.56-4.29-.24-1.44-.12-2.91-.07-4.37,.11-1.47,.34-2.94,.76-4.44,.4-1.49,.99-3.01,1.78-4.55,.81-1.54,1.75-3.1,3.24-4.72l.14-.15c2.92-3.17,7.84-3.53,11.21-.94,1.74,1.35,2.94,2.76,4,4.19,1.03,1.43,1.88,2.89,2.53,4.37,1.29,2.96,2.07,5.97,2.01,9.04-.06,1.53-.44,3.09-1.07,4.65-.31,.78-.67,1.56-1.06,2.34l-1.13,2.33c-.72,1.55-1.37,3.09-1.68,4.61-.32,1.52-.32,3.03-.02,4.54,.32,1.5,1.1,3,2.27,4.49,.56,.75,1.23,1.5,1.92,2.25,.69,.75,1.32,1.51,1.97,2.26,1.3,1.51,2.36,3.04,2.92,4.58,.56,1.53,.69,3.07,.36,4.61-.33,1.53-1.1,3.06-2.32,4.57-1.22,1.51-2.58,3.01-3.84,4.5-2.46,2.98-3.5,5.96-2.19,9.04,1.27,3.07,6.22,6.35,8.67,9.57,1.19,1.6,1.74,3.19,1.49,4.71-.22,1.53-1.48,3-3.51,4.39-1,.7-2.17,1.38-3.26,2.06l-1.67,1.02c-.5,.34-1.05,.68-1.47,1.03-1.86,1.38-2.8,2.81-2.9,4.32-.15,1.5,.3,3.06,1.31,4.67,.5,.81,1.12,1.63,1.8,2.46l2.01,2.5c2.81,3.35,3.82,6.57,2.28,9.49-1.42,2.93-6.24,5.41-8.32,8.18-1.07,1.39-1.43,2.86-1.32,4.41,.1,1.54,.66,3.15,1.61,4.83,.45,.83,.99,1.68,1.56,2.54l1.66,2.57c1.12,1.72,1.99,3.42,2.33,5.03,.18,.81,.25,1.6,.18,2.37-.06,.77-.22,1.52-.61,2.24-.77,1.43-2.4,2.71-4.6,3.87l-3.32,1.73c-1.14,.57-2.14,1.15-3.03,1.76-1.74,1.22-2.76,2.56-3.01,4.05-.32,1.48-.05,3.07,.7,4.76,.19,.42,.41,.85,.63,1.29l.75,1.31,1.5,2.64c1.99,3.53,2.39,6.77,.28,9.43-2.03,2.69-7.29,4.59-9.64,7.13-.61,.63-1.06,1.3-1.39,1.99-.32,.7-.52,1.43-.69,2.16-.34,1.47-.37,3.02-.19,4.62,.39,3.22,1.59,6.67,1.75,9.87,.21,3.21-.71,6.13-2.49,8.79-1.76,2.66-4.7,4.97-7.13,7.39-1.21,1.21-2.23,2.48-3.06,3.8-.84,1.32-1.39,2.72-2.06,4.09-2.6,5.49-5.14,10.98-7.62,16.47-2.51,5.49-4.94,10.98-7.29,16.51-2.34,5.55-4.64,11.04-6.76,16.8-.47,1.29-1.92,1.95-3.23,1.49-1.31-.47-1.99-1.89-1.52-3.17,.06-.15,.13-.3,.21-.43l.04-.06Z"/><path class="bs" d="M357.76,924.52c0-2.57-.1-5-.26-7.46-.13-2.46-.38-4.9-.62-7.34-.53-4.87-1.19-9.72-2.04-14.56-.79-4.84-1.76-9.67-2.92-14.49-1.36-4.79-7.43-9.23-8.78-14.07-.19-.6-.34-1.21-.43-1.82-.12-.61-.1-1.23,.06-1.85,.32-1.26,1.34-2.56,2.53-3.88,1.14-1.31,2.36-2.63,2.83-3.89,.53-1.26,.36-2.48-.12-3.68-.86-2.4-3.91-4.65-6.01-6.98-1.03-1.16-1.72-2.35-2-3.57-.36-1.21-.06-2.46,.98-3.75,.5-.65,1.18-1.3,1.8-1.95,.64-.65,1.31-1.31,1.76-1.95,1-1.29,1.24-2.53,.87-3.73-.32-1.21-1.32-2.38-2.61-3.53l-1.89-1.74c-.61-.58-1.1-1.17-1.51-1.76-.38-.59-.64-1.2-.75-1.8-.09-.61-.13-1.22-.12-1.84,.02-1.23,.27-2.47,.69-3.72,.86-2.5,2.29-5.03,2.87-7.51,.29-1.24,.41-2.47,.31-3.7-.11-1.22-.64-2.42-1.4-3.62-.75-1.19-1.65-2.38-2.18-3.58-.57-1.2-.72-2.42-.63-3.65,.07-1.23,.4-2.47,.88-3.72,.5-1.25,1.09-2.5,1.57-3.75,.95-2.49,1.12-4.95,.23-7.37-.89-2.42-2.84-4.8-3.27-7.23-.24-1.22-.17-2.45,.07-3.68,.23-1.23,.68-2.48,1.27-3.72,1.18-2.49,2.93-5,3.81-7.48,.88-2.48,.99-4.93,.19-7.35-.78-2.42-2.66-4.82-4.08-7.23-1.42-2.41-2.1-4.84-1.67-7.31,.4-2.46,2.77-4.97,4.24-7.45,1.32-2.48,2.25-4.95-.66-7.33-.59-.6-1.26-1.2-1.72-1.8-.48-.6-.75-1.21-.81-1.82-.08-1.22,.43-2.46,1.35-3.7,.93-1.24,2.2-2.49,3.01-3.73,.84-1.24,1.08-2.47,1.02-3.69-.03-1.22-.38-2.44-.92-3.65-.55-1.21-1.21-2.42-1.74-3.64-.51-1.21-.82-2.43-.84-3.66-.04-.61,.04-1.22,.63-1.85,.28-.31,.69-.62,1.2-.94,.53-.31,1.13-.63,2.1-.95,1.97-.65,4.01-.64,5.86-.09h0c.98,.29,1.59,.59,2.13,.89,.53,.3,.95,.6,1.24,.9,.61,.6,.72,1.21,.7,1.82,.02,1.22-.23,2.44-.7,3.67-.48,1.23-1.1,2.46-1.6,3.69-.49,1.23-.79,2.46-.77,3.68-.01,1.22,.27,2.44,1.16,3.64,.86,1.2,2.17,2.4,3.15,3.6,.97,1.2,1.52,2.41,1.49,3.63-.04,.61-.28,1.23-.74,1.84-.43,.62-1.08,1.24-1.64,1.87-2.82,2.5-1.73,4.92-.28,7.33,1.6,2.4,4.1,4.78,4.63,7.2,.57,2.42,.01,4.87-1.27,7.35-1.28,2.47-3.04,4.96-3.68,7.42-.65,2.46-.35,4.89,.69,7.3,1.05,2.41,2.97,4.78,4.32,7.17,.67,1.2,1.21,2.4,1.53,3.6,.33,1.21,.48,2.42,.32,3.64-.26,2.45-2.05,4.95-2.71,7.41-.69,2.46-.31,4.89,.85,7.28,.59,1.19,1.28,2.38,1.89,3.58,.59,1.19,1.03,2.39,1.2,3.6,.19,1.21,.14,2.43-.32,3.67-.43,1.24-1.23,2.49-1.85,3.74-.64,1.25-1.04,2.49-1.02,3.7,.03,1.22,.27,2.43,.69,3.62,.83,2.4,2.5,4.75,3.62,7.13,.54,1.19,.91,2.39,1.06,3.6,.14,1.21,.2,2.42-.46,3.68-.33,.63-.76,1.26-1.29,1.9l-1.67,1.92c-1.15,1.28-2,2.55-2.17,3.78-.23,1.23,.16,2.43,1.31,3.58,.53,.58,1.27,1.14,1.98,1.71,.69,.57,1.45,1.13,2.02,1.71,1.19,1.15,1.62,2.34,1.43,3.56-.11,1.22-.64,2.47-1.5,3.75-1.77,2.55-4.48,5.17-5.01,7.65-.31,1.24-.31,2.46,.39,3.64,.62,1.18,2.05,2.3,3.38,3.42,1.38,1.12,2.58,2.25,3.1,3.43,.26,.59,.37,1.19,.35,1.8,0,.61-.05,1.22-.14,1.84-.63,4.91-5.81,10.2-6.32,15.15-.18,1.24-.15,2.46-.2,3.69-.01,1.22-.06,2.45-.05,3.67v3.67l.1,3.67c.2,4.88,.55,9.75,1.21,14.58,.31,2.42,.74,4.82,1.22,7.21,.51,2.37,1.07,4.79,1.87,7.04h0c.54,1.54-.28,3.2-1.84,3.73-1.55,.53-3.25-.28-3.79-1.8-.11-.32-.16-.65-.16-.97Z"/></g><g id="u"><path class="bs" d="M1201.5,940.74c-.65-.48-.97-.74-1.41-1.1-.4-.34-.8-.67-1.19-1.02-.78-.68-1.52-1.39-2.26-2.14-1.46-1.49-2.88-3.11-4.21-5.03-1.31-1.92-2.59-4.1-3.45-6.95-.2-.73-.37-1.51-.52-2.26-.15-.76-.18-1.66-.23-2.48-.03-1.71,.2-3.55,.76-5.26,.54-1.7,1.35-3.2,2.17-4.4,.82-1.2,1.64-2.14,2.36-2.92,1.46-1.54,2.56-2.55,3.3-3.36,1.47-1.66,1.58-1.99,1.82-3.51l.04-.76c.08-.54,.08-.87,.01-1.28-.08-.4-.28-.95-.75-1.69-.92-1.48-2.78-3.44-4.88-5.62-2.09-2.19-4.41-4.69-6.46-7.59-2.07-2.87-3.81-6.18-5.02-9.6-1.2-3.44-1.84-6.99-2.06-10.44-.05-.86-.11-1.73-.09-2.57,0-.85-.02-1.71,.05-2.52,.12-1.63,.17-3.26,.37-4.89,.72-6.53,2.74-13.04,5.52-18.8,2.74-5.78,6.12-10.77,8.32-15.51,.26-.59,.59-1.19,.8-1.78l.69-1.77c.24-.59,.36-1.18,.55-1.77,.18-.59,.37-1.18,.45-1.79l.35-1.8c.08-.61,.11-1.22,.17-1.84,.06-.61,.13-1.24,.11-1.8,.02-.59-.03-1.14-.06-1.7-.2-2.22-.85-4.18-2.06-6.21-1.22-2.03-3-4.12-4.94-6.44-1.93-2.3-3.97-4.86-5.65-7.68-1.69-2.82-3.06-5.86-3.99-8.97-1.89-6.23-2.29-12.55-2.06-18.64,.21-3.05,.33-6.1,.82-9.08,.33-3.02,.98-5.95,1.55-8.91,2.6-11.72,6.62-22.94,11.06-33.86,2.2-5.47,4.53-10.87,6.76-16.29,1.11-2.71,2.21-5.41,3.19-8.15,1.01-2.73,1.86-5.48,2.42-8.25,.49-2.78,.47-5.64,.19-8.49-.37-2.85-1.04-5.67-1.92-8.44-1.86-5.51-4.47-10.82-7.76-15.7,3.57,4.69,6.52,9.86,8.74,15.36,1.07,2.77,1.93,5.62,2.49,8.56,.47,2.95,.68,5.98,.33,9.01-.42,3-1.14,5.91-2,8.74-.83,2.85-1.78,5.64-2.73,8.43-1.92,5.57-3.91,11.08-5.77,16.62-3.76,11.06-7.01,22.25-8.81,33.56-.37,2.83-.82,5.65-.96,8.48-.3,2.83-.23,5.64-.26,8.44,.12,5.59,.86,11.1,2.69,16.02,.9,2.47,2.11,4.75,3.57,6.9,1.46,2.16,3.23,4.14,5.22,6.25,1.96,2.1,4.22,4.36,6.23,7.26,.99,1.46,1.89,3.08,2.59,4.8,.72,1.72,1.16,3.54,1.46,5.34,.13,.9,.25,1.8,.28,2.67,.08,.9,.04,1.74,.02,2.59-.03,.85-.03,1.7-.09,2.55l-.33,2.54c-.09,.86-.28,1.68-.47,2.51-.2,.82-.35,1.67-.61,2.46l-.76,2.38c-.25,.8-.58,1.52-.87,2.29-.58,1.55-1.26,2.92-1.91,4.37l-1.98,4.05c-1.32,2.64-2.5,5.13-3.52,7.62-2.01,4.95-3.19,9.88-3.47,15.03-.09,1.28-.03,2.59-.06,3.88-.03,.66,.04,1.26,.07,1.87,.02,.62,.1,1.21,.18,1.81,.3,2.38,.87,4.62,1.73,6.67,1.74,4.14,4.66,7.46,8.89,11.33,2.08,1.98,4.57,4.09,7.07,7.42,1.23,1.67,2.44,3.74,3.21,6.15,.78,2.4,1.04,5.03,.86,7.41l.04-.76c0,2.54-.36,5.27-1.35,7.88-1,2.58-2.48,4.79-3.86,6.5-1.38,1.71-2.66,3-3.39,3.91-.37,.45-.59,.78-.68,.96-.08,.17-.02,.15,.05,.01,.07-.15,.12-.35,.14-.43,.05-.01,0-.08,.03-.05,.05,.04,.05,.06,.06,.12,.13,.28,.54,.97,1.14,1.71,.6,.75,1.4,1.58,2.3,2.39,.45,.4,.93,.8,1.42,1.18,.24,.19,.49,.37,.73,.55,.21,.15,.55,.39,.57,.39,5.44,1.08,8.95,6.28,7.85,11.62-1.1,5.34-6.4,8.79-11.84,7.7-1.5-.3-2.85-.91-3.99-1.74l-3.1-2.29Z"/><path class="bs" d="M1187.93,952.16c-.42-.2-.58-.29-.83-.42l-.66-.36-1.24-.71c-.81-.48-1.59-.97-2.36-1.47-1.54-1-3.03-2.06-4.48-3.18-2.9-2.23-5.64-4.71-8.17-7.52-2.53-2.79-4.82-5.95-6.69-9.45-1.84-3.52-3.28-7.38-3.92-11.44l-.23-1.52c-.06-.51-.09-1.02-.14-1.53-.11-1.02-.1-2.04-.11-3.06,0-.56,.01-.92,.03-1.31l.05-1.18,.09-2.36c.14-3.14,.31-6.3,.52-9.45,.22-3.15,.48-6.31,.78-9.44l.9-9.13c.12-1.46,.23-2.88,.29-4.27,.03-.69,.01-1.32,.02-1.98v-.98l-.05-.97c-.1-2.6-.51-5.15-1.2-7.63-1.35-4.98-3.87-9.7-7.33-14.19-3.43-4.52-7.68-8.77-12.06-13.44-2.18-2.35-4.41-4.81-6.47-7.65-2.04-2.83-3.93-6.09-5.04-9.8-.5-1.87-.88-3.81-.92-5.75l-.03-1.45,.06-1.21,.12-2.41c.25-3.25,.52-6.5,1.48-10.1,.1-.44,.27-.92,.44-1.38,.16-.47,.33-.93,.57-1.43,.41-.95,1.03-1.98,1.67-2.81,.64-.81,1.08-1.33,1.17-1.44,.02-.08,.1-.11,.13-.25,.02-.07,.06-.09,.08-.19l.06-.31c.06-.17,.07-.48,.1-.75l.04-.42v-.27c0-.34-.04-.66-.16-1.02-.25-.71-.85-1.62-1.78-2.61-1.82-1.99-4.51-4.16-6.66-7.15-1.08-1.48-2-3.19-2.61-5-.62-1.81-.89-3.7-.92-5.52-.02-.87,.04-1.91,.19-2.83,.14-.94,.38-1.83,.65-2.69,.55-1.72,1.3-3.26,2.1-4.73,1.61-2.93,3.48-5.53,5.36-8.05,3.77-5.04,7.69-9.77,10.8-14.92,1.53-2.57,2.87-5.23,3.67-8.02,.39-1.39,.7-2.8,.76-4.23,.06-.71,.04-1.5,.06-2.25,.02-.76,.02-1.52,0-2.28-.09-6.1-.65-12.24-1.38-18.35-.74-6.11-1.66-12.22-2.77-18.29,1.53,5.99,2.87,12.02,4.04,18.1,1.16,6.08,2.16,12.2,2.68,18.42,.08,.78,.13,1.56,.16,2.34,.03,.79,.11,1.54,.1,2.37,.04,1.67-.2,3.31-.53,4.92-.69,3.22-1.96,6.22-3.4,9.08-2.93,5.69-6.63,10.82-9.94,15.96-1.65,2.57-3.24,5.14-4.43,7.74-.59,1.29-1.11,2.59-1.4,3.84-.14,.62-.26,1.24-.31,1.83-.05,.6-.05,1.11,.01,1.78,.2,2.54,1.13,4.68,2.76,6.61,1.62,1.98,3.95,3.64,6.53,6.03,1.27,1.2,2.69,2.73,3.68,4.87,.48,1.07,.8,2.27,.92,3.46,.02,.29,.05,.61,.06,.88v.74c-.02,.49,0,.96-.1,1.55l-.11,.84c-.05,.28-.15,.62-.23,.93-.14,.62-.45,1.27-.75,1.89-.69,1.22-1.28,1.88-1.55,2.33-.13,.21-.26,.41-.33,.6-.1,.18-.18,.41-.26,.63-.09,.2-.16,.47-.23,.75-.07,.27-.15,.52-.2,.84-.47,2.42-.57,5.36-.58,8.26l.05,2.22,.02,1.1,.09,.85c.09,1.14,.42,2.23,.78,3.32,1.64,4.34,5.55,8.44,9.97,12.55,4.42,4.12,9.33,8.36,13.8,13.46,4.48,5.05,8.45,11.15,10.83,17.97,1.21,3.39,2.03,6.94,2.43,10.48l.17,1.33,.09,1.33c.05,.88,.12,1.79,.15,2.64,.05,1.69,.04,3.35,.01,4.97l-.27,9.33c-.08,3.03-.12,6.03-.12,9.04,0,3.01,.05,6.03,.13,9.05l.07,2.27,.04,1.13c.01,.38,.02,.79,.05,1,.05,.52,.07,1.05,.18,1.56l.12,.77,.18,.76c.97,4.02,3.47,7.84,7.01,11.25,1.76,1.7,3.77,3.29,5.93,4.72,1.08,.72,2.19,1.39,3.32,2.02,.56,.31,1.13,.61,1.69,.89l.82,.4,.38,.17c.1,.04,.29,.13,.23,.09,5.15,2.36,7.38,8.38,4.97,13.44-2.41,5.06-8.54,7.24-13.69,4.88Z"/><path class="bs" d="M1177.41,964.24c-.43-.13-.62-.2-.91-.29l-.76-.27-1.46-.55c-.96-.37-1.89-.75-2.82-1.14-1.85-.79-3.66-1.62-5.44-2.51-3.56-1.78-7.03-3.75-10.36-5.96-6.65-4.42-12.89-9.79-17.83-16.46-2.46-3.33-4.56-6.98-6.12-10.85-1.57-3.87-2.57-7.97-2.98-12.07-.21-2.05-.27-4.1-.19-6.12,.06-2.05,.3-4.18,.71-6.21,.82-4.09,2.35-7.88,3.94-11.23,1.59-3.37,3.2-6.39,4.18-9.31,.49-1.46,.83-2.89,.98-4.34,.09-.7,.08-1.54,.1-2.3l-.03-1.14c-.02-.38-.07-.74-.1-1.11-.17-1.47-.53-2.86-1.12-4.46-.59-1.6-1.33-3.49-1.78-5.47-.46-1.98-.67-3.98-.69-5.91-.02-.49,.01-.96,.02-1.44,.02-.5,0-.9,.07-1.49,.07-1.11,.34-2.2,.68-3.22,.71-2.05,1.85-3.76,3.03-5.28,1.2-1.52,2.48-2.87,3.76-4.17,2.56-2.59,5.09-5.05,7.28-7.79,2.2-2.72,4.07-5.71,5.35-8.99,1.31-3.26,1.99-6.78,2.23-10.35,.18,3.56-.09,7.2-1.06,10.72-.93,3.53-2.53,6.9-4.5,10-1.96,3.12-4.31,5.97-6.5,8.77-2.17,2.78-4.25,5.64-4.86,8.43-.14,.69-.23,1.37-.18,2.05-.01,.3,.06,.79,.08,1.18,.04,.41,.06,.83,.12,1.23,.2,1.63,.56,3.16,1.08,4.62,.52,1.46,1.25,2.85,2.09,4.53,.84,1.67,1.67,3.68,2.14,5.72,.11,.51,.23,1.02,.32,1.53l.22,1.52c.09,1.02,.21,1.97,.21,3.05,.04,2.12-.22,4.23-.64,6.21-.86,4-2.3,7.5-3.39,10.74-1.12,3.25-1.91,6.28-2.15,9.26-.12,1.5-.11,2.94,.02,4.46,.12,1.54,.34,3.06,.67,4.53,1.28,5.93,4.27,11.23,8.45,15.69,4.17,4.48,9.46,8.15,15.22,11.1,2.88,1.48,5.89,2.78,8.97,3.9,1.54,.56,3.09,1.08,4.64,1.54,.78,.23,1.55,.45,2.32,.65l1.13,.28,.54,.12c.15,.03,.39,.09,.4,.08,5.11-5.37,13.68-5.65,19.14-.64,5.47,5.01,5.76,13.43,.65,18.79-3.65,3.83-9.06,5.07-13.84,3.65l-11.02-3.31Z"/><path class="bs" d="M1224,916.08l-.19,.15-.04,.04-.04,.05s.02,0,.03,0c.02,0,.11-.08,.17-.11,.14-.12,.3-.26,.47-.44,.34-.34,.68-.78,1.01-1.24,.66-.95,1.25-2.07,1.71-3.32,.95-2.46,1.42-5.53,1.47-8.55,.01-3.02-.41-5.51-1.59-8.69-.59-1.61-1.4-3.47-2.17-5.65-.77-2.17-1.44-4.65-1.75-7.15-.11-1.24-.26-2.5-.22-3.71,0-.61-.01-1.2,.03-1.84l.18-1.94c.32-2.56,.99-5.12,1.97-7.34,1.91-4.52,4.45-7.85,6.22-10.86,1.8-3,3.01-5.66,3.34-8.65l.13-1.12v-1.14c.07-.76-.07-1.54-.1-2.32-.22-1.57-.53-3.17-1.09-4.83-1.02-3.31-2.67-6.82-4.13-10.63-1.48-3.8-2.71-8.05-2.97-12.43-.05-1.09-.03-2.2,0-3.27,.1-1.06,.12-2.11,.3-3.16,.26-2.11,.77-4.18,1.37-6.19,.65-2,1.43-3.91,2.26-5.74,.83-1.82,1.69-3.55,2.44-5.26,.75-1.71,1.39-3.4,1.79-5.14,.39-1.72,.68-3.56,.62-5.3-.03-1.75-.31-3.5-.91-5.23-.59-1.73-1.4-3.48-2.2-5.26-.82-1.78-1.57-3.63-2.23-5.5-.6-1.89-1.14-3.81-1.45-5.75-.68-3.88-.79-7.8-.62-11.68,.24,3.87,.74,7.73,1.8,11.41,.5,1.85,1.2,3.63,1.96,5.37,.82,1.73,1.71,3.4,2.7,5.07,.97,1.68,2,3.38,2.86,5.25,.88,1.86,1.46,3.95,1.71,6.06,.5,4.18-.21,8.47-1.49,12.32-.61,1.93-1.31,3.78-1.91,5.56-.6,1.79-1.11,3.54-1.48,5.29-.32,1.75-.57,3.5-.6,5.26-.06,.87,.02,1.77,.02,2.64,.08,.86,.15,1.69,.27,2.53,.57,3.35,1.82,6.56,3.51,9.84,1.67,3.3,3.72,6.67,5.44,10.64,.88,1.95,1.58,4.11,2.13,6.34,.2,1.14,.49,2.27,.56,3.45l.16,1.76v1.78c0,4.8-1.63,9.59-3.47,13.43-1.84,3.88-3.69,7.08-4.47,9.88-.45,1.4-.58,2.68-.61,3.97l.02,.96c.01,.33,.08,.72,.11,1.07,.05,.73,.23,1.4,.35,2.08,.33,1.33,.81,2.58,1.49,4.01,.67,1.43,1.58,3.06,2.55,5.01,.97,1.94,1.92,4.23,2.62,6.58,.74,2.37,1.14,4.81,1.41,7.19,.21,2.37,.31,4.71,.15,7.12-.11,2.4-.49,4.88-1.1,7.35-.61,2.48-1.53,4.97-2.81,7.4-.66,1.22-1.38,2.42-2.26,3.61-.43,.59-.91,1.19-1.43,1.79-.29,.31-.53,.59-.87,.93l-.51,.49-.32,.29-.18,.16-.33,.27c-4.22,3.19-10.27,2.41-13.52-1.74s-2.45-10.09,1.77-13.27Z"/><path class="bs" d="M1243.28,920.91s-.02,.03,.02,.01l.1-.07c.06-.04,.13-.09,.21-.15,.15-.12,.3-.22,.46-.36,.31-.25,.63-.52,.94-.8,.63-.55,1.24-1.14,1.84-1.73,1.18-1.19,2.26-2.45,3.17-3.7,.91-1.25,1.7-2.52,2.19-3.69,.17-.31,.24-.58,.35-.87,.11-.29,.23-.58,.27-.83l.11-.4c.04-.14,.09-.25,.1-.47l.13-1.16c.11-1.53,.07-2.96-.21-4.66-.27-1.69-.84-3.74-1.35-6.03-.51-2.29-.93-4.75-1.08-7.15-.14-2.4-.15-4.78,.05-7.06,.05-1.1,.24-2.4,.42-3.63,.07-.62,.23-1.23,.38-1.84,.15-.61,.29-1.22,.47-1.82,.78-2.38,1.78-4.65,3.05-6.68,1.26-2.03,2.68-3.87,4.15-5.55,1.46-1.67,2.95-3.2,4.25-4.69,1.29-1.49,2.33-2.95,2.58-4.32,.2-1.79-.03-3.78-.44-5.77-.42-1.99-1.04-4-1.65-6.03-.3-1.01-.61-2.03-.85-3.08-.24-1.03-.47-2.1-.37-3.16,.13,1.05,.55,2.01,.99,2.96,.44,.95,.94,1.87,1.44,2.8,1,1.86,2.05,3.72,2.93,5.72,.87,2,1.63,4.14,1.88,6.55,.04,1.39-.19,2.8-.65,3.95l-.33,.89-.38,.8c-.25,.55-.52,1.06-.8,1.55-1.11,1.98-2.24,3.75-3.24,5.52-1,1.75-1.81,3.49-2.45,5.22-.63,1.73-.96,3.47-1.16,5.17-.03,.43-.02,.86-.04,1.29-.01,.43-.05,.85,.01,1.28,.08,.86,.1,1.66,.26,2.65,.23,1.91,.64,3.72,1.11,5.47,.48,1.75,1.14,3.36,1.91,5.07,.77,1.71,1.75,3.57,2.69,5.91,.94,2.32,1.69,5.03,2.08,7.69l.23,1.98c.05,.31,.05,.72,.06,1.1v1.17c.04,.79-.03,1.54-.11,2.28-.08,.75-.14,1.52-.3,2.21-.49,2.92-1.41,5.53-2.47,7.99-1.07,2.46-2.32,4.74-3.69,6.91-.69,1.08-1.41,2.13-2.18,3.17-.38,.52-.78,1.03-1.19,1.55l-.64,.79-.35,.41-.19,.21-.27,.29c-4.19,3.91-10.81,3.75-14.79-.36-3.98-4.11-3.82-10.61,.37-14.52Z"/></g><g id="v"><path class="bs" d="M1393.99,947.74s-38.25-35.72-28.92-44.88c9.33-9.16,35.22,42.59,35.22,42.59l-6.3,2.29Z"/><path class="bs" d="M1403.79,939.5s-49.68-69.38-28.69-74.87c11.43-2.75,33.59,72.81,33.59,72.81l-4.9,2.06Z"/><path class="bs" d="M1410.32,929.2s-20.06-99.6,9.56-103.04c13.3-1.37-10.73,33.39-3.5,100.29l-6.06,2.75Z"/><path class="bs" d="M1419.88,926.22s20.53-40.99,20.53-83.35c0-42.36-3.73-71.9,12.36-71.9,16.09,0,3.97,114.03-27.52,157.31-1.28,0-5.36-2.06-5.36-2.06Z"/><path class="bs" d="M1430.02,930.32s48.2-118.98,60.46-115.15c12.26,3.83-54.89,116.79-54.89,116.79l-5.57-1.64Z"/><path class="bs" d="M1438.66,933.6s39.57-26.07,51.27-60.08c11.7-34.01,11.98-65.19,30.93-62.18,18.95,3.01,1.67,76.04-71.33,126.36l-10.87-4.1Z"/><path class="bs" d="M1452.87,940.72s27.58-9.85,52.1-38.84c24.52-28.99,27.31-45.68,36.22-41.3s-2.14,49.51-81.32,85.34l-7.01-5.2Z"/><path class="bs" d="M1461,950.01s26.42-8.21,36.73-14.5c10.31-6.29,27.86-15.84,22.85-1.49-5.02,14.35-55.17,23.1-55.17,23.1l-4.41-7.11Z"/></g><g id="w"><path class="bs" d="M1566.1,1032.25c.03-.11,.06-.38,.09-.61,.03-.23,.06-.48,.08-.74,.05-.5,.1-1.01,.13-1.54,.08-1.04,.09-2.1,.13-3.16,.01-2.13-.04-4.28-.2-6.44-.31-4.31-.95-8.65-1.99-12.92-1.03-4.27-2.34-8.51-4.11-12.6-1.66-4.15-3.86-8.06-6.19-11.95l-.04-.06c-.42-.7-.18-1.6,.53-2.01,.64-.37,1.44-.22,1.9,.32,3.04,3.56,6.03,7.27,8.5,11.33,2.58,3.99,4.74,8.26,6.62,12.67,1.9,4.41,3.39,8.99,4.54,13.7,.58,2.35,1.05,4.74,1.44,7.16,.16,1.22,.36,2.43,.47,3.68,.07,.62,.12,1.25,.17,1.89,.02,.32,.05,.63,.06,.98,.01,.34,.03,.64,.03,1.1v.87c-.04,3.36-2.84,6.05-6.26,6.01-3.42-.03-6.16-2.78-6.13-6.14,0-.53,.09-1.07,.22-1.55Z"/><path class="bs" d="M1580.04,1034.5c-.4-1.39-.63-2.48-.9-3.69-.24-1.18-.48-2.35-.68-3.53-.41-2.34-.71-4.69-.97-7.04-.48-4.7-.62-9.41-.54-14.11,.3-9.41,1.87-18.81,5.01-27.72,.69-2.26,1.71-4.4,2.65-6.57,.86-2.2,2.13-4.22,3.24-6.29,1.14-2.14,2.29-3.92,3.44-5.86,1.1-1.92,2.25-3.84,3.29-5.79,2.13-3.89,4.14-7.84,5.9-11.88,.88-2.02,1.7-4.05,2.43-6.11,.35-1.03,.69-2.06,1-3.09,.14-.51,.29-1.03,.41-1.54,.13-.49,.24-1.06,.3-1.43l.03-.17c.19-1.06,1.21-1.77,2.29-1.58,1.01,.17,1.71,1.08,1.64,2.07-.06,.75-.14,1.28-.24,1.89-.09,.6-.21,1.16-.32,1.74-.24,1.14-.52,2.27-.81,3.39-.61,2.23-1.3,4.42-2.06,6.59-1.51,4.34-3.27,8.56-5.15,12.72-.92,2.09-1.94,4.13-2.92,6.19-1,2.02-2.13,4.12-2.95,6.04-.86,1.97-1.87,3.85-2.49,5.91-.7,2.02-1.48,4-1.93,6.1-2.21,8.23-2.98,16.81-2.6,25.32,.25,4.26,.7,8.5,1.46,12.69,.4,2.09,.83,4.17,1.35,6.21,.26,1.02,.54,2.03,.83,3.03,.29,.96,.63,2.05,.91,2.8,1.17,3.1-.43,6.55-3.59,7.7-3.16,1.15-6.67-.43-7.85-3.53-.06-.15-.11-.32-.16-.47Z"/><path class="bs" d="M1600.69,1041.43c0-1.4-.04-3.03-.11-4.58-.05-1.56-.15-3.14-.24-4.72-.08-1.58-.21-3.16-.34-4.74-.13-1.58-.24-3.17-.41-4.75-.32-3.17-.63-6.34-1.06-9.51l-.6-4.75-.71-4.74c-1.92-12.65-4.41-25.25-7.46-37.74-.75-3.13-1.62-6.22-2.42-9.34l-1.23-4.67-1.36-4.63-2.74-9.27-3.02-9.18-1.52-4.59c-.49-1.54-1.09-3.03-1.64-4.55l-3.34-9.09-.83-2.27-.91-2.25-1.82-4.49-3.65-8.99-.03-.06c-.41-1,.09-2.14,1.11-2.54,.99-.39,2.1,.06,2.54,1l4.15,8.86,2.08,4.43,1.04,2.22,.96,2.25,3.85,9c.63,1.51,1.31,2.99,1.9,4.52l1.78,4.56,3.55,9.13,3.27,9.24,1.63,4.63,1.49,4.67c.98,3.12,2.03,6.22,2.96,9.35,3.76,12.53,6.98,25.23,9.63,38.08l.99,4.82,.87,4.85c.61,3.23,1.1,6.48,1.61,9.74,.27,1.62,.47,3.26,.69,4.9,.22,1.64,.44,3.27,.61,4.92,.18,1.65,.38,3.29,.52,4.96,.16,1.68,.29,3.28,.39,5.12,.18,3.3-2.41,6.12-5.77,6.29-3.36,.17-6.24-2.36-6.41-5.66,0-.1,0-.19,0-.29v-.13Z"/><path class="bs" d="M1591.45,1047.34l.15-.7,.14-.6,.29-1.16c.2-.77,.42-1.48,.63-2.23,.41-1.49,.93-2.89,1.39-4.33,.46-1.44,1.04-2.81,1.56-4.21,.51-1.41,1.09-2.77,1.69-4.13,.6-1.36,1.15-2.74,1.78-4.07l1.93-3.99,.97-1.99c.33-.66,.7-1.3,1.04-1.95l2.1-3.88c5.73-10.27,12.43-19.91,19.65-29.07l5.57-6.75c.9-1.14,1.91-2.2,2.89-3.28l2.95-3.23c3.83-4.38,8.07-8.39,12.18-12.49,2.02-2.09,4.24-3.98,6.39-5.92l6.49-5.81c4.45-3.72,9.01-7.32,13.5-10.98,.78-.64,1.95-.53,2.59,.24,.62,.74,.55,1.82-.15,2.47l-.08,.07c-4.21,3.88-8.48,7.7-12.63,11.62l-6.02,6.09c-2,2.04-4.05,4.01-5.9,6.18-3.78,4.25-7.66,8.41-11.13,12.9l-2.67,3.31c-.89,1.1-1.8,2.19-2.6,3.35l-4.98,6.85c-6.42,9.27-12.27,18.89-17.08,28.93l-1.76,3.78c-.29,.63-.6,1.25-.87,1.89l-.79,1.92-1.57,3.84c-.51,1.28-.94,2.59-1.41,3.88-.47,1.29-.93,2.58-1.32,3.89-.39,1.3-.85,2.6-1.18,3.9-.33,1.3-.73,2.61-.99,3.89-.14,.64-.3,1.3-.42,1.92-.1,.59-.26,1.33-.3,1.72-.37,3.29-3.38,5.67-6.73,5.31-3.35-.36-5.77-3.32-5.41-6.61,.02-.18,.05-.36,.09-.54v-.04Z"/><path class="bs" d="M1621.75,943.99c0,8.61-.42,17.12-1.1,25.67-.69,8.54-1.71,17.08-3.16,25.59-1.48,8.51-3.38,17.01-6.14,25.41-1.36,4.2-3.01,8.37-4.97,12.48-1.97,4.1-4.28,8.15-7.24,11.98v.02c-2.05,2.64-5.88,3.15-8.56,1.15-2.68-2-3.21-5.76-1.17-8.39,.1-.13,.21-.26,.31-.37,2.51-2.76,4.74-5.99,6.74-9.42,1.99-3.44,3.79-7.08,5.36-10.86,3.17-7.55,5.65-15.52,7.74-23.61,2.06-8.11,3.73-16.36,5.08-24.67,1.34-8.31,2.43-16.72,3.11-25.08v-.04c.09-1.08,1.05-1.89,2.16-1.8,1.05,.08,1.84,.95,1.84,1.96Z"/><path class="bs" d="M1567.71,940.96c.22,4.58,.84,9.31,1.64,13.91,.83,4.62,1.86,9.19,3.17,13.68,1.3,4.49,2.85,8.89,4.63,13.18,1.79,4.29,3.85,8.4,6.17,12.5,4.6,8.19,9.9,16.13,14.8,24.64,2.43,4.28,4.8,8.69,6.67,13.6,.93,2.46,1.74,5.04,2.26,7.82,.51,2.78,.73,5.79,.32,8.93l-.02,.13c-.43,3.28-3.49,5.6-6.84,5.18s-5.71-3.43-5.27-6.71c.02-.16,.05-.34,.09-.5,.69-3.16,.14-7.24-1.11-11.35-1.23-4.13-3.08-8.35-5.09-12.54-4.05-8.41-8.82-16.81-12.98-25.65-2.09-4.4-4-9.01-5.56-13.68-1.55-4.67-2.83-9.4-3.84-14.17-1.02-4.77-1.74-9.59-2.25-14.41-.48-4.85-.76-9.63-.64-14.59,.03-1.04,.91-1.86,1.97-1.84,1.01,.02,1.82,.81,1.87,1.79v.09Z"/></g><g id="x"><path class="bs" d="M1755.49,981.23c-.71-.52-1.02-.84-1.49-1.24-.44-.38-.79-.75-1.19-1.13-.79-.75-1.47-1.52-2.19-2.27-.73-.75-1.35-1.55-2.01-2.33l-.97-1.17-.91-1.2c-.6-.81-1.22-1.59-1.78-2.41l-1.63-2.49-.82-1.24-.74-1.28-1.46-2.56c-3.74-6.88-6.35-14.17-8.15-21.54l-.64-2.77c-.22-.92-.44-1.84-.55-2.78l-.88-5.58c-.07-.46-.16-.93-.21-1.39l-.11-1.4-.22-2.8-.21-2.8-.11-1.4-.02-1.4-.03-5.58c0-.93-.03-1.86,0-2.79l.2-2.78c.27-3.7,.5-7.42,.88-10.96l.49-5.38c.15-1.8,.24-3.59,.36-5.39,.11-1.8,.22-3.6,.31-5.4l.18-5.4c.18-7.21,.09-14.41-.18-21.61-.32-7.2-.94-14.38-1.75-21.52-.11-.89-.19-1.79-.33-2.68-.16-.89-.6-1.74-1.15-2.57-.54-.84-1.06-1.67-1.4-2.52l-.99-2.56-3.81-9.85c-1.41-3.64,.46-7.72,4.17-9.1,3.71-1.38,7.86,.45,9.27,4.09,.21,.54,.35,1.09,.42,1.63l.02,.21c.14,1.12,.16,2.02,.2,3,.06,.96,.03,1.92,.03,2.87,0,1.91-.08,3.8-.2,5.69l-.22,2.83c-.07,.94-.39,1.91-.7,2.87-.32,.96-.54,1.91-.47,2.82l.26,2.73c.69,7.28,1.19,14.57,1.38,21.86,.16,3.65,.22,7.29,.29,10.94,0,3.65,.06,7.3-.05,10.94l-.06,5.47-.17,5.47c-.06,1.82-.09,3.65-.17,5.47l-.28,5.47c-.21,3.69-.24,7.21-.31,10.75l-.05,2.66c0,.88,.09,1.77,.13,2.65l.3,5.29c.03,.44,.04,.88,.08,1.32l.19,1.31,.39,2.61,.38,2.6,.19,1.3c.07,.43,.19,.85,.28,1.28l1.19,5.1c.18,.85,.46,1.68,.74,2.5l.82,2.47c2.23,6.56,5.3,12.81,9.31,18.28,2.03,2.71,4.17,5.33,6.61,7.57l.89,.86,.94,.79c.63,.51,1.24,1.08,1.89,1.53,.64,.47,1.28,.98,1.93,1.36,.32,.19,.65,.44,.95,.59,.27,.14,.68,.4,.74,.38,4.76-1.65,9.99,.8,11.67,5.48,1.68,4.68-.82,9.81-5.58,11.46-2.97,1.03-6.13,.46-8.49-1.25l-5.41-3.99Z"/><path class="bs" d="M1786.29,934.63l-3.5-14.39c-1.13-4.77-2.22-9.55-3.19-14.38-.92-4.85-1.86-9.69-2.16-14.82l-.1-1.93c0-.69,.02-1.49,.09-2.19,.1-.68,.17-1.39,.3-2.04,.14-.64,.26-1.3,.42-1.93,.62-2.52,1.47-4.86,2.34-7.18,1.76-4.62,3.81-9.04,5.84-13.44l6.23-13.12,3.13-6.54,.79-1.63c.27-.54,.55-1.08,.61-1.72,.16-1.27-.41-2.91-.4-4.27-.01-.69,.16-1.28,.31-1.88,.15-.61,.31-1.21,.48-1.8,.33-1.2,.7-2.37,1.11-3.54,.82-2.33,1.72-4.58,3-6.74,1.97-3.34,6.33-4.48,9.73-2.55,3.32,1.89,4.51,6.01,2.74,9.31l-.03,.06c-1.1,2.03-2.51,4.01-3.99,5.9-.74,.95-1.52,1.89-2.32,2.82-.4,.46-.8,.93-1.22,1.38-.41,.46-.8,.93-1.37,1.31-1.12,.77-2.8,1.26-3.74,2.13-.5,.42-.76,.96-1.04,1.49l-.85,1.58c-1.12,2.12-2.27,4.22-3.32,6.38-2.14,4.28-4.16,8.63-5.92,13.06-1.8,4.41-3.37,8.92-4.6,13.43-.6,2.25-1.14,4.52-1.44,6.71-.08,.55-.12,1.08-.18,1.62-.05,.53-.04,1.03-.06,1.54,.02,.5,.05,.9,.1,1.4l.26,1.65c.36,2.2,.94,4.44,1.54,6.67,.3,1.12,.66,2.23,.99,3.35,.35,1.11,.75,2.22,1.13,3.33,1.54,4.44,3.33,8.83,5.27,13.16,1.92,4.32,4.05,8.66,6.33,12.71v.02c1.93,3.41,.67,7.71-2.81,9.59-3.48,1.88-7.85,.64-9.77-2.77-.31-.56-.55-1.18-.7-1.77Z"/><path class="bs" d="M1779.01,889.71c-1.05-2.14-1.87-4.18-2.71-6.29-.82-2.09-1.56-4.21-2.25-6.34-1.4-4.25-2.52-8.58-3.44-12.94-.88-4.37-1.56-8.78-1.95-13.23-.37-4.44-.47-8.91-.32-13.38,.15-4.47,.69-8.92,1.41-13.35l.63-3.31c.22-1.1,.52-2.18,.77-3.28,.47-2.2,1.2-4.34,1.8-6.51l.56-1.6c.18-.53,.42-1.05,.37-1.67-.01-.61-.27-1.32-.53-2.05-.24-.71-.47-1.44-.51-2.08,.21-2.44,1.04-4.65,1.81-6.89,1.58-4.47,3.78-8.72,6.67-12.47,2.37-3.08,6.84-3.68,9.97-1.35,2.84,2.11,3.61,5.9,1.97,8.89l-.24,.44c-1,1.82-2.26,3.46-3.46,5.15-1.17,1.7-2.52,3.32-3.72,5.03l-1.93,2.53-.94,1.29c-.32,.43-.58,.88-1.11,1.23-1.01,.71-2.78,1.14-3.61,1.98-.45,.4-.62,.92-.84,1.41l-.64,1.49c-1.55,4.04-2.94,8.15-3.88,12.39-.96,4.23-1.64,8.53-1.95,12.87-.3,4.34-.28,8.7,.06,13.05,.1,1.08,.18,2.17,.3,3.25l.41,3.24,.56,3.22,.67,3.2c.93,4.26,2.21,8.45,3.76,12.52,.75,2.05,1.65,4.04,2.56,6.01,.92,1.95,1.96,3.92,3.07,5.66l.03,.05c.57,.89,.29,2.06-.61,2.61-.9,.55-2.1,.28-2.66-.6-.04-.06-.07-.12-.1-.18Z"/><path class="bs" d="M1753.1,961.3c.03-.09,.05-.14,.08-.26l.1-.39c.07-.26,.14-.52,.2-.81,.12-.57,.27-1.12,.38-1.71,.22-1.17,.44-2.35,.61-3.55,.2-1.19,.33-2.41,.47-3.63,.16-1.21,.23-2.44,.31-3.67,.1-1.23,.14-2.46,.16-3.69,.03-1.23,.08-2.47,.03-3.7l-.09-3.71-.28-3.7c-.07-1.24-.27-2.46-.43-3.69-.18-1.22-.3-2.47-.54-3.68l-.73-3.65c-.13-.61-.22-1.23-.38-1.83l-.48-1.8-.96-3.61c-.36-1.19-.79-2.36-1.18-3.54-.43-1.17-.77-2.38-1.28-3.52l-1.49-3.44c-2.01-4.58-4.47-8.96-7.25-13.25l-1.01-1.62-1.12-1.58-2.24-3.17c-1.47-2.12-3.12-4.17-4.72-6.23-6.46-8.24-13.34-16.3-20.34-24.3-14.07-15.92-28.18-31.99-41.37-48.81l-4.85-6.39c-1.61-2.14-3.26-4.24-4.77-6.45l-4.62-6.56-1.15-1.64c-.38-.55-.69-1.15-1.12-1.66-.45-.51-1.05-.91-1.84-1.21-.76-.31-1.7-.51-2.59-.75-4.05-.65-5.03-3.27-6.79-5.4-1.59-2.24-3.08-4.54-4.51-6.88-.68-1.19-1.42-2.34-2.01-3.59-.6-1.24-1.17-2.49-1.69-3.77-1.06-2.54-2.03-5.13-2.67-7.84-.9-3.84,1.55-7.68,5.46-8.56,2.69-.61,5.38,.34,7.09,2.24l.35,.4c1.79,1.99,3.23,4.12,4.6,6.29,.68,1.08,1.32,2.18,1.94,3.3l1.95,3.3c1.25,2.23,2.44,4.5,3.52,6.83,.53,1.17,1.13,2.32,1.71,3.48,.63,1.13,.5,2.72,.09,4.52-.17,.87-.38,1.78-.42,2.58-.06,.81,.06,1.52,.34,2.12,.64,1.15,1.44,2.2,2.2,3.27l4.62,6.41c1.5,2.16,3.16,4.22,4.77,6.31,1.62,2.08,3.21,4.19,4.86,6.24,13.28,16.45,27.85,31.85,42.46,47.36,7.32,7.73,14.72,15.46,21.77,23.63,1.76,2.05,3.55,4.06,5.22,6.22l2.57,3.18,1.28,1.59,1.21,1.68c3.29,4.41,6.37,9.11,8.95,14.07,5.16,9.9,9.02,20.57,10.94,31.62l.73,4.15,.53,4.18c.2,1.39,.28,2.8,.4,4.2,.12,1.4,.22,2.81,.25,4.22,.11,2.82,.16,5.65,.05,8.51-.03,1.42-.13,2.87-.23,4.31-.05,.72-.13,1.47-.2,2.2-.03,.36-.08,.76-.13,1.14l-.07,.58-.11,.71v.08c-.73,4.55-5.07,7.67-9.71,6.96-4.64-.71-7.81-4.97-7.09-9.52,.06-.36,.15-.75,.25-1.09Z"/><path class="bs" d="M1694.48,740.6c.4,.98,.73,2,1.02,3.03l.21,.77,.14,.69,.24,1.37c.14,.92,.27,1.85,.35,2.76,.06,.89,.1,1.78,.12,2.67,.07,1.79,0,3.55-.15,5.3-.07,.88-.17,1.75-.25,2.63-.11,.88-.24,1.74-.38,2.61-.17,.87-.89,1.76-1.87,2.64-.46,.44-.96,.89-1.37,1.32-.4,.44-.71,.87-.89,1.3-.19,.43-.19,.86-.2,1.29l-.04,1.28-.08,2.56-.3,10.24c-.17,6.82-.3,13.63-.28,20.45,0,3.41,.05,6.82,.13,10.23,.06,3.41,.2,6.82,.42,10.24,.07,1.12-.8,2.08-1.93,2.15s-2.12-.78-2.19-1.9c0-.11,0-.24,0-.35,.39-3.38,.66-6.79,.85-10.18,.2-3.4,.36-6.8,.43-10.2,.16-6.8,.13-13.61-.1-20.41-.04-1.7-.13-3.4-.21-5.1-.08-1.7-.15-3.4-.28-5.09l-.17-2.54-.09-1.27c-.02-.42-.04-.85-.25-1.27-.19-.42-.53-.84-.96-1.25-.43-.41-.96-.82-1.45-1.23-1.03-.81-1.81-1.63-2.03-2.46-.38-1.67-.75-3.32-1.05-4.97-.14-.83-.3-1.65-.4-2.47-.14-.81-.26-1.62-.36-2.43-.11-.81-.19-1.62-.25-2.43-.08-.78-.16-1.54-.21-2.32l-.05-1.16v-.58c-.02-.16-.03-.32-.03-.48-.03-.64,0-1.31,.07-2l.19-1.65c.44-3.81,3.95-6.55,7.84-6.12,2.69,.3,4.85,2.05,5.79,4.35Z"/><path class="bs" d="M1742.03,997.25l-.52-.34-.4-.29-.75-.55c-.49-.37-.91-.73-1.37-1.09-.92-.72-1.7-1.48-2.55-2.23-1.61-1.52-3.16-3.07-4.59-4.7-1.5-1.57-2.8-3.28-4.14-4.95-1.31-1.69-2.48-3.47-3.71-5.19l-3.28-5.42-2.89-5.59c-.86-1.9-1.66-3.83-2.48-5.74-.2-.48-.42-.95-.6-1.44l-.52-1.47-1.03-2.93-1.01-2.93-.8-2.98-.8-2.98c-.25-.99-.57-1.97-.73-2.98-.73-4.02-1.66-8.01-2.02-12.06-.23-2.02-.5-4.03-.7-6.04l-.28-6.06-.26-5.92-.11-2.82c-.03-.94-.16-1.87-.25-2.8-1.41-14.96-7.36-29.46-16.91-41.45-2.37-3.01-4.96-5.86-7.69-8.58-2.74-2.71-5.61-5.32-8.72-7.64-1.63-1.08-3.87-1.31-5.76-1.93-.94-.32-1.82-.72-2.71-1.1l-2.68-1.09c-1.79-.69-3.56-1.39-5.33-2.02l-2.62-.93-1.29-.43c-.4-.12-.88-.3-1.13-.35-3.89-.85-6.33-4.63-5.47-8.45,.87-3.81,4.72-6.22,8.61-5.37,.56,.12,1.1,.31,1.6,.55l.7,.34c.68,.33,1.1,.56,1.61,.85l1.41,.85c.93,.56,1.83,1.16,2.71,1.77,1.76,1.22,3.43,2.53,5.06,3.87,.81,.68,1.6,1.37,2.38,2.08,.76,.73,1.58,1.38,2.26,2.2,1.39,1.62,2.37,3.72,3.9,5.05,6.48,4.91,12.53,10.43,17.8,16.67,10.51,12.46,17.81,27.88,20.03,44.17,.13,1.02,.34,2.03,.42,3.05l.28,3.06,.57,5.83,.56,5.69c.29,1.88,.64,3.75,.96,5.62,.51,3.77,1.62,7.4,2.52,11.06,.2,.92,.56,1.8,.85,2.69l.9,2.67,.9,2.67,1.09,2.59c2.79,6.94,6.51,13.45,10.99,19.26,1.19,1.4,2.3,2.85,3.52,4.2,1.25,1.32,2.45,2.68,3.79,3.88,1.28,1.27,2.68,2.38,4.05,3.47,.7,.5,1.39,1.08,2.09,1.51,.34,.22,.7,.48,1.03,.68l.48,.29c.07,.04,.18,.11,.22,.13l.11,.05c3.56,1.67,5.07,5.86,3.37,9.36-1.7,3.5-5.97,4.98-9.54,3.31-.3-.14-.59-.3-.86-.48l-.29-.19Z"/><path class="bs" d="M1644.74,870.1c2.88-8.43,8.72-6.35,7.73-6.52,1.56,.21,1.52,.32,1.71,.36,.2,.07,.42,.15,.6,.23l.21,.1c.33,.16,.37,.19,.52,.28l.24,.15,.16,.11,.45,.32c.25,.19,.45,.34,.64,.51l1.08,.94c.69,.62,1.36,1.22,2,1.85,1.29,1.24,2.53,2.52,3.74,3.8,1.21,1.3,2.4,2.6,3.55,3.93,.57,.67,1.17,1.32,1.72,2.01,.55,.7,1.02,1.48,1.47,2.28,1.58,3.45,4.52,5.33,6.94,7.82,2.51,2.38,4.96,4.82,7.44,7.22,4.92,4.85,9.76,9.77,14.52,14.77,4.76,5,9.43,10.09,14.07,15.22,.87,.96,.78,2.42-.2,3.27s-2.47,.77-3.34-.19c-.04-.05-.09-.1-.13-.15-4.12-5.41-8.6-10.56-13.29-15.52-4.69-4.96-9.6-9.72-14.67-14.31-2.52-2.31-5.13-4.52-7.74-6.74l-3.94-3.28c-.65-.55-1.36-1.05-2.15-1.44-.79-.4-1.65-.71-2.51-1.02-.85-.32-1.7-.64-2.47-1.05-.77-.41-1.5-.86-2.25-1.29l-4.46-2.57-4.39-2.55-2.14-1.24-1.01-.56-.42-.22c-.06-.03-.1-.04-.1-.03l.03,.02,.1,.07c.1,.06,.09,.06,.38,.2l.17,.08c.17,.07,.37,.15,.56,.22,.18,.03,.12,.14,1.67,.35-1.01-.17,4.83,1.91,7.7-6.51-.25,3.85-3.64,6.78-7.57,6.53-3.93-.25-6.9-3.58-6.65-7.43Z"/></g></g><path id="y" class="bs" d="M1.42,340.33L0,1082.54H1920v-282.8c-9.34,.97-39.71,9.48-46.58,17.67-51.12,56.33-119.46,99.92-161.74,163.96-17.39,24.42-48.85,1.55-83.55,26.01-14.93,10.05-31.85,23.3-51.07,19.62-63.2-2.46-54.61-31.08-90.17-67.78-91.81-85.43-166.62,3.96-259.8-43.81-12.64-6.21-27.22-7.44-40.75-3.45-61.94,18.84-134.74,34.92-187.13,72.89-25.18,20.05-60.9,12.75-89.8,6.66-55.83-10.81-107.78,20.63-162.47,26.39-205.02,23.46-422.42-95.82-533.3-247.4-10.61-21.19-13.73-33.06-5.12-56.25,8.55-30.14,4.54-71.38-.11-100.03-.99-54.16-47.69-25.82-81.32-46.07-37.45-14.71,33.33-76.52-26.15-147.77l-43.1-42.31c-15.34-15.5-38.32-26.66-56.43-37.73Z"/><g id="a`"><path id="aa" class="cf" d="M661.1,557.58c-10.37-19.57-24.82-37.98-49.32-25.33-28.06,16.06-73.05,34.03-47.83,73.54,5.51,7.56,15.94,9.82,24.19,5.25l68.93-38.23c5.49-3.04,7.32-9.95,4.03-15.23Z"/><path id="ab" class="ce" d="M680.31,529.4c75.56,4.22,221.59-28.65,223.79,86.51,0,17.66-14.58,31.98-32.58,31.98h-113.8c-8.97,0-16.59-5.69-19.31-13.59-1.24-3.59-4.78-5.89-8.64-5.65-79.9,4.95-108.6-94.07-49.46-99.25Z"/><path id="ac" class="cb" d="M678.06,540.86l-23.79-48.56c-13.57-36.83-89-31.17-69.4,14.35,15.03,33.51,48.13,58.08,86.4,46.25,5.69-.94,9.42-6.75,6.79-12.04Z"/><path id="ad" class="cb" d="M687.82,653.95l31.21-30.55c10.05-15.28-32.57-26.52-46.34-8.2l-8.08,8.37c-16.34,15.07,3.98,46.86,23.21,30.37Z"/><path id="ae" class="cf" d="M753.18,524.61c-11.55-61.09,79.86-47.44,84.99-1.17,.58,3.84-2.51,7.27-6.46,7.27h-72.31c-3.43,0-6.22-2.73-6.22-6.1Z"/><path id="af" class="ce" d="M893.9,638.77c7.26-9.27,60.09-42.77,45.76-55.35-8.32-8.17-22.7-1.4-30.25,.78l-42.04,12.16c-6,1.73-8.42,8.78-4.73,13.73l20.56,27.57c2.53,3.4,7.5,3.92,10.7,1.11Z"/><path id="ag" class="cb" d="M755.86,601.45c-58.15,7.72-74.54-75.33-13.5-80.35,47.97,.72,153.38-2.87,199.5,5.63,31.67,4.17,27.49,46.85,4.57,60.05-83.12,52.3-52.94,52.92-153.85,51.23-16.18,0-29.29-12.87-29.29-28.75,.27-4.2-3.12-7.83-7.43-7.81Z"/><path id="ah" class="bl" d="M903.93,592.17c-16-5.91-25.94-16.76-27.16-32.38"/><path id="ai" class="bl" d="M823.77,610.04c-13.05-20.97-14.87-41.44-2.59-58.76"/><path id="aj" class="bl" d="M809.01,610.04c-13.05-20.97-14.87-41.44-2.59-58.76"/><path id="ak" class="ce" d="M867.35,586.14h-35.39c-16.22,0-29.36,12.91-29.36,28.82h0c0,10.48,8.65,18.97,19.32,18.97h9.79c23.29,0,42.16-18.53,42.16-41.39h0c0-3.54-2.92-6.41-6.53-6.41Z"/><g id="al"><path class="cg" d="M912.87,575.46c-8.63,0-15.66-6.93-15.66-15.44s7.02-15.44,15.66-15.44,15.66,6.93,15.66,15.44-7.02,15.44-15.66,15.44Z"/><path class="ca" d="M912.87,548.22c6.64,0,12.01,5.28,12.01,11.79s-5.38,11.79-12.01,11.79-12.01-5.28-12.01-11.79,5.38-11.79,12.01-11.79m0-7.29c-10.64,0-19.3,8.56-19.3,19.08s8.66,19.08,19.3,19.08,19.3-8.56,19.3-19.08-8.66-19.08-19.3-19.08h0Z"/></g></g><g id="am"><path id="an" class="cc" d="M1228.63,520.8s61.66-36.89,98.3-23.18c7.63,2.85,11.24,11.68,7.19,18.64-15.22,26.19-98.65,33.23-98.65,33.23l-6.84-28.69Z"/><path id="ao" class="cc" d="M1225.83,612.97h65.6s2.8,21.67-20.52,21.67-45.08-21.67-45.08-21.67Z"/><path id="ap" class="cc" d="M1366.35,598.01s9.24,17.55-15.77,17.55c-26.45,0-32.42-17.55-32.42-17.55h48.19Z"/><path id="aq" class="cg" d="M1420.5,548.15c-21.01,0-105.46-36.68-168.49-36.68-49.8,0-99.19,21.18-117.9,31.99-3.99,2.31-4.7,7.68-1.43,10.9l14.68,14.41-14.68,14.41c-3.28,3.22-2.57,8.59,1.43,10.9,18.72,10.81,68.1,31.99,117.9,31.99,63.03,0,147.48-36.68,168.49-36.68,26.89,0,46.55,0,46.55-20.62s-19.65-20.62-46.55-20.62Z"/><path id="ar" class="cc" d="M1478.28,568.78c0-30.22,15.93-37.88,19.83-46.89,3.75-8.65-4.27-15.27-12.84-10.42-16.06,9.1-45.21,36.68-62.14,36.68,4.9,4.81,8.43,13.39,8.43,20.62s-3.53,15.81-8.43,20.62c16.93,0,46.09,27.58,62.14,36.68,8.57,4.86,16.59-1.76,12.84-10.42-3.9-9.01-19.83-16.67-19.83-46.89Z"/><line id="as" class="bp" x1="1132.73" y1="586.27" x2="1152.54" y2="572.62"/><path id="at" class="bp" d="M1133.99,550.75c12.02,8.46,15.51,12.08,24.05,24.15"/><path id="au" class="bp" d="M1206.4,532.59c13.06,21.14,10.62,44.08-6.13,68.36"/><path id="av" class="cc" d="M1212.77,590.17l36.1,12.36c6.04,2.07,12.35-2.33,12.35-8.61v-43.85c0-5.9-5.63-10.25-11.47-8.86l-31.77,7.54c-1.82,.43-3.19,1.91-3.46,3.73l-4.77,32.8c-.31,2.13,.96,4.17,3.03,4.88Z"/><ellipse id="aw" class="bh" cx="1178.55" cy="549.49" rx="10.48" ry="10.28"/></g><g id="ax"><path id="ay" class="cg" d="M1069.3,451.22c-.85,.95-1.27,2.21-1.15,3.47,.54,5.72,2.72,21.67,10.26,21.67,9.19,0,35.29-29.65,32.17-36.9-2.5-5.82-17.3-6.19-23.06-6.12-1.44,.02-2.81,.64-3.76,1.71l-14.46,16.16Z"/><path id="b`" class="cg" d="M984.39,404.45s-22.41,4.95-26.19-12.85c-3.13-14.73,4.77-14.73,18.29-7.61,12.76,6.71,7.91,20.46,7.91,20.46Z"/><path id="ba" class="cg" d="M1094.78,404.45s22.41,4.95,26.19-12.85c3.13-14.73-4.77-14.73-18.29-7.61-12.76,6.71-7.91,20.46-7.91,20.46Z"/><ellipse id="bb" class="cc" cx="1039.59" cy="404.02" rx="60.64" ry="59.53"/><g id="bc"><line class="br" x1="1014.38" y1="356.58" x2="1009.55" y2="346.98"/><line class="br" x1="1030.6" y1="351.19" x2="1027.73" y2="342.09"/><line class="br" x1="999.9" y1="365.82" x2="992.56" y2="358.78"/><line class="br" x1="1029.33" y1="374.52" x2="1034.36" y2="381.98"/><line class="br" x1="1049.6" y1="374.52" x2="1044.57" y2="381.98"/><line class="br" x1="1006.55" y1="419.08" x2="999.9" y2="426.33"/><line class="br" x1="986.96" y1="424.07" x2="978.94" y2="429.9"/><line class="br" x1="1022.88" y1="448.4" x2="1027.97" y2="441.46"/><line class="br" x1="991.2" y1="447.66" x2="997.92" y2="440.03"/><line class="br" x1="1010.9" y1="450.59" x2="1006.55" y2="459.12"/><line class="br" x1="974.84" y1="413.85" x2="983.32" y2="410.47"/><line class="br" x1="1028.1" y1="459.12" x2="1026.24" y2="465.91"/><line class="br" x1="1072.46" y1="419.08" x2="1079.11" y2="426.33"/><line class="br" x1="1092.06" y1="424.07" x2="1100.07" y2="429.9"/><line class="br" x1="1056.13" y1="448.4" x2="1051.04" y2="441.46"/><line class="br" x1="1087.81" y1="447.66" x2="1081.09" y2="440.03"/><line class="br" x1="1068.11" y1="450.59" x2="1072.46" y2="459.12"/><line class="br" x1="1104.17" y1="413.85" x2="1095.69" y2="410.47"/><line class="br" x1="1050.91" y1="459.12" x2="1052.77" y2="465.91"/><line class="br" x1="1063.3" y1="356.58" x2="1068.13" y2="346.98"/><line class="br" x1="1047.08" y1="351.19" x2="1049.95" y2="342.09"/><line class="br" x1="1077.78" y1="365.82" x2="1085.13" y2="358.78"/></g><g id="bd"><path class="cg" d="M1033.12,412.63c-5.98,0-10.84-4.86-10.84-10.84s4.86-10.84,10.84-10.84h13.45c5.98,0,10.84,4.86,10.84,10.84s-4.86,10.84-10.84,10.84h-13.45Z"/><path class="cf" d="M1046.57,394.1c4.25,0,7.69,3.44,7.69,7.69h0c0,4.25-3.44,7.69-7.69,7.69h-13.45c-4.25,0-7.69-3.44-7.69-7.69h0c0-4.25,3.44-7.69,7.69-7.69h13.45m0-6.29h-13.45c-7.71,0-13.98,6.27-13.98,13.98s6.27,13.98,13.98,13.98h13.45c7.71,0,13.98-6.27,13.98-13.98s-6.27-13.98-13.98-13.98h0Z"/></g><g id="be"><ellipse class="cg" cx="1006.55" cy="388.11" rx="13.04" ry="12.88"/><path class="bv" d="M1006.55,379.64c4.77,0,8.63,3.79,8.63,8.47s-3.86,8.47-8.63,8.47-8.63-3.79-8.63-8.47,3.86-8.47,8.63-8.47m0-8.81c-9.62,0-17.44,7.75-17.44,17.28s7.82,17.28,17.44,17.28,17.44-7.75,17.44-17.28-7.82-17.28-17.44-17.28h0Z"/><path class="cf" d="M1006.55,379.64c4.77,0,8.63,3.79,8.63,8.47s-3.86,8.47-8.63,8.47-8.63-3.79-8.63-8.47,3.86-8.47,8.63-8.47m0-2.52c-6.15,0-11.15,4.93-11.15,10.99s5,10.99,11.15,10.99,11.15-4.93,11.15-10.99-5-10.99-11.15-10.99h0Z"/></g><g id="bf"><ellipse class="cg" cx="1072.62" cy="388.11" rx="13.04" ry="12.88"/><path class="bv" d="M1072.62,379.64c4.77,0,8.63,3.79,8.63,8.47s-3.86,8.47-8.63,8.47-8.63-3.79-8.63-8.47,3.86-8.47,8.63-8.47m0-8.81c-9.62,0-17.44,7.75-17.44,17.28s7.82,17.28,17.44,17.28,17.44-7.75,17.44-17.28-7.82-17.28-17.44-17.28h0Z"/><path class="cf" d="M1072.62,379.64c4.77,0,8.63,3.79,8.63,8.47s-3.86,8.47-8.63,8.47-8.63-3.79-8.63-8.47,3.86-8.47,8.63-8.47m0-2.52c-6.15,0-11.15,4.93-11.15,10.99s5,10.99,11.15,10.99,11.15-4.93,11.15-10.99-5-10.99-11.15-10.99h0Z"/></g></g><g id="bg"><path class="bu" d="M1527.21,146.6c7.73,0,14.02,6.09,14.02,13.58s-6.29,13.58-14.02,13.58-14.02-6.09-14.02-13.58,6.29-13.58,14.02-13.58m0-10c-13.27,0-24.02,10.56-24.02,23.58s10.75,23.58,24.02,23.58,24.02-10.56,24.02-23.58-10.75-23.58-24.02-23.58h0Z"/><path class="bu" d="M749.47,186.35c7.73,0,14.02,6.09,14.02,13.58s-6.29,13.58-14.02,13.58-14.02-6.09-14.02-13.58,6.29-13.58,14.02-13.58m0-10c-13.27,0-24.02,10.56-24.02,23.58s10.75,23.58,24.02,23.58,24.02-10.56,24.02-23.58-10.75-23.58-24.02-23.58h0Z"/><path class="bu" d="M925.41-17.89c8.37,0,15.17,6.6,15.17,14.71s-6.81,14.71-15.17,14.71-15.17-6.6-15.17-14.71,6.81-14.71,15.17-14.71m0-10c-13.9,0-25.17,11.06-25.17,24.71s11.27,24.71,25.17,24.71,25.17-11.06,25.17-24.71-11.27-24.71-25.17-24.71h0Z"/><path class="bu" d="M1283.78,29.79c13.19,0,23.92,10.45,23.92,23.3s-10.73,23.3-23.92,23.3-23.92-10.45-23.92-23.3,10.73-23.3,23.92-23.3m0-10c-18.74,0-33.92,14.91-33.92,33.3s15.19,33.3,33.92,33.3,33.92-14.91,33.92-33.3-15.19-33.3-33.92-33.3h0Z"/><path class="bu" d="M1151.22,226.95c7.23,0,13.11,5.69,13.11,12.68s-5.88,12.68-13.11,12.68-13.11-5.69-13.11-12.68,5.88-12.68,13.11-12.68m0-10c-12.76,0-23.11,10.16-23.11,22.68s10.35,22.68,23.11,22.68,23.11-10.16,23.11-22.68-10.35-22.68-23.11-22.68h0Z"/><path class="bu" d="M529.38,272.82c9.7,0,17.59,7.66,17.59,17.08s-7.89,17.08-17.59,17.08-17.59-7.66-17.59-17.08,7.89-17.08,17.59-17.08m0-10c-15.24,0-27.59,12.12-27.59,27.08s12.35,27.08,27.59,27.08,27.59-12.12,27.59-27.08-12.35-27.08-27.59-27.08h0Z"/><path class="bu" d="M308.15,63.36c13.04,0,23.64,10.33,23.64,23.02s-10.61,23.02-23.64,23.02-23.64-10.33-23.64-23.02,10.61-23.02,23.64-23.02m0-10c-18.58,0-33.64,14.79-33.64,33.02s15.06,33.02,33.64,33.02,33.64-14.79,33.64-33.02-15.06-33.02-33.64-33.02h0Z"/></g></g></g></g></svg>