<?xml version="1.0" encoding="UTF-8"?><svg xmlns="http://www.w3.org/2000/svg" xmlns:xlink="http://www.w3.org/1999/xlink" viewBox="0 0 1920 1080"><defs><style>.ay{fill:#fff;}.b`{fill:#808083;}.ba{fill:#dedfe0;}.bb{fill:#cfd1d2;}.bc{fill:#d0d2d3;}.bd{fill:#acaeb1;}.be{fill:#bbbdbf;}.bf{stroke:#848588;stroke-linecap:round;stroke-miterlimit:10;stroke-width:10px;}.bf,.bg{fill:none;}.bh{fill:#67686a;}.bi{clip-path:url(#d);}.bj{fill:#e5e6e7;}.bk{fill:#848588;}.bl{fill:#5f6062;}.bm{fill:#a5a7aa;}.bn{fill:#828385;}.bo{fill:#626365;}.bp{fill:#98999c;}.bq{fill:#58595b;}</style><clipPath id="d"><rect id="e" class="bg" width="1920" height="1080"/></clipPath></defs><g id="a"/><g id="b"><g id="c"><g class="bi"><rect id="f" class="bl" width="1920" height="1080"/><rect id="g" class="bd" x=".01" y="530.69" width="1920.08" height="550.1"/><g id="h"><path class="bn" d="M1191.92,739.59c-189.33,0-361.37-40.14-543.52-82.64C450.25,610.72,245.34,562.91,.01,562.91H-4.99v-107.7H1925.09v157.11l-3.24,1.22c-.84,.32-85.14,31.91-216.6,63.05-121.31,28.74-308.85,63-513.33,63Z"/><path class="bk" d="M1920.09,460.21v148.65s-333.26,125.73-728.16,125.73S471.07,557.91,.01,557.91v-97.7H1920.09m10-10H-9.99v117.7H.01c244.75,0,449.37,47.74,647.26,93.91,182.43,42.57,354.75,82.77,544.65,82.77,90.52,0,185.31-6.64,281.72-19.74,77.1-10.47,155.41-25.07,232.75-43.4,131.78-31.22,216.38-62.92,217.22-63.24l6.47-2.44v-165.56h0Z"/></g><g id="i"><path class="bc" d="M-5.09,1084.31l.08-445.64H-.01c117.37,0,236.71,13.63,364.84,41.68,113,24.73,218.26,57.18,320.05,88.56,173.47,53.48,337.33,103.99,504.7,103.99,185.22,0,373.38-42.72,498.6-78.55,135.79-38.86,228.93-78.23,229.85-78.62l6.96-2.96v371.54H-5.09Z"/><path class="bj" d="M-.01,643.67c487.44,0,826.63,234.23,1189.59,234.23s730.41-157.58,730.41-157.58v358.98H-.09L-.01,643.67M-.01,633.67H-10.01v10l-.08,435.64v10H1929.99v-384.1l-13.91,5.91c-.92,.39-93.89,39.69-229.42,78.46-124.88,35.73-312.49,78.32-497.08,78.32-166.62,0-330.12-50.4-503.23-103.77-101.89-31.41-207.25-63.89-320.45-88.67C237.41,647.34,117.73,633.67-.01,633.67H-.01Z"/></g><g id="j"><g id="k"><path id="l" class="bh" d="M1460.68,549.58l-29.76,40.87c-1.44,1.44,3.41,8.64,10.85,16.07,7.43,7.43,14.59,12.25,16.03,10.81l40.87-29.76-37.99-37.99Z"/><path id="m" class="b`" d="M1503.24,583.63l-38.63-38.63-4.93,3.57c-1.44,1.44,6.35,11.58,17.41,22.64,11.06,11.06,21.14,18.8,22.58,17.36l3.57-4.93Z"/><path id="n" class="bp" d="M1503.24,583.63c1.44-1.44-5.99-11.22-16.68-21.9-10.68-10.68-20.51-18.17-21.95-16.73s6.05,11.27,16.73,21.95c10.68,10.68,20.46,18.12,21.9,16.68Z"/><path id="o" class="b`" d="M1505.77,576.93l-34.45-34.45-4.43,3.21c-1.3,1.3,5.65,10.34,15.51,20.2,9.86,9.86,18.86,16.76,20.15,15.46l3.21-4.43Z"/><path id="p" class="bp" d="M1505.77,576.93c1.3-1.3-5.33-10.02-14.86-19.55-9.53-9.53-18.3-16.2-19.6-14.91-1.3,1.3,5.38,10.07,14.91,19.6,9.53,9.53,18.25,16.15,19.55,14.86Z"/><path id="q" class="b`" d="M1482.63,553.94c.44-.44-1.16-2.75-3.58-5.18-2.43-2.43-4.75-4.04-5.19-3.6s1.17,2.76,3.6,5.19c2.43,2.43,4.74,4.02,5.18,3.58Z"/></g><g id="r"><rect class="bn" x="1413.25" y="576.31" width="112.37" height="83.97"/></g><path id="s" class="bf" d="M1439.1,572.67c9.44,9.44,61.54,9.96,71.5,0"/></g><g id="t"><path class="b`" d="M873.98,871.84h-127.63c0-35.24,28.57-63.81,63.82-63.81s63.81,28.57,63.81,63.81Z"/><path class="b`" d="M653.46,871.84h-103.91c0-28.69,23.26-51.95,51.95-51.95s51.95,23.26,51.95,51.95Z"/><path class="b`" d="M778.13,869.37h-170.78c0-47.16,38.23-85.39,85.39-85.39s85.39,38.23,85.39,85.39Z"/><path class="b`" d="M805.56,833.38h-82.87c0-22.88,18.55-41.43,41.44-41.43s41.43,18.55,41.43,41.43Z"/><g id="u"><path id="v" class="bq" d="M595.75,837.27l-3.8-13.24-45.2,12.96,3.8,13.24c1.93,6.73,13.61,9.28,26.09,5.7,12.48-3.58,21.04-11.93,19.11-18.66Z"/><path id="w" class="bc" d="M592.25,825.09l-.3-1.06h0l-3.49-12.18-45.2,12.96,3.8,13.24,.09-.03c2.78,5.94,13.88,8.05,25.7,4.66,11.82-3.39,20.11-11.06,19.32-17.57l.09-.03Z"/><path id="x" class="bq" d="M569.67,831.64c-12.48,3.58-24.17,1.03-26.09-5.7l-1.57-5.48,2.42-.69,40.36-11.58,2.42-.69,1.57,5.48c1.93,6.73-6.63,15.08-19.11,18.66Z"/><ellipse id="y" class="bn" cx="564.61" cy="813.99" rx="23.51" ry="12.67" transform="translate(-202.47 187.14) rotate(-16)"/><path id="a`" class="ay" d="M568.86,846.78c-15.8,12.75-29.63-12.04-25.87-26.37,1.22-1.48,2.54-3.24,3.57-4.79,7.03,.23,13.91,2.55,19.68,6.62-.6,.62-.99,1.4-1.09,2.27h-.02c.19,7.99,11.89,13.77,3.73,22.26Z"/><path id="aa" class="bq" d="M584.77,807.21c.5,1.73,0,3.62-1.27,5.49-.23,.34-.49,.69-.77,1.03-2.8,3.4-8.03,6.63-14.49,8.68-.36,.12-.74,.23-1.12,.34s-.76,.22-1.13,.31c-.14,.04-.27,.08-.41,.1-6.39,1.59-12.36,1.57-16.45,.21-.43-.12-.84-.28-1.22-.46-1.57-.7-2.74-1.63-3.45-2.78-.23-.38-.41-.78-.53-1.21-1.54-5.36,6.36-12.32,17.64-15.55,11.29-3.24,21.68-1.52,23.21,3.84Z"/><path id="ab" class="bh" d="M582.73,813.73c-5.76,7.59-24.62,13.03-33.61,9.64,6.82-5.14,27.05-10.43,33.61-9.64Z"/></g><g id="ac"><path id="ad" class="bq" d="M778.34,802.58v41.37c0,4.47,3.62,8.09,8.09,8.09h32.95c5.03,0,8.81-4.57,7.89-9.5l-9.27-39.94c-.53-2.8-3.16-4.7-5.99-4.31l-30.01,.14c-2.09,.27-3.66,2.05-3.66,4.16Z"/><path id="ae" class="bh" d="M779.91,803.04l7.18,38.59c.73,4.16,4.81,10.42,9.27,10.42h23.01c5.03,0,8.81-4.57,7.89-9.5l-9.27-39.94c-.53-2.8-3.16-4.7-5.99-4.31l-28.66,.14c-2.09,.27-3.78,2.36-3.44,4.61Z"/><circle id="af" class="bq" cx="801.88" cy="807.81" r="6.4"/><path id="ag" class="bh" d="M798.57,777.31h2.99c.53,0,.96,.43,.96,.96v27.64c0,1.36-1.1,2.46-2.46,2.46h0c-1.36,0-2.46-1.1-2.46-2.46v-27.64c0-.53,.43-.96,.96-.96Z" transform="translate(-77.19 86.36) rotate(-5.89)"/><path id="ah" class="bc" d="M806.12,838.82c11.32-.71,8.73-11.46,5.85-14.34-2.88-2.88-9.15-3.79-13.04,0-4.04,3.94-.51,14.82,7.2,14.34Z"/><path id="ai" class="b`" d="M808.45,818.81c-.76-.55-3.45-.04-5.65,3.06-3.68-2.93-7.58,.7-7.59,1.59,0,.92,3.31,3.1,7.79,.37,3.75,0,6.99-3.91,5.45-5.02Z"/></g><path class="bo" d="M644.29,940.51h-200.71c0-55.42,44.93-100.35,100.36-100.35s100.35,44.93,100.35,100.35Z"/><path class="bo" d="M1019.48,946.64h-264.01c0-72.9,59.1-132,132.01-132s132,59.1,132,132Z"/><path class="bo" d="M851.77,959.91h-264.01c0-72.9,59.1-132,132.01-132s132,59.1,132,132Z"/><path class="bq" d="M745.07,984.93H487.21c0-71.2,57.72-128.93,128.94-128.93s128.93,57.72,128.93,128.93Z"/><g id="aj"><path id="ak" class="bq" d="M867.2,908.88c-6.03,14.02-21.33,15.92-38,11.77-16.11-4.03-33.51-13.73-45.05-23.63-9.22-7.93-14.72-15.99-12.79-21.38l-11.29-4.84,4.96-11.24,11.81,4.79c3.11-2.4,12.22-3.44,23.59-2.86,15.72,.8,35.76,4.68,50.22,12.31,14.53,7.67,23.41,19.15,16.55,35.08Z"/><rect id="al" class="bc" x="758.59" y="862.08" width="15.88" height="9.56" rx="1.35" ry="1.35" transform="translate(1873.88 531.02) rotate(114.61)"/><path id="am" class="bc" d="M850.65,873.81l-21.45,46.85c-16.11-4.03-33.51-13.73-45.05-23.63l16.28-35.53c15.72,.8,35.76,4.68,50.22,12.31Z"/></g><path class="bq" d="M891.35,984.93h-171.59c0-47.38,38.41-85.79,85.8-85.79s85.79,38.41,85.79,85.79Z"/><path class="bq" d="M1105.25,984.93h-264.01c0-72.9,59.1-132,132.01-132s132,59.1,132,132Z"/><g id="an"><path id="ao" class="bk" d="M702.81,836.5l-10.99,20.59v.03l-13.08-6.38,9.83-20.62c13.95-26.8-20.9-44.96-34.87-18.18,0,0-37.82,69.74-37.82,71.21-21.25-4.17-27.39,21.01-17.18,29.95,19.06,15.49,40.25,25.99,64.75,31.6,8.99,2.07,18.44,3.48,28.37,4.21,14.92,.79,24.6-17.95,14.82-27l32.02-65.28c14.86-26.45-20.99-46.58-35.85-20.13Zm-51.42-.12l12.61-22.24c8.09-15.14,25.18-6.02,17.11,9.12l-12.79,22.4s-16.93-8.63-16.93-9.29Zm80.52,13.18l-12.78,22.42s-7.52-3.82-12.53-6.59c-2.25-1.23-3.99-2.25-4.34-2.61h-.01c-.04-.05-.05-.08-.05-.1l12.62-22.24c8.07-15.14,25.18-6.01,17.09,9.12Z"/><path id="ap" class="bh" d="M738.66,856.63l-32.02,65.28c9.78,9.06,.1,27.79-14.82,27-9.94-.74-19.38-2.14-28.37-4.21l43.14-79.32c5.01,2.76,12.53,6.59,12.53,6.59l12.78-22.42c8.09-15.13-9.02-24.26-17.09-9.12l-12.62,22.24s.01,.05,.05,.09l-10.43-5.67,10.99-20.59c14.86-26.45,50.71-6.32,35.85,20.13Z"/></g><path class="bq" d="M670.27,963.4h-125.86c0-34.75,28.17-62.93,62.93-62.93s62.93,28.17,62.93,62.93Z"/><path class="bq" d="M742,951.93h-125.86c0-34.75,28.17-62.93,62.93-62.93s62.93,28.17,62.93,62.93Z"/></g><g id="aq"><g id="ar"><path class="bq" d="M1597.97,640.37h0c-29.64,17.85-86.81,70.37-68.96,100.01,6.92,11.49,35.86,14.18,47.35,7.26l111.01-61.86c12-7.23,15.51-37.25,8.28-49.25h0c-17.54-29.13-68.54-13.7-97.67,3.84Z"/><path class="bm" d="M1656.73,676.88c-34.71,.05-100.3,28.09-99.91,63.06-.64,13.72,14.14,24.86,24.33,23.88,3.48-.04,150.01,.03,150.54,0,13.82-.22,24.95-11.5,24.95-25.37,0-34-65.91-61.57-99.91-61.57Z"/></g><path id="as" class="ba" d="M1623.59,763.82H539.82c-10.44,0-20.68-.79-30.71-2.3-40.98-6.2-78-24.63-107.31-51.47-.68-.62-1.36-1.24-2.02-1.86-.57-.54-1.14-1.09-1.71-1.63-1.78-1.72-3.54-3.46-5.26-5.25-.48-.46-.92-.93-1.37-1.41-.12-.13-.23-.25-.35-.37-.89-.96-1.78-1.91-2.66-2.88-.19-.21-.39-.43-.58-.65-30.28-33.82-48.13-77.78-53.32-131.18-.12-2.78-.17-5.57-.17-8.37-.45-12.74-.94-25.76-1.21-38.85-2.03-97.4,7.8-198.11,132.2-204.79,476-34.61,678.11,40.99,1158.24,451.01Z"/><g id="at"><path class="bb" d="M1275.89,763.82H530.98c-6.68,0-13.35-.65-19.9-1.91-.66-.13-1.32-.26-1.98-.39-4.97-.99-9.84-2.11-14.63-3.32-36.71-9.35-67.7-25.44-92.69-48.15-.68-.62-1.36-1.24-2.02-1.86-.57-.54-1.14-1.09-1.71-1.63-1.8-1.71-3.55-3.46-5.26-5.25-.48-.46-.92-.93-1.37-1.41-.12-.13-.23-.25-.35-.37-.89-.94-1.78-1.91-2.66-2.88-.19-.21-.39-.43-.58-.65-30.28-33.82-48.13-77.78-53.32-131.18-1.46-15-1.93-30.75-1.38-47.22,.1-3.22,.25-6.45,.43-9.72,1.69-30.63,27.91-54.1,58.54-52.39,30.65,1.71,54.1,27.92,52.39,58.55-2.79,50.3,6.51,87.14,27.66,109.5,6.15,6.5,13.59,12.05,22.31,16.64v-4.97h644.08c71.03,0,137.33,57.58,137.33,128.6Z"/><path class="bm" d="M1379.49,636.65c.43,20.82-23.16,35.74-41.78,25.96l-109.88-54.21c-11.81-5.82-17.92-18.66-15.7-31.01-2.93,3.13,115.46,58.24,118.47,60.69,16.9,8.67,38.33-2.27,41.34-20.94,4.86,5.35,7.55,12.34,7.55,19.52Z"/><path class="bb" d="M900.31,525.71c57.69,37.76,112.67-112.67,86.38-130.19-35.08-17.53-155.23,85.13-86.38,130.19Z"/><path class="bm" d="M740.75,462.65c41.6-38.9-61.36-126.71-99.14-109.22-25.77,11.93-28.83,30.01-23.86,50.58,4.17,17.26,95.37,71.62,123,58.64Z"/><circle class="bm" cx="488.57" cy="403.04" r="16.89"/></g><g id="au"><path class="bm" d="M530.31,617h499.27c6.92,0,12.54,5.62,12.54,12.54v49.22c0,39.78-32.3,72.07-72.07,72.07h-439.74c-36.91,0-66.87-29.96-66.87-66.87v-.1c0-36.91,29.96-66.87,66.87-66.87Z"/><path class="b`" d="M570.94,616.9h455.69c5.88,0,10.66,4.78,10.66,10.66v56.3c0,24.82-20.15,44.97-44.97,44.97h-421.38c-30.89,0-55.96-25.08-55.96-55.96h0c0-30.89,25.08-55.96,55.96-55.96Z"/><path class="be" d="M613.24,616.9h416.24c4.31,0,7.8,3.5,7.8,7.8v41.22c0,18.17-14.75,32.92-32.92,32.92h-391.12c-22.61,0-40.97-18.36-40.97-40.97h0c0-22.61,18.36-40.97,40.97-40.97Z"/><rect class="bp" x="606.73" y="649.08" width="360.23" height="23.79" rx="11.89" ry="11.89"/><g id="av"><circle class="ay" cx="646.13" cy="639.61" r="15.21"/><circle class="ay" cx="726.99" cy="639.61" r="15.21"/><circle class="ay" cx="808.36" cy="639.61" r="15.21"/><circle class="ay" cx="889.96" cy="639.61" r="15.21"/><circle class="ay" cx="678.36" cy="697.17" r="15.21"/><circle class="ay" cx="759.21" cy="697.17" r="15.21"/><circle class="ay" cx="840.58" cy="697.17" r="15.21"/><circle class="ay" cx="922.18" cy="697.17" r="15.21"/><circle class="ay" cx="971.55" cy="639.61" r="15.21"/></g></g><path id="aw" class="ay" d="M849.85,383.42s-9.89,9.04-22.01,20.27c-12.13,11.23-21.9,20.4-21.9,20.4-11.23-12.13-10.51-31.06,1.62-42.29,12.13-11.23,31.06-10.51,42.29,1.62Z"/><g id="ax"><rect class="ba" x="753.24" y="704.35" width="395.33" height="92.96" rx="44.82" ry="44.82" transform="translate(-218.28 1068.61) rotate(-53.5)"/><rect class="bm" x="818.87" y="732.26" width="318.8" height="44.03" rx="22.01" ry="22.01" transform="translate(-209.96 1092) rotate(-53.5)"/></g></g></g></g></g></svg>