<?xml version="1.0" encoding="UTF-8"?><svg xmlns="http://www.w3.org/2000/svg" xmlns:xlink="http://www.w3.org/1999/xlink" viewBox="0 0 1920 1080"><defs><style>.aq{fill:#fff;}.ar{fill:#808083;}.as,.at{stroke:#848588;stroke-linecap:round;stroke-miterlimit:10;stroke-width:10px;}.as,.au{fill:#5f6062;}.av{fill:#d0d2d3;}.aw{fill:#acaeb1;}.at,.ax{fill:none;}.ay{fill:#67686a;}.b`{clip-path:url(#d);}.ba{fill:#848588;}.bb{fill:#828385;}.bc{fill:#babcbe;}.bd{fill:#58595b;}</style><clipPath id="d"><rect id="e" class="ax" width="1920" height="1080"/></clipPath></defs><g id="a"/><g id="b"><g id="c"><g class="b`"><rect id="f" class="bc" width="1920" height="1080"/><rect id="g" class="ay" y="395.46" width="1920" height="684.54"/><rect id="h" class="au" x="-11.61" y="824.22" width="1920" height="255.42"/><g id="i"><path class="as" d="M-1.94,824.58s46.99-59.15,173.86-59.15,171.98,61.08,359.93,61.08"/><path class="as" d="M752.81,824.58s80.35-40.85,151.61-40.85,157.68,40.85,239.55,40.85"/><path class="as" d="M1654,824.58c45.5,0,133.18-72.68,263.59-72.68s202.55,72.68,265.26,72.68"/><path class="au" d="M108.05,699.51c20.35,6.52,41.87,8.33,63.2,9.65,88.86,5.49,180.22,2.77,263.48-28.75-18.2-3.04-36.44-6.09-54.27-10.84-22.08-5.88-43.39-14.33-65.19-21.16-55.6-17.42-117.52-23.84-171.13-1.03-12.88,5.48-25.03,12.48-37.61,18.59s-25.59,9.64-39.39,13.05c2.64,4.94,13.81,8.95,18.85,11.45,7.12,3.54,14.48,6.61,22.06,9.04Z"/><path class="as" d="M56.38,679.85c60.35,0,60.35-49.45,167.22-49.45s134.53,51.97,237.63,51.97"/><path class="au" d="M459.03,482.8c61.97,4.01,125.71,7.82,184.74-11.47-22.45-16.27-46.7-32.73-74.36-34.67-11.45-.8-22.91,.97-34.16,3.23-30.35,6.1-59.84,15.82-89.24,25.52-4.54,1.5-22.93,4.42-14.2,11.92,6.23,5.35,19.51,4.98,27.22,5.48Z"/><path class="as" d="M414.6,471.33c37.9,0,81.87-32.6,142.51-32.6s66.71,32.6,95.51,32.6"/><path class="au" d="M1497.59,662.3c78.87-3.25,156.63-19.28,233.55-37-63.23-3.63-118.88-42.35-180.51-56.95-25.85-6.12-52.6-7.94-79.14-6.9-55.21,2.16-109.85,16.85-158.83,42.39-7.87,4.1-25.77,10.69-26.74,21.49-.96,10.65,21.11,13.61,28.84,15.97,27.57,8.45,55.95,14.14,84.57,17.55,32.58,3.88,65.48,4.81,98.25,3.46Z"/><path class="as" d="M1259.07,621.42c73.53,0,87.18-62.92,219.84-62.92s134.93,62.92,272.14,62.92"/><path class="au" d="M1691.29,498.06c70.99,12.92,144.26,9.68,215.29-3.01,1.7-.3,3.68-.82,4.33-2.43,1.16-2.87-2.86-4.91-5.9-5.52-21.34-4.29-40.68-15.13-60.17-24.82-19.5-9.68-40.29-18.5-62.06-18.19-17.48,.25-34.27,6.37-50.67,12.41l-57.08,21.03c-6.35,2.34-17.93,5.05-8.69,12.45,6.45,5.16,17.1,6.63,24.96,8.06Z"/><path class="as" d="M1647.95,481.18c65.19,0,67.47-36.39,128.87-36.39s101.58,43.21,136.45,43.21"/><path class="au" d="M184.97,391.41c18.22-2.62,36.94-1.65,54.79,2.84,8.35,2.1,16.58,5,23.81,9.68,8.72,5.64,16.56,14.07,26.92,14.83-31.2,15.21-66.41,21.29-101.11,20.4-27.48-.71-54.71-5.69-81.09-13.26-3.79-1.09-13.62-1.96-14.4-6.93-.84-5.37,7.33-4.9,10.88-5.69,12.83-2.86,25.32-7.04,37.83-11.04,13.89-4.44,27.91-8.75,42.38-10.83Z"/><path class="as" d="M81.81,415.99c38.66,0,80.35-26.53,127.35-26.53s65.95,29.56,90.21,29.56"/></g><g id="j"><g id="k"><path id="l" class="aw" d="M517.5,608.45l-10.89,3.64-.65-1.94-20.96-62.77-.65-1.94,10.9-3.64c17.88-5.97,37.36,4.11,43.5,22.52,6.15,18.4-3.37,38.16-21.25,44.13Z"/><ellipse id="m" class="aq" cx="495.48" cy="578.76" rx="34.14" ry="35.13" transform="translate(-157.79 186.71) rotate(-18.46)"/><ellipse id="n" class="av" cx="494.97" cy="578.93" rx="28.11" ry="29.73" transform="translate(-157.87 186.56) rotate(-18.46)"/><path id="o" class="au" d="M538.75,564.32c-6.14-18.41-25.62-28.49-43.5-22.52l-10.9,3.64h0c-17.88,5.97-27.4,25.73-21.25,44.14,6.15,18.41,25.62,28.49,43.51,22.51h.01l10.88-3.64c17.88-5.97,27.4-25.73,21.25-44.13Z"/><path id="p" class="at" d="M452.96,578.76c24.96,13.91,50.8,13.14,92.17,0"/></g><g id="q"><path id="r" class="ba" d="M1461.42,646.23l-.69,1.66c-.27,.66,0,1.41,.62,1.75,5.14,2.83,8.2,9.46,5.57,15.76l-13.67,32.76c-1.75,4.18-6.56,6.16-10.74,4.42l-8.22-3.44c-1.45-.6-2.59-1.76-3.18-3.2-.6-1.46-2.27-2.16-3.72-1.55l-2.7,1.11c-.46,.18-.99,.19-1.45,0l-3.5-1.46c-.46-.19-.83-.57-1.01-1.02l-1.12-2.7c-.59-1.46-2.26-2.15-3.72-1.55-1.45,.59-3.07,.59-4.52-.02l-8.22-3.42c-4.18-1.75-6.16-6.56-4.42-10.74l13.67-32.76c2.63-6.3,9.49-8.79,15.12-7.12,.68,.21,1.42-.13,1.69-.79l.69-1.66c.16-.39,.16-.83,0-1.23-2.93-1.22-5.27-5.42-6.32-9.38-.69-2.59-.83-5.06-.22-6.53l8.56-20.51c1.38-3.31,4.25-6.46,7.88-8.73,5.33-3.35,12.3-4.81,18.63-2.17l7.35-17.62,19.41,8.1-7.35,17.62c6.33,2.64,10.19,8.63,11.56,14.77,.93,4.18,.72,8.43-.67,11.74l-8.56,20.51c-.61,1.47-2.47,3.11-4.79,4.44-3.55,2.03-8.18,3.32-11.11,2.1-.39,.16-.7,.48-.87,.86Z"/><path id="s" class="av" d="M1486.75,618.32l-8.56,20.51c-.61,1.47-2.47,3.11-4.79,4.44l-51.82-21.63c-.69-2.59-.83-5.06-.22-6.53l8.56-20.51c1.38-3.31,4.25-6.46,7.88-8.73l49.61,20.71c.93,4.18,.72,8.43-.67,11.74Z"/><rect id="t" class="ar" x="1459.44" y="565.21" width="24.65" height="17.54" rx="3.31" ry="3.31" transform="translate(334.63 -522.59) rotate(22.65)"/><path id="u" class="au" d="M1487.42,606.58c-1.37-6.14-5.23-12.13-11.56-14.77l2.52-6.05c1.14-.14,2.19-.86,2.66-2l4.2-10.07c.7-1.69-.09-3.63-1.78-4.33l-16.64-6.94c-1.69-.7-3.63,.09-4.33,1.78l-4.2,10.07c-.51,1.23-.22,2.59,.62,3.51l-2.47,5.93c-6.33-2.64-13.3-1.18-18.63,2.17-3.63,2.27-6.5,5.42-7.88,8.73l-8.56,20.51c-.61,1.47-.48,3.94,.22,6.53,1.05,3.95,3.39,8.16,6.32,9.38,.16,.39,.16,.84,0,1.23l-.69,1.66c-.27,.66-1.01,.99-1.69,.79-5.63-1.66-12.49,.82-15.12,7.12l-13.67,32.76c-1.75,4.18,.23,9,4.42,10.74l8.22,3.42c1.45,.6,3.07,.61,4.52,.02,1.45-.6,3.12,.09,3.72,1.55l1.12,2.7c.19,.46,.55,.83,1.01,1.02l3.5,1.46c.46,.19,.98,.19,1.45,0l2.7-1.11c1.45-.6,3.12,.1,3.72,1.55,.59,1.44,1.74,2.59,3.18,3.2l8.22,3.44c4.18,1.75,9-.23,10.74-4.42l13.67-32.76c2.63-6.3-.43-12.93-5.57-15.76-.63-.34-.9-1.09-.62-1.75l.7-1.66c.16-.39,.47-.7,.87-.86,2.93,1.22,7.56-.07,11.11-2.1,2.32-1.33,4.18-2.97,4.79-4.44l8.56-20.51c1.38-3.31,1.6-7.56,.67-11.74Z"/><path id="v" class="at" d="M1406.65,634.65c27.27,12.06,56.18,10.91,86.31,0"/></g><g id="w"><path id="x" class="bd" d="M866.77,692.72l-11.76-27.53-93.99,40.16,11.76,27.53c5.98,13.99,31.86,16.33,57.82,5.24s42.15-31.42,36.17-45.41Z"/><path id="y" class="av" d="M855.76,667.47l.19-.08-11.76-27.53-93.99,40.16,10.82,25.32h0l.94,2.21,.19-.08c7.61,12.07,32.11,13.62,56.69,3.12s40.39-29.28,36.93-43.12Z"/><path id="a`" class="bd" d="M809.01,687.63c-25.96,11.09-51.84,8.74-57.82-5.25l-4.87-11.39,5.02-2.15,83.97-35.87,5.01-2.14,4.86,11.39c5.98,13.99-10.22,34.31-36.17,45.41Z"/><ellipse id="aa" class="bb" cx="793.32" cy="650.91" rx="51.11" ry="27.54" transform="translate(-191.96 364.09) rotate(-23.14)"/><path id="ab" class="aq" d="M811.34,720.49c-30.62,31.76-67.15-17.96-62.92-49.88,2.22-3.52,4.6-7.67,6.39-11.3,15.22-1.41,30.68,1.75,44.24,8.97-1.13,1.5-1.75,3.28-1.74,5.2h-.03c2.57,17.18,29.35,26.49,14.06,47.02Z"/><path id="ac" class="bd" d="M834.98,630.84c1.53,3.59,.98,7.81-1.26,12.19-.41,.8-.88,1.63-1.39,2.44-5.11,8.08-15.52,16.48-28.9,22.62-.75,.35-1.54,.69-2.33,1.03-.79,.34-1.58,.68-2.35,.97-.28,.12-.57,.24-.87,.34-13.36,5.15-26.23,6.73-35.43,4.9-.96-.15-1.88-.38-2.75-.67-3.57-1.08-6.35-2.78-8.19-5.06-.59-.77-1.09-1.58-1.47-2.47-4.76-11.14,10.4-28.28,33.84-38.3,23.47-10.03,46.34-9.13,51.1,2Z"/><path id="ad" class="ay" d="M832.33,645.47c-10.37,17.93-49.59,34.76-69.88,29.86,13.32-12.93,55.52-29.81,69.88-29.86Z"/><path id="ae" class="au" d="M866.77,692.72l-11.76-27.53h0l-10.82-25.32h0l-3.85-9.03h0c-5.98-13.99-31.86-16.33-57.82-5.24-25.95,11.09-42.15,31.42-36.18,45.4h0l1.77,4.15c-.26,15.3,7.6,33.37,19.08,44.65l5.6,13.1c5.98,13.99,31.86,16.33,57.82,5.24s42.15-31.42,36.17-45.41Z"/><path id="af" class="at" d="M732.22,678.19c36.77,12.87,78.18,20.16,142.48,0"/></g><g id="ag"><path id="ah" class="bd" d="M1011.79,504.74l20.65,45.96c2.23,4.96,8.06,7.18,13.02,4.95l36.6-16.44c5.58-2.51,7.51-9.47,4.02-14.5l-30.23-39.75c-1.98-2.85-5.86-3.65-8.8-1.8l-33.27,15.13c-2.19,1.34-3.04,4.1-1.99,6.45Z"/><path id="ai" class="ay" d="M1013.76,504.46l27.24,39.29c2.89,4.26,10.54,9.17,15.5,6.94l25.56-11.48c5.58-2.51,7.51-9.47,4.02-14.5l-30.23-39.75c-1.98-2.85-5.86-3.65-8.8-1.8l-31.77,14.46c-2.19,1.34-3.02,4.5-1.52,6.84Z"/><circle id="aj" class="bd" cx="1040.55" cy="498.81" r="7.79"/><path id="ak" class="ay" d="M1029.23,464.16h3.65c.65,0,1.17,.52,1.17,1.17v33.67c0,1.65-1.34,2.99-2.99,2.99h0c-1.65,0-2.99-1.34-2.99-2.99v-33.67c0-.65,.52-1.17,1.17-1.17Z" transform="translate(-103.26 581.93) rotate(-30.08)"/><path id="al" class="av" d="M1060.73,531.14c12.23-6.44,3.98-17.08-.66-18.85-4.64-1.76-12.06,.35-14.49,6.51-2.53,6.4,6.82,16.72,15.15,12.34Z"/><path id="am" class="ar" d="M1053.33,507.74c-1.12-.23-3.85,1.68-4.75,6.22-5.55-1.42-8.08,4.56-7.64,5.56,.45,1.03,5.23,1.8,8.84-3.48,4.16-1.87,5.81-7.83,3.55-8.3Z"/><path id="an" class="au" d="M1086.08,524.72l-30.23-39.75c-1.98-2.85-5.86-3.65-8.8-1.8l-9.88,4.49-12.42-21.43c-.32-.56-1.04-.75-1.6-.43l-3.16,1.83c-.56,.32-.75,1.04-.43,1.6l12.12,20.92-17.92,8.15c-2.19,1.34-3.04,4.1-1.99,6.45l20.65,45.96c2.23,4.96,8.06,7.18,13.02,4.95l11.04-4.96h0l25.56-11.48c5.58-2.51,7.51-9.47,4.02-14.5Z"/><path id="ao" class="at" d="M1011.34,513.99c30.45,11.18,54.49,10.03,73.9,0"/></g></g><g id="ap"><path class="aq" d="M439.91,125.68c0,12.03-4.93,22.97-12.86,30.9-7.93,7.94-18.87,12.86-30.91,12.86h-133.3c-17.71,0-33.06-10.66-39.93-25.89-8.17-1.26-15.5-5.15-21.11-10.76-6.92-6.92-11.21-16.46-11.21-26.94,0-20.99,17.17-38.16,38.16-38.16h25.82c7.54-12.76,21.45-21.37,37.26-21.37h69.2c11.89,0,22.71,4.86,30.55,12.7,6.28,6.28,10.65,14.46,12.13,23.58,20.49,3.6,36.19,21.6,36.19,43.08Z"/><path class="aq" d="M740.21,230.75c0,7.07-1.89,13.73-5.2,19.49-1.73,5.85-4.92,11.09-9.13,15.3-6.55,6.56-15.59,10.62-25.53,10.62h-116.78c-19.88,0-36.14-16.26-36.14-36.15,0-9.94,4.06-18.97,10.62-25.53,6.54-6.54,15.58-10.61,25.52-10.61h17.46c2.03-6.93,5.79-13.13,10.77-18.12,7.69-7.69,18.31-12.47,29.99-12.47s22.29,4.78,29.98,12.47c2.28,2.28,4.29,4.8,6,7.54,3.83-1.25,7.91-1.93,12.14-1.93h10.91c10.83,0,20.68,4.43,27.82,11.57,7.14,7.14,11.57,16.99,11.57,27.82Z"/><path class="aq" d="M1764.71,172.64v.29c0,32.01-26.19,58.2-58.2,58.2h-100.71c-16.95,0-32.27-7.34-42.93-19.01h-38.2c-32.01,0-58.2-26.19-58.2-58.2v-2.84c0-32.01,26.19-58.2,58.2-58.2h53.09c1.81-7.28,5.6-13.8,10.75-18.95,7.38-7.38,17.56-11.96,28.75-11.96h46.13c22.39,0,40.71,18.32,40.71,40.71,0,4.09-.61,8.04-1.75,11.76h4.16c32.01,0,58.2,26.19,58.2,58.2Z"/><path class="aq" d="M1088.11,146.12c0,12.99-5.32,24.8-13.88,33.36-8.56,8.57-20.37,13.88-33.36,13.88h-43.46c-.7,.84-1.44,1.65-2.21,2.42-6.35,6.35-15.11,10.29-24.74,10.29h-34.46c-19.26,0-35.02-15.76-35.02-35.03,0-9.63,3.94-18.38,10.29-24.73,4.48-4.48,10.16-7.77,16.51-9.31-3.14-6.43-4.91-13.64-4.91-21.24,0-13.39,5.48-25.54,14.3-34.36,8.82-8.82,20.98-14.3,34.37-14.3h34.14c21.31,0,39.54,13.88,46.08,33.06,20.78,4.95,36.35,23.73,36.35,45.96Z"/></g></g></g></g></svg>