<?xml version="1.0" encoding="UTF-8"?><svg xmlns="http://www.w3.org/2000/svg" xmlns:xlink="http://www.w3.org/1999/xlink" viewBox="0 0 400 400"><defs><style>.h{fill:#231f20;}</style><symbol id="a" viewBox="0 0 400 400"><g><path id="b" class="h" d="M400,181.46h-37.43c-9.17-81.24-78.71-144.47-162.75-144.47-50.7,0-96.06,22.93-126.19,59.05l50.57-8.88,6.45,36.49-82.43,14.3v.12l-28.63,4.93-4.09-23.05L0,32.67l36.69-6.41,8.18,46.23C81.81,28.23,137.47,0,199.81,0c104.74,0,190.77,79.63,200.19,181.46Z"/><path id="c" class="h" d="M.16,218.54H37.56c9.17,81.24,78.65,144.47,162.62,144.47,50.66,0,95.99-22.93,126.08-59.05l-50.53,8.88-6.44-36.49,82.36-14.3v-.12l28.61-4.93,4.09,23.05,15.48,87.28-36.66,6.41-8.17-46.23c-36.91,44.26-92.52,72.48-154.82,72.48C95.53,400,9.57,320.37,.16,218.54Z"/><use width="123.52" height="150.27" transform="translate(138.24 124.87)" xlink:href="#d"/></g></symbol><symbol id="d" viewBox="0 0 123.52 150.27"><g><path class="h" d="M123.52,0V93.07c-14.42,3.45-26.63,5.79-36.98,7.03V0h36.98Z"/><path class="h" d="M123.52,105.89v37.72c-20.59,4.44-38.09,6.66-52.88,6.66-27.37,0-45.73-7.64-57.69-23.54C4.44,115.63,0,101.82,0,86.54V0H36.98V86.54c0,3.58,.49,7.03,1.48,10.11,.99,2.96,2.22,5.55,3.94,7.77,6.66,8.88,24.41,11.09,52.64,6.9,8.51-1.23,18-3.08,28.48-5.42Z"/></g></symbol></defs><g id="e"/><g id="f"><g id="g"><use width="400" height="400" xlink:href="#a"/></g></g></svg>