<?xml version="1.0" encoding="UTF-8"?><svg xmlns="http://www.w3.org/2000/svg" xmlns:xlink="http://www.w3.org/1999/xlink" viewBox="0 0 921.79 309.8"><defs><style>.g{letter-spacing:-.06em;}.h{font-family:Ubuntu-Medium, Ubuntu Medium;font-size:285px;}.h,.i{fill:#231f20;}.j{letter-spacing:-.1em;}.k{letter-spacing:-.07em;}.l{letter-spacing:-.04em;}</style><symbol id="a" viewBox="0 0 123.52 150.27"><g><path class="i" d="M123.52,0V93.07c-14.42,3.45-26.63,5.79-36.98,7.03V0h36.98Z"/><path class="i" d="M123.52,105.89v37.72c-20.59,4.44-38.09,6.66-52.88,6.66-27.37,0-45.73-7.64-57.69-23.54C4.44,115.63,0,101.82,0,86.54V0H36.98V86.54c0,3.58,.49,7.03,1.48,10.11,.99,2.96,2.22,5.55,3.94,7.77,6.66,8.88,24.41,11.09,52.64,6.9,8.51-1.23,18-3.08,28.48-5.42Z"/></g></symbol><symbol id="b" viewBox="0 0 921.79 309.8"><g><text class="h" transform="translate(123.52 238.55)"><tspan class="j" x="0" y="0">n</tspan><tspan class="k" x="129.67" y="0">W</tspan><tspan class="l" x="350.83" y="0">a</tspan><tspan class="g" x="476.8" y="0">s</tspan><tspan class="l" x="572.56" y="0">t</tspan><tspan x="655.49" y="0">e</tspan></text><use width="123.52" height="150.27" transform="translate(0 88.28)" xlink:href="#a"/></g></symbol></defs><g id="c"/><g id="d"><g id="e"><g id="f"><use width="921.79" height="309.8" transform="translate(0 0)" xlink:href="#b"/></g></g></g></svg>